<svg width="140" height="40" viewBox="0 0 140 40" fill="none" xmlns="http://www.w3.org/2000/svg">
<path d="M48.5991 28.4H49.5591V30.68H50.1191L51.7351 28.4H52.8391L50.8791 31.072L52.9991 34H51.8311L50.1191 31.56H49.5591V34H48.5991V28.4ZM53.3934 33.2H53.4734C53.6868 33.2 53.8521 33.1413 53.9694 33.024C54.0921 32.9067 54.1801 32.7467 54.2334 32.544C54.2921 32.3413 54.3268 32.104 54.3374 31.832C54.3481 31.56 54.3534 31.2693 54.3534 30.96V28.4H58.1934V34H57.2334V29.28H55.3134V30.96C55.3134 31.3387 55.2974 31.7147 55.2654 32.088C55.2388 32.4613 55.1641 32.7973 55.0414 33.096C54.9241 33.3893 54.7428 33.6267 54.4974 33.808C54.2521 33.9893 53.9108 34.08 53.4734 34.08H53.3934V33.2ZM60.8761 32.4L58.9081 28.4H59.9801L61.3721 31.36H61.3881L62.6201 28.4H63.6281L61.1881 34H60.1801L60.8761 32.4ZM64.3491 28.4H68.0291V29.28H65.3091V30.448H66.3891C67.0771 30.448 67.5891 30.6053 67.9251 30.92C68.2611 31.2347 68.4291 31.6693 68.4291 32.224C68.4291 32.768 68.2584 33.2 67.9171 33.52C67.5757 33.84 67.0664 34 66.3891 34H64.3491V28.4ZM66.3491 33.12C66.7117 33.12 66.9811 33.04 67.1571 32.88C67.3331 32.7147 67.4211 32.496 67.4211 32.224C67.4211 31.9573 67.3304 31.7413 67.1491 31.576C66.9677 31.4107 66.7011 31.328 66.3491 31.328H65.3091V33.12H66.3491Z" fill="#464E5F"/>
<path d="M51.6488 12.65C51.1355 12.65 50.6755 12.58 50.2688 12.44C49.8688 12.2933 49.5288 12.0867 49.2488 11.82C48.9755 11.5533 48.7655 11.2333 48.6188 10.86C48.4722 10.4867 48.3988 10.07 48.3988 9.61V9.39C48.3988 8.93667 48.4722 8.52333 48.6188 8.15C48.7655 7.77667 48.9788 7.45667 49.2588 7.19C49.5388 6.92333 49.8788 6.71667 50.2788 6.57C50.6855 6.42333 51.1422 6.35 51.6488 6.35V5.91H52.8488V6.35C53.3622 6.35 53.8188 6.42333 54.2188 6.57C54.6255 6.71 54.9655 6.91333 55.2388 7.18C55.5188 7.44667 55.7322 7.76667 55.8788 8.14C56.0255 8.51333 56.0988 8.93 56.0988 9.39V9.61C56.0988 10.0633 56.0255 10.4767 55.8788 10.85C55.7322 11.2233 55.5188 11.5433 55.2388 11.81C54.9588 12.0767 54.6155 12.2833 54.2088 12.43C53.8088 12.5767 53.3555 12.65 52.8488 12.65V13.09H51.6488V12.65ZM54.8388 9.39C54.8388 8.77 54.6688 8.29333 54.3288 7.96C53.9888 7.62 53.4955 7.45 52.8488 7.45V11.55C53.5022 11.55 53.9955 11.3833 54.3288 11.05C54.6688 10.7167 54.8388 10.2367 54.8388 9.61V9.39ZM49.6588 9.61C49.6588 10.23 49.8288 10.71 50.1688 11.05C50.5088 11.3833 51.0022 11.55 51.6488 11.55V7.45C50.9955 7.45 50.4988 7.61667 50.1588 7.95C49.8255 8.28333 49.6588 8.76333 49.6588 9.39V9.61ZM57.4449 6H58.6449V11.5H58.6649L61.5249 6H63.1449V13H61.9449V7.5H61.9249L59.0649 13H57.4449V6ZM64.8422 6H66.0422V8.85H69.3422V6H70.5422V13H69.3422V9.95H66.0422V13H64.8422V6ZM74.1395 6H75.5395L78.0395 13H76.7595L76.1795 11.25H73.4295L72.8395 13H71.6395L74.1395 6ZM75.8195 10.15L74.8295 7.15H74.8095L73.7995 10.15H75.8195ZM79.1387 6H80.3387V8.85H83.6387V6H84.8387V13H83.6387V9.95H80.3387V13H79.1387V6ZM89.3359 13.1C88.8759 13.1 88.4593 13.0267 88.0859 12.88C87.7126 12.7267 87.3926 12.5067 87.1259 12.22C86.8593 11.9267 86.6526 11.5667 86.5059 11.14C86.3593 10.7067 86.2859 10.2133 86.2859 9.66V9.24C86.2859 8.71333 86.3593 8.24333 86.5059 7.83C86.6526 7.41667 86.8593 7.06667 87.1259 6.78C87.3926 6.49333 87.7126 6.27667 88.0859 6.13C88.4659 5.97667 88.8826 5.9 89.3359 5.9C89.7493 5.9 90.1193 5.96 90.4459 6.08C90.7793 6.19333 91.0659 6.35333 91.3059 6.56C91.5459 6.76667 91.7393 7.01 91.8859 7.29C92.0326 7.57 92.1326 7.87333 92.1859 8.2H90.8859C90.7859 7.84667 90.6093 7.56 90.3559 7.34C90.1026 7.11333 89.7626 7 89.3359 7C88.8026 7 88.3693 7.18667 88.0359 7.56C87.7093 7.92667 87.5459 8.48667 87.5459 9.24V9.66C87.5459 10.06 87.5893 10.4067 87.6759 10.7C87.7693 10.9933 87.8926 11.2367 88.0459 11.43C88.2059 11.6233 88.3959 11.7667 88.6159 11.86C88.8359 11.9533 89.0759 12 89.3359 12C89.7559 12 90.0893 11.8833 90.3359 11.65C90.5893 11.4167 90.7659 11.1 90.8659 10.7H92.1859C92.1326 11.0533 92.0326 11.3767 91.8859 11.67C91.7393 11.9633 91.5459 12.2167 91.3059 12.43C91.0659 12.6433 90.7793 12.81 90.4459 12.93C90.1193 13.0433 89.7493 13.1 89.3359 13.1ZM96.3828 13.1C95.9095 13.1 95.4828 13.0267 95.1028 12.88C94.7228 12.7267 94.3961 12.5067 94.1228 12.22C93.8561 11.9267 93.6495 11.5667 93.5028 11.14C93.3561 10.7067 93.2828 10.2133 93.2828 9.66V9.24C93.2828 8.71333 93.3561 8.24333 93.5028 7.83C93.6495 7.41667 93.8561 7.06667 94.1228 6.78C94.3961 6.49333 94.7228 6.27667 95.1028 6.13C95.4895 5.97667 95.9161 5.9 96.3828 5.9C96.8495 5.9 97.2728 5.97667 97.6528 6.13C98.0395 6.27667 98.3661 6.49333 98.6328 6.78C98.9061 7.06 99.1161 7.41 99.2628 7.83C99.4095 8.24333 99.4828 8.71333 99.4828 9.24V9.66C99.4828 10.2133 99.4095 10.7033 99.2628 11.13C99.1161 11.5567 98.9061 11.9167 98.6328 12.21C98.3661 12.5033 98.0395 12.7267 97.6528 12.88C97.2728 13.0267 96.8495 13.1 96.3828 13.1ZM96.3828 12C96.9361 12 97.3795 11.8133 97.7128 11.44C98.0528 11.0667 98.2228 10.4733 98.2228 9.66V9.24C98.2228 8.49333 98.0528 7.93333 97.7128 7.56C97.3728 7.18667 96.9295 7 96.3828 7C95.8228 7 95.3761 7.18333 95.0428 7.55C94.7095 7.91667 94.5428 8.48 94.5428 9.24V9.66C94.5428 10.46 94.7095 11.05 95.0428 11.43C95.3828 11.81 95.8295 12 96.3828 12ZM100.93 6H103.33C104.23 6 104.87 6.16667 105.25 6.5C105.637 6.83333 105.83 7.3 105.83 7.9C105.83 8.54667 105.533 9.03 104.94 9.35V9.37C105.667 9.67667 106.03 10.2133 106.03 10.98C106.03 11.64 105.837 12.1433 105.45 12.49C105.07 12.83 104.43 13 103.53 13H100.93V6ZM102.13 7.1V8.9H103.28C103.767 8.9 104.103 8.82333 104.29 8.67C104.477 8.51667 104.57 8.29333 104.57 8C104.57 7.70667 104.477 7.48333 104.29 7.33C104.103 7.17667 103.767 7.1 103.28 7.1H102.13ZM102.13 9.9V11.9H103.48C103.967 11.9 104.303 11.82 104.49 11.66C104.677 11.4933 104.77 11.24 104.77 10.9C104.77 10.56 104.677 10.31 104.49 10.15C104.303 9.98333 103.967 9.9 103.48 9.9H102.13ZM110.279 13.1C109.806 13.1 109.379 13.0267 108.999 12.88C108.619 12.7267 108.292 12.5067 108.019 12.22C107.752 11.9267 107.546 11.5667 107.399 11.14C107.252 10.7067 107.179 10.2133 107.179 9.66V9.24C107.179 8.71333 107.252 8.24333 107.399 7.83C107.546 7.41667 107.752 7.06667 108.019 6.78C108.292 6.49333 108.619 6.27667 108.999 6.13C109.386 5.97667 109.812 5.9 110.279 5.9C110.746 5.9 111.169 5.97667 111.549 6.13C111.936 6.27667 112.262 6.49333 112.529 6.78C112.802 7.06 113.012 7.41 113.159 7.83C113.306 8.24333 113.379 8.71333 113.379 9.24V9.66C113.379 10.2133 113.306 10.7033 113.159 11.13C113.012 11.5567 112.802 11.9167 112.529 12.21C112.262 12.5033 111.936 12.7267 111.549 12.88C111.169 13.0267 110.746 13.1 110.279 13.1ZM110.279 12C110.832 12 111.276 11.8133 111.609 11.44C111.949 11.0667 112.119 10.4733 112.119 9.66V9.24C112.119 8.49333 111.949 7.93333 111.609 7.56C111.269 7.18667 110.826 7 110.279 7C109.719 7 109.272 7.18333 108.939 7.55C108.606 7.91667 108.439 8.48 108.439 9.24V9.66C108.439 10.46 108.606 11.05 108.939 11.43C109.279 11.81 109.726 12 110.279 12ZM114.826 6H116.026V11.5H116.046L118.906 6H120.526V13H119.326V7.5H119.306L116.446 13H114.826V6ZM117.676 5.4C117.17 5.4 116.783 5.27667 116.516 5.03C116.256 4.77667 116.126 4.43333 116.126 4H117.026C117.026 4.22667 117.083 4.4 117.196 4.52C117.316 4.64 117.476 4.7 117.676 4.7C117.876 4.7 118.033 4.64 118.146 4.52C118.266 4.4 118.326 4.22667 118.326 4H119.226C119.226 4.43333 119.093 4.77667 118.826 5.03C118.566 5.27667 118.183 5.4 117.676 5.4ZM51.2488 23.1C50.8355 23.1 50.4622 23.0433 50.1288 22.93C49.8022 22.81 49.5188 22.6433 49.2788 22.43C49.0388 22.2167 48.8422 21.9633 48.6888 21.67C48.5422 21.3767 48.4455 21.0533 48.3988 20.7H49.7188C49.8188 21.1 49.9922 21.4167 50.2388 21.65C50.4922 21.8833 50.8288 22 51.2488 22C51.7688 22 52.1855 21.8333 52.4988 21.5C52.8188 21.16 52.9955 20.6467 53.0288 19.96H50.3988V18.94H53.0288C52.9888 18.3 52.8155 17.8167 52.5088 17.49C52.2088 17.1633 51.7888 17 51.2488 17C50.8222 17 50.4822 17.1133 50.2288 17.34C49.9755 17.5667 49.7988 17.8533 49.6988 18.2H48.3988C48.4455 17.8733 48.5422 17.57 48.6888 17.29C48.8422 17.01 49.0388 16.7667 49.2788 16.56C49.5188 16.3533 49.8022 16.1933 50.1288 16.08C50.4622 15.96 50.8355 15.9 51.2488 15.9C51.7022 15.9 52.1155 15.9767 52.4888 16.13C52.8688 16.2767 53.1922 16.4933 53.4588 16.78C53.7255 17.0667 53.9322 17.4167 54.0788 17.83C54.2255 18.2433 54.2988 18.7133 54.2988 19.24V19.66C54.2988 20.2133 54.2255 20.7067 54.0788 21.14C53.9322 21.5667 53.7255 21.9267 53.4588 22.22C53.1922 22.5067 52.8722 22.7267 52.4988 22.88C52.1255 23.0267 51.7088 23.1 51.2488 23.1ZM58.6457 22.65C58.1324 22.65 57.6724 22.58 57.2657 22.44C56.8657 22.2933 56.5257 22.0867 56.2457 21.82C55.9724 21.5533 55.7624 21.2333 55.6157 20.86C55.469 20.4867 55.3957 20.07 55.3957 19.61V19.39C55.3957 18.9367 55.469 18.5233 55.6157 18.15C55.7624 17.7767 55.9757 17.4567 56.2557 17.19C56.5357 16.9233 56.8757 16.7167 57.2757 16.57C57.6824 16.4233 58.139 16.35 58.6457 16.35V15.91H59.8457V16.35C60.359 16.35 60.8157 16.4233 61.2157 16.57C61.6224 16.71 61.9624 16.9133 62.2357 17.18C62.5157 17.4467 62.729 17.7667 62.8757 18.14C63.0224 18.5133 63.0957 18.93 63.0957 19.39V19.61C63.0957 20.0633 63.0224 20.4767 62.8757 20.85C62.729 21.2233 62.5157 21.5433 62.2357 21.81C61.9557 22.0767 61.6124 22.2833 61.2057 22.43C60.8057 22.5767 60.3524 22.65 59.8457 22.65V23.09H58.6457V22.65ZM61.8357 19.39C61.8357 18.77 61.6657 18.2933 61.3257 17.96C60.9857 17.62 60.4924 17.45 59.8457 17.45V21.55C60.499 21.55 60.9924 21.3833 61.3257 21.05C61.6657 20.7167 61.8357 20.2367 61.8357 19.61V19.39ZM56.6557 19.61C56.6557 20.23 56.8257 20.71 57.1657 21.05C57.5057 21.3833 57.999 21.55 58.6457 21.55V17.45C57.9924 17.45 57.4957 17.6167 57.1557 17.95C56.8224 18.2833 56.6557 18.7633 56.6557 19.39V19.61ZM67.3418 22.65C66.8285 22.65 66.3685 22.58 65.9618 22.44C65.5618 22.2933 65.2218 22.0867 64.9418 21.82C64.6685 21.5533 64.4585 21.2333 64.3118 20.86C64.1651 20.4867 64.0918 20.07 64.0918 19.61V19.39C64.0918 18.9367 64.1651 18.5233 64.3118 18.15C64.4585 17.7767 64.6718 17.4567 64.9518 17.19C65.2318 16.9233 65.5718 16.7167 65.9718 16.57C66.3785 16.4233 66.8351 16.35 67.3418 16.35V15.91H68.5418V16.35C69.0551 16.35 69.5118 16.4233 69.9118 16.57C70.3185 16.71 70.6585 16.9133 70.9318 17.18C71.2118 17.4467 71.4251 17.7667 71.5718 18.14C71.7185 18.5133 71.7918 18.93 71.7918 19.39V19.61C71.7918 20.0633 71.7185 20.4767 71.5718 20.85C71.4251 21.2233 71.2118 21.5433 70.9318 21.81C70.6518 22.0767 70.3085 22.2833 69.9018 22.43C69.5018 22.5767 69.0485 22.65 68.5418 22.65V23.09H67.3418V22.65ZM70.5318 19.39C70.5318 18.77 70.3618 18.2933 70.0218 17.96C69.6818 17.62 69.1885 17.45 68.5418 17.45V21.55C69.1951 21.55 69.6885 21.3833 70.0218 21.05C70.3618 20.7167 70.5318 20.2367 70.5318 19.61V19.39ZM65.3518 19.61C65.3518 20.23 65.5218 20.71 65.8618 21.05C66.2018 21.3833 66.6951 21.55 67.3418 21.55V17.45C66.6885 17.45 66.1918 17.6167 65.8518 17.95C65.5185 18.2833 65.3518 18.7633 65.3518 19.39V19.61ZM73.1379 16H77.6379V17.1H74.3379V18.85H77.0379V19.95H74.3379V21.9H77.6379V23H73.1379V16ZM79.0312 16H80.2312V18.85H80.9312L82.9512 16H84.3312L81.8812 19.34L84.5312 23H83.0712L80.9312 19.95H80.2312V23H79.0312V16ZM87.2766 17.1H85.1266V16H90.6266V17.1H88.4766V23H87.2766V17.1ZM91.775 16H92.975V21.5H92.995L95.855 16H97.475V23H96.275V17.5H96.255L93.395 23H91.775V16ZM99.1723 16H101.572C102.472 16 103.112 16.1667 103.492 16.5C103.879 16.8333 104.072 17.3 104.072 17.9C104.072 18.5467 103.776 19.03 103.182 19.35V19.37C103.909 19.6767 104.272 20.2133 104.272 20.98C104.272 21.64 104.079 22.1433 103.692 22.49C103.312 22.83 102.672 23 101.772 23H99.1723V16ZM100.372 17.1V18.9H101.522C102.009 18.9 102.346 18.8233 102.532 18.67C102.719 18.5167 102.812 18.2933 102.812 18C102.812 17.7067 102.719 17.4833 102.532 17.33C102.346 17.1767 102.009 17.1 101.522 17.1H100.372ZM100.372 19.9V21.9H101.722C102.209 21.9 102.546 21.82 102.732 21.66C102.919 21.4933 103.012 21.24 103.012 20.9C103.012 20.56 102.919 20.31 102.732 20.15C102.546 19.9833 102.209 19.9 101.722 19.9H100.372ZM105.671 16H106.871V18.85H110.171V16H111.371V23H110.171V19.95H106.871V23H105.671V16ZM115.918 23.1C115.445 23.1 115.018 23.0267 114.638 22.88C114.258 22.7267 113.932 22.5067 113.658 22.22C113.392 21.9267 113.185 21.5667 113.038 21.14C112.892 20.7067 112.818 20.2133 112.818 19.66V19.24C112.818 18.7133 112.892 18.2433 113.038 17.83C113.185 17.4167 113.392 17.0667 113.658 16.78C113.932 16.4933 114.258 16.2767 114.638 16.13C115.025 15.9767 115.452 15.9 115.918 15.9C116.385 15.9 116.808 15.9767 117.188 16.13C117.575 16.2767 117.902 16.4933 118.168 16.78C118.442 17.06 118.652 17.41 118.798 17.83C118.945 18.2433 119.018 18.7133 119.018 19.24V19.66C119.018 20.2133 118.945 20.7033 118.798 21.13C118.652 21.5567 118.442 21.9167 118.168 22.21C117.902 22.5033 117.575 22.7267 117.188 22.88C116.808 23.0267 116.385 23.1 115.918 23.1ZM115.918 22C116.472 22 116.915 21.8133 117.248 21.44C117.588 21.0667 117.758 20.4733 117.758 19.66V19.24C117.758 18.4933 117.588 17.9333 117.248 17.56C116.908 17.1867 116.465 17 115.918 17C115.358 17 114.912 17.1833 114.578 17.55C114.245 17.9167 114.078 18.48 114.078 19.24V19.66C114.078 20.46 114.245 21.05 114.578 21.43C114.918 21.81 115.365 22 115.918 22ZM123.266 23.1C122.806 23.1 122.389 23.0267 122.016 22.88C121.642 22.7267 121.322 22.5067 121.056 22.22C120.789 21.9267 120.582 21.5667 120.436 21.14C120.289 20.7067 120.216 20.2133 120.216 19.66V19.24C120.216 18.7133 120.289 18.2433 120.436 17.83C120.582 17.4167 120.789 17.0667 121.056 16.78C121.322 16.4933 121.642 16.2767 122.016 16.13C122.396 15.9767 122.812 15.9 123.266 15.9C123.679 15.9 124.049 15.96 124.376 16.08C124.709 16.1933 124.996 16.3533 125.236 16.56C125.476 16.7667 125.669 17.01 125.816 17.29C125.962 17.57 126.062 17.8733 126.116 18.2H124.816C124.716 17.8467 124.539 17.56 124.286 17.34C124.032 17.1133 123.692 17 123.266 17C122.732 17 122.299 17.1867 121.966 17.56C121.639 17.9267 121.476 18.4867 121.476 19.24V19.66C121.476 20.06 121.519 20.4067 121.606 20.7C121.699 20.9933 121.822 21.2367 121.976 21.43C122.136 21.6233 122.326 21.7667 122.546 21.86C122.766 21.9533 123.006 22 123.266 22C123.686 22 124.019 21.8833 124.266 21.65C124.519 21.4167 124.696 21.1 124.796 20.7H126.116C126.062 21.0533 125.962 21.3767 125.816 21.67C125.669 21.9633 125.476 22.2167 125.236 22.43C124.996 22.6433 124.709 22.81 124.376 22.93C124.049 23.0433 123.679 23.1 123.266 23.1ZM128.76 17.1H126.61V16H132.11V17.1H129.96V23H128.76V17.1ZM133.258 16H134.458V21.5H134.478L137.338 16H138.958V23H137.758V17.5H137.738L134.878 23H133.258V16Z" fill="#3156A6"/>
<path fill-rule="evenodd" clip-rule="evenodd" d="M32.94 27.7233L18.2167 33.8583C16.4867 34.58 14.5317 34.5383 12.8333 33.745L7.855 31.4217C6.25333 30.6733 5.51333 28.805 6.17 27.1633L14.19 7.11333C14.9017 5.335 16.96 4.52167 18.695 5.33L24.1517 7.87667C25.3567 8.43833 26.365 9.34833 27.0483 10.4883L34.515 22.9317C35.5617 24.675 34.8167 26.9417 32.94 27.7233V27.7233Z" stroke="#3156A6" stroke-width="1.5" stroke-linecap="round" stroke-linejoin="round"/>
<path d="M25.8833 9.05L15.75 34.35" stroke="#3156A6" stroke-width="1.5" stroke-linecap="round" stroke-linejoin="round"/>
</svg>
