<svg width="24" height="24" viewBox="0 0 24 24" fill="none" xmlns="http://www.w3.org/2000/svg">
<path d="M7.49817 13.2506H16.5019" stroke="#EE2B49" stroke-width="1.5" stroke-linecap="round" stroke-linejoin="round"/>
<path d="M12 13.2505V7.24805" stroke="#EE2B49" stroke-width="1.5" stroke-linecap="round" stroke-linejoin="round"/>
<path d="M15.0013 13.2506V9.2489" stroke="#EE2B49" stroke-width="1.5" stroke-linecap="round" stroke-linejoin="round"/>
<path d="M16.0016 21.0037L15.0012 17.0021" stroke="#EE2B49" stroke-width="1.5" stroke-linecap="round" stroke-linejoin="round"/>
<path d="M7.99829 21.0037L8.99871 17.0021" stroke="#EE2B49" stroke-width="1.5" stroke-linecap="round" stroke-linejoin="round"/>
<path fill-rule="evenodd" clip-rule="evenodd" d="M18.9279 17.002H5.07208C3.92561 17.002 2.99622 16.0727 2.99622 14.9262V5.07208C2.99622 3.92561 3.92561 2.99622 5.07208 2.99622H18.9269C19.4776 2.99595 20.0058 3.21454 20.3954 3.60387C20.7849 3.9932 21.0037 4.52135 21.0037 5.07208V14.9252C21.004 15.4759 20.7854 16.0042 20.3961 16.3937C20.0067 16.7832 19.4786 17.002 18.9279 17.002Z" stroke="#EE2B49" stroke-width="1.5" stroke-linecap="round" stroke-linejoin="round"/>
<path d="M8.99874 13.2505V10.2493" stroke="#EE2B49" stroke-width="1.5" stroke-linecap="round" stroke-linejoin="round"/>
</svg>
