<svg width="16" height="16" viewBox="0 0 16 16" fill="none" xmlns="http://www.w3.org/2000/svg">
<path d="M13.9999 7.52734C13.9999 10.5533 11.3012 12.982 7.99991 12.982C7.57257 12.982 7.15657 12.94 6.75391 12.8627" stroke="#3156A6" stroke-width="1.5" stroke-linecap="round" stroke-linejoin="round"/>
<path d="M4.39933 11.884C2.94667 10.8907 2 9.31601 2 7.52734" stroke="#3156A6" stroke-width="1.5" stroke-linecap="round" stroke-linejoin="round"/>
<path d="M4.3995 11.884C4.39883 12.4534 4.40017 13.2214 4.40017 14.0274" stroke="#3156A6" stroke-width="1.5" stroke-linecap="round" stroke-linejoin="round"/>
<path d="M2 7.52736C2 4.50136 4.69867 2.07336 8 2.07336C11.3013 2.07336 14 4.50203 14 7.52803" stroke="#3156A6" stroke-width="1.5" stroke-linecap="round" stroke-linejoin="round"/>
<path d="M6.75324 12.86L4.3999 14.0267" stroke="#3156A6" stroke-width="1.5" stroke-linecap="round" stroke-linejoin="round"/>
<path d="M8.11769 7.54886C8.18278 7.61394 8.18278 7.71947 8.11769 7.78456C8.0526 7.84965 7.94707 7.84965 7.88199 7.78456C7.8169 7.71947 7.8169 7.61394 7.88199 7.54886C7.94707 7.48377 8.0526 7.48377 8.11769 7.54886" stroke="#3156A6" stroke-width="1.5" stroke-linecap="round" stroke-linejoin="round"/>
<path d="M10.7847 7.54886C10.8498 7.61394 10.8498 7.71947 10.7847 7.78456C10.7196 7.84965 10.6141 7.84965 10.549 7.78456C10.4839 7.71947 10.4839 7.61394 10.549 7.54886C10.6141 7.48377 10.7196 7.48377 10.7847 7.54886" stroke="#3156A6" stroke-width="1.5" stroke-linecap="round" stroke-linejoin="round"/>
<path d="M5.45118 7.54886C5.51627 7.61394 5.51627 7.71947 5.45118 7.78456C5.3861 7.84965 5.28057 7.84965 5.21548 7.78456C5.15039 7.71947 5.15039 7.61394 5.21548 7.54886C5.28057 7.48377 5.3861 7.48377 5.45118 7.54886" stroke="#3156A6" stroke-width="1.5" stroke-linecap="round" stroke-linejoin="round"/>
</svg>
