<?xml version="1.0" encoding="UTF-8" standalone="no"?>
<!DOCTYPE svg PUBLIC "-//W3C//DTD SVG 1.1//EN" "http://www.w3.org/Graphics/SVG/1.1/DTD/svg11.dtd">
<svg width="100%" height="100%" viewBox="0 0 1000 1000" version="1.1" xmlns="http://www.w3.org/2000/svg" xmlnsxlink="http://www.w3.org/1999/xlink" xml:space="preserve" xmlnsserif="http://www.serif.com/" style="fill-rule:evenodd;clip-rule:evenodd;stroke-linejoin:round;stroke-miterlimit:2;">
    <g transform="matrix(1,0,0,1,-12251,-94)">
        <g id="Artboard5" transform="matrix(1,0,0,1,-0.865869,-0.406887)">
            <rect x="12251.9" y="94.407" width="1000" height="1000" style="fill:none;"/>
            <g transform="matrix(0.939153,0,0,0.998368,2268.99,-3818.67)">
                <path d="M10943.1,4103.64L10915.8,4103.64C10883.8,4103.64 10853,4115.62 10830.4,4136.94C10807.7,4158.26 10795,4187.18 10795,4217.32L10795,4663.51C10795,4693.66 10807.7,4722.58 10830.4,4743.9C10853,4765.22 10883.8,4777.2 10915.8,4777.2L11037.5,4777.2C11048.5,4777.2 11057.5,4785.62 11057.5,4796C11057.5,4806.38 11048.5,4814.8 11037.5,4814.8L10915.8,4814.8C10873.2,4814.8 10832.3,4798.86 10802.1,4770.49C10772,4742.12 10755,4703.64 10755,4663.51L10755,4217.32C10755,4177.2 10772,4138.72 10802.1,4110.35C10832.3,4081.98 10873.2,4066.04 10915.8,4066.04L10943.1,4066.04L10943.1,4025.37C10943.1,4014.86 10952.2,4006.34 10963.3,4006.34C10974.5,4006.34 10983.6,4014.86 10983.6,4025.37L10983.6,4066.04L11326.2,4066.04L11326.2,4025.37C11326.2,4014.86 11335.2,4006.34 11346.4,4006.34C11357.6,4006.34 11366.6,4014.86 11366.6,4025.37L11366.6,4066.04L11390.2,4066.04C11432.8,4066.04 11473.7,4081.98 11503.9,4110.35C11534,4138.72 11551,4177.2 11551,4217.32L11551,4374.34C11551,4384.72 11542,4393.14 11531,4393.14C11520,4393.14 11511,4384.72 11511,4374.34L11511,4217.32C11511,4187.18 11498.3,4158.26 11475.6,4136.94C11453,4115.62 11422.2,4103.64 11390.2,4103.64L11366.6,4103.64L11366.6,4144.31C11366.6,4154.82 11357.6,4163.34 11346.4,4163.34C11335.2,4163.34 11326.2,4154.82 11326.2,4144.31L11326.2,4103.64L10983.6,4103.64L10983.6,4144.31C10983.6,4154.82 10974.5,4163.34 10963.3,4163.34C10952.2,4163.34 10943.1,4154.82 10943.1,4144.31L10943.1,4103.64ZM10900.1,4379.23C10888.9,4379.23 10879.9,4370.7 10879.9,4360.19C10879.9,4349.69 10888.9,4341.16 10900.1,4341.16L11153,4341.16C11164.2,4341.16 11173.2,4349.69 11173.2,4360.19C11173.2,4370.7 11164.2,4379.23 11153,4379.23L10900.1,4379.23ZM10900.1,4558.52C10888.9,4558.52 10879.9,4549.99 10879.9,4539.49C10879.9,4528.98 10888.9,4520.46 10900.1,4520.46L11026.6,4520.46C11037.7,4520.46 11046.8,4528.98 11046.8,4539.49C11046.8,4549.99 11037.7,4558.52 11026.6,4558.52L10900.1,4558.52ZM11195,4570.54C11204.7,4570.54 11213.9,4574.13 11220.7,4580.52C11227.4,4586.9 11231.3,4595.57 11231.3,4604.61L11231.3,4780.96C11231.3,4790 11227.4,4798.66 11220.7,4805.05C11213.9,4811.44 11204.7,4815.03 11195,4815.03L11111,4815.03C11101.3,4815.03 11092.1,4811.44 11085.3,4805.05C11078.6,4798.66 11074.7,4790 11074.7,4780.96L11074.7,4604.61C11074.7,4595.57 11078.6,4586.9 11085.3,4580.52C11092.1,4574.13 11101.3,4570.54 11111,4570.54L11195,4570.54ZM11115.2,4608.6L11115.2,4776.97L11190.8,4776.97L11190.8,4608.6L11115.2,4608.6ZM11364.3,4421.39C11373.9,4421.39 11383.2,4424.98 11390,4431.37C11396.7,4437.76 11400.6,4446.42 11400.6,4455.46L11400.6,4780.96C11400.6,4790 11396.7,4798.66 11390,4805.05C11383.2,4811.44 11373.9,4815.03 11364.3,4815.03L11278.1,4815.03C11268.5,4815.03 11259.3,4811.44 11252.5,4805.05C11245.7,4798.66 11241.9,4790 11241.9,4780.96L11241.9,4455.46C11241.9,4446.42 11245.7,4437.76 11252.5,4431.37C11259.3,4424.98 11268.5,4421.39 11278.1,4421.39L11364.3,4421.39ZM11282.4,4459.45L11282.4,4776.97L11360.1,4776.97L11360.1,4459.45L11282.4,4459.45ZM11534.7,4529.57C11544.3,4529.57 11553.5,4533.15 11560.3,4539.54C11567.1,4545.93 11570.9,4554.6 11570.9,4563.63L11570.9,4780.96C11570.9,4790 11567.1,4798.66 11560.3,4805.05C11553.5,4811.44 11544.3,4815.03 11534.7,4815.03L11448.5,4815.03C11438.9,4815.03 11429.7,4811.44 11422.9,4805.05C11416.1,4798.66 11412.3,4790 11412.3,4780.96L11412.3,4563.63C11412.3,4554.6 11416.1,4545.93 11422.9,4539.54C11429.7,4533.15 11438.9,4529.57 11448.5,4529.57L11534.7,4529.57ZM11452.7,4567.63L11452.7,4776.97L11530.5,4776.97L11530.5,4567.63L11452.7,4567.63Z" style="fill:rgb(73,82,99);"/>
            </g>
        </g>
    </g>
</svg>
