<?xml version="1.0" encoding="UTF-8" standalone="no"?>
<!DOCTYPE svg PUBLIC "-//W3C//DTD SVG 1.1//EN" "http://www.w3.org/Graphics/SVG/1.1/DTD/svg11.dtd">
<svg width="100%" height="100%" viewBox="0 0 1000 1000" version="1.1" xmlns="http://www.w3.org/2000/svg" xmlnsxlink="http://www.w3.org/1999/xlink" xml:space="preserve" xmlnsserif="http://www.serif.com/" style="fill-rule:evenodd;clip-rule:evenodd;stroke-linejoin:round;stroke-miterlimit:2;">
    <g transform="matrix(1,0,0,1,-12251,-94)">
        <g id="Artboard5" transform="matrix(1,0,0,1,-0.865869,-0.406887)">
            <rect x="12251.9" y="94.407" width="1000" height="1000" style="fill:none;"/>
            <g transform="matrix(1,0,0,1,1568.78,-5240.96)">
                <path d="M11027.7,6074.76L10933.9,6074.76C10850.9,6074.76 10783.7,6007.55 10783.7,5924.63L10783.7,5602.17C10783.7,5519.26 10850.9,5452.05 10933.9,5452.05L11432.3,5452.05C11515.2,5452.05 11582.4,5519.26 11582.4,5602.17L11582.4,5924.63C11582.4,6007.55 11515.2,6074.76 11432.3,6074.76L11322.5,6074.76L11353.6,6194.93C11356.2,6205.08 11350.1,6215.45 11340,6218.08C11329.8,6220.71 11319.5,6214.61 11316.8,6204.46L11283.2,6074.76L11067,6074.76L11033.4,6204.46C11030.8,6214.61 11020.4,6220.71 11010.2,6218.08C11000.1,6215.45 10994,6205.08 10996.6,6194.93L11027.7,6074.76ZM11432.3,5487.76L10933.9,5487.76C10870.7,5487.76 10819.4,5538.98 10819.4,5602.17L10819.4,5924.63C10819.4,5987.82 10870.7,6039.05 10933.9,6039.05L11432.3,6039.05C11495.5,6039.05 11546.7,5987.82 11546.7,5924.63L11546.7,5602.17C11546.7,5538.98 11495.5,5487.76 11432.3,5487.76ZM11263,5900C11263,5910.49 11254.5,5919 11244,5919C11233.5,5919 11225,5910.49 11225,5900L11225,5755.6C11225,5745.11 11233.5,5736.6 11244,5736.6C11254.5,5736.6 11263,5745.11 11263,5755.6L11263,5900ZM11133,5900C11133,5910.49 11124.5,5919 11114,5919C11103.5,5919 11095,5910.49 11095,5900L11095,5627.6C11095,5617.11 11103.5,5608.6 11114,5608.6C11124.5,5608.6 11133,5617.11 11133,5627.6L11133,5900ZM11377,5900C11377,5910.49 11368.5,5919 11358,5919C11347.5,5919 11339,5910.49 11339,5900L11339,5627.6C11339,5617.11 11347.5,5608.6 11358,5608.6C11368.5,5608.6 11377,5617.11 11377,5627.6L11377,5900ZM11019,5900C11019,5910.49 11010.5,5919 11000,5919C10989.5,5919 10981,5910.49 10981,5900L10981,5755.6C10981,5745.11 10989.5,5736.6 11000,5736.6C11010.5,5736.6 11019,5745.11 11019,5755.6L11019,5900Z" style="fill:rgb(73,82,99);"/>
            </g>
        </g>
    </g>
</svg>
