<?xml version="1.0" encoding="UTF-8" standalone="no"?>
<!DOCTYPE svg PUBLIC "-//W3C//DTD SVG 1.1//EN" "http://www.w3.org/Graphics/SVG/1.1/DTD/svg11.dtd">
<svg width="100%" height="100%" viewBox="0 0 1000 1000" version="1.1" xmlns="http://www.w3.org/2000/svg" xmlnsxlink="http://www.w3.org/1999/xlink" xml:space="preserve" xmlnsserif="http://www.serif.com/" style="fill-rule:evenodd;clip-rule:evenodd;stroke-linejoin:round;stroke-miterlimit:2;">
    <g transform="matrix(1,0,0,1,-12251,-94)">
        <g id="Artboard5" transform="matrix(1,0,0,1,-0.865869,-0.406887)">
            <rect x="12251.9" y="94.407" width="1000" height="1000" style="fill:none;"/>
            <g transform="matrix(1,0,0,1,1568.78,-6544.12)">
                <path d="M11164.1,7362.05L10801.6,7362.05C10791.1,7362.05 10782.6,7353.53 10782.6,7343.05C10782.6,7332.56 10791.1,7324.05 10801.6,7324.05L10838.1,7324.05C10838,7323.38 10838,7322.69 10838,7322L10838,6882.1C10838,6881.11 10838.1,6880.15 10838.2,6879.2C10808.6,6868.12 10787.5,6839.57 10787.5,6806.1L10787.5,6806.09C10787.5,6762.99 10822.5,6728.06 10865.6,6728.06L11500.6,6728.06C11543.7,6728.06 11578.6,6762.99 11578.6,6806.09L11578.6,6806.1C11578.6,6840.34 11556.6,6869.44 11525.9,6879.94C11526,6880.65 11526,6881.37 11526,6882.1L11526,7322C11526,7322.69 11526,7323.38 11525.9,7324.05L11564.6,7324.05C11575.1,7324.05 11583.6,7332.56 11583.6,7343.05C11583.6,7353.53 11575.1,7362.05 11564.6,7362.05L11202.1,7362.05L11202.1,7397.05C11202.1,7397.15 11202.1,7397.26 11202.1,7397.36C11235.4,7405.83 11260.1,7436.06 11260.1,7472C11260.1,7514.5 11225.6,7549 11183.1,7549C11140.6,7549 11106.1,7514.5 11106.1,7472C11106.1,7436.06 11130.8,7405.83 11164.1,7397.36C11164.1,7397.26 11164.1,7397.15 11164.1,7397.05L11164.1,7362.05ZM10875.9,7324.05L11488.1,7324.05C11488,7323.38 11488,7322.69 11488,7322L11488,6884.14L10876,6884.14L10876,7322C10876,7322.69 10876,7323.38 10875.9,7324.05ZM11500.6,6756.14L10865.6,6756.14C10838,6756.14 10815.6,6778.5 10815.6,6806.09L10815.6,6806.1C10815.6,6833.69 10838,6856.06 10865.6,6856.06L11500.6,6856.06C11528.2,6856.06 11550.5,6833.69 11550.5,6806.1L11550.5,6806.09C11550.5,6778.5 11528.2,6756.14 11500.6,6756.14ZM11183.1,7433C11161.6,7433 11144.1,7450.48 11144.1,7472C11144.1,7493.53 11161.6,7511 11183.1,7511C11204.6,7511 11222.1,7493.53 11222.1,7472C11222.1,7450.48 11204.6,7433 11183.1,7433ZM11291.1,7078.63L11256.4,7079.5C11245.9,7079.77 11237.2,7071.47 11236.9,7060.99C11236.6,7050.51 11244.9,7041.78 11255.4,7041.52L11355,7039L11357.5,7138.58C11357.8,7149.06 11349.5,7157.79 11339,7158.05C11328.5,7158.32 11319.8,7150.02 11319.5,7139.54L11318.7,7104.81L11233.8,7194.09C11227.1,7201.09 11216.3,7201.98 11208.6,7196.18L11115.7,7126.31L11033.2,7195.55C11025.2,7202.3 11013.2,7201.25 11006.4,7193.21C10999.7,7185.18 11000.8,7173.19 11008.8,7166.45L11102.9,7087.49C11109.6,7081.81 11119.4,7081.55 11126.5,7086.87L11217.9,7155.64L11291.1,7078.63Z" style="fill:rgb(73,82,99);"/>
            </g>
        </g>
    </g>
</svg>
