<?xml version="1.0" encoding="UTF-8" standalone="no"?>
<!DOCTYPE svg PUBLIC "-//W3C//DTD SVG 1.1//EN" "http://www.w3.org/Graphics/SVG/1.1/DTD/svg11.dtd">
<svg width="100%" height="100%" viewBox="0 0 1073 1192" version="1.1" xmlns="http://www.w3.org/2000/svg" xmlnsxlink="http://www.w3.org/1999/xlink" xml:space="preserve" xmlnsserif="http://www.serif.com/" style="fill-rule:evenodd;clip-rule:evenodd;stroke-linejoin:round;stroke-miterlimit:2;">
    <g transform="matrix(1,0,0,1,-12644.8,-11241.7)">
        <g transform="matrix(7.17173,0,0,7.17174,40652.1,-37423.1)">
            <path d="M-3814.1,6908.61C-3840.37,6920.62 -3872.43,6913.75 -3891.22,6890.15C-3913.37,6862.35 -3908.78,6821.8 -3880.98,6799.65C-3853.18,6777.5 -3812.63,6782.1 -3790.49,6809.89C-3771.69,6833.49 -3772.15,6866.27 -3789.71,6889.18C-3785.28,6890.12 -3781.13,6892.55 -3778.09,6896.36L-3778.09,6896.36L-3760.04,6919.02C-3753.08,6927.75 -3754.53,6940.48 -3763.25,6947.43C-3771.97,6954.39 -3784.71,6952.94 -3791.65,6944.22L-3809.71,6921.55C-3812.75,6917.74 -3814.18,6913.15 -3814.1,6908.61ZM-3800.72,6900.39C-3805.46,6904.16 -3806.23,6911.05 -3802.47,6915.79L-3784.42,6938.45C-3780.64,6943.18 -3773.75,6943.96 -3769.02,6940.19L-3769.02,6940.19C-3764.28,6936.42 -3763.51,6929.53 -3767.27,6924.79L-3785.32,6902.13C-3789.1,6897.4 -3795.99,6896.62 -3800.72,6900.39L-3800.72,6900.39ZM-3806.49,6893.15C-3782.69,6874.18 -3778.76,6839.47 -3797.72,6815.66C-3816.69,6791.86 -3851.41,6787.93 -3875.21,6806.89C-3899.02,6825.86 -3902.94,6860.57 -3883.98,6884.38C-3865.02,6908.19 -3830.3,6912.11 -3806.49,6893.15ZM-3840.85,6806.63C-3816.9,6806.63 -3797.46,6826.06 -3797.46,6850.02C-3797.46,6873.98 -3816.9,6893.42 -3840.85,6893.42C-3864.81,6893.42 -3884.25,6873.98 -3884.25,6850.02C-3884.25,6826.06 -3864.81,6806.63 -3840.85,6806.63ZM-3840.85,6815.96C-3859.65,6815.96 -3874.91,6831.23 -3874.91,6850.02C-3874.91,6868.81 -3859.65,6884.08 -3840.85,6884.08C-3822.06,6884.08 -3806.79,6868.81 -3806.79,6850.02C-3806.79,6831.23 -3822.06,6815.96 -3840.85,6815.96ZM-3823.96,6858.35C-3823.96,6860.18 -3824.31,6861.91 -3825.01,6863.57L-3825.01,6863.57C-3825.71,6865.22 -3826.64,6866.67 -3827.78,6867.95C-3827.79,6867.96 -3827.79,6867.96 -3827.79,6867.96C-3828.95,6869.23 -3830.31,6870.28 -3831.87,6871.11C-3831.87,6871.11 -3831.87,6871.11 -3831.87,6871.11C-3833.25,6871.83 -3834.71,6872.34 -3836.27,6872.61L-3836.27,6879.57C-3836.27,6880 -3836.61,6880.34 -3837.04,6880.34L-3845.01,6880.34C-3845.44,6880.34 -3845.78,6880 -3845.78,6879.57C-3845.78,6879.57 -3845.78,6872.72 -3845.78,6872.72C-3849.84,6871.99 -3852.75,6870.3 -3854.56,6867.7C-3856.44,6865.02 -3857.5,6861.61 -3857.75,6857.46C-3857.76,6857.24 -3857.69,6857.04 -3857.54,6856.88C-3857.4,6856.73 -3857.19,6856.64 -3856.98,6856.64L-3847.6,6856.64C-3847.23,6856.64 -3846.92,6856.9 -3846.84,6857.26C-3846.47,6859.05 -3845.8,6860.53 -3844.8,6861.64C-3843.83,6862.7 -3842.41,6863.21 -3840.56,6863.21C-3839.35,6863.21 -3838.17,6862.91 -3837.04,6862.35C-3836.05,6861.85 -3835.58,6860.98 -3835.58,6859.75C-3835.58,6858.68 -3836.01,6857.81 -3836.87,6857.14C-3836.87,6857.14 -3836.87,6857.14 -3836.88,6857.14C-3837.87,6856.36 -3839.14,6855.68 -3840.66,6855.08C-3842.26,6854.45 -3844,6853.82 -3845.86,6853.16L-3845.86,6853.16C-3847.8,6852.47 -3849.59,6851.6 -3851.23,6850.55C-3852.93,6849.48 -3854.33,6848.1 -3855.45,6846.41C-3855.45,6846.4 -3855.46,6846.4 -3855.46,6846.4C-3856.58,6844.68 -3857.16,6842.45 -3857.16,6839.7C-3857.16,6835.86 -3855.95,6832.86 -3853.57,6830.69C-3851.39,6828.7 -3848.79,6827.25 -3845.78,6826.34L-3845.78,6820.47C-3845.78,6820.04 -3845.44,6819.7 -3845.01,6819.7L-3837.04,6819.7C-3836.61,6819.7 -3836.27,6820.04 -3836.27,6820.47C-3836.27,6820.47 -3836.27,6826.45 -3836.27,6826.45C-3832.54,6827.52 -3829.86,6829.14 -3828.22,6831.26C-3826.49,6833.48 -3825.6,6836.68 -3825.6,6840.87C-3825.6,6841.3 -3825.94,6841.64 -3826.37,6841.64L-3834.81,6841.64C-3835.17,6841.64 -3835.48,6841.4 -3835.56,6841.05C-3836,6839.25 -3836.56,6837.9 -3837.28,6837.03C-3837.96,6836.22 -3839.31,6835.9 -3841.26,6835.9C-3842.34,6835.9 -3843.47,6836.19 -3844.68,6836.77C-3844.68,6836.77 -3844.68,6836.77 -3844.69,6836.77C-3845.72,6837.25 -3846.24,6838.03 -3846.24,6839.11C-3846.24,6839.82 -3845.7,6840.41 -3844.78,6840.98C-3843.6,6841.71 -3842.65,6842.27 -3841.96,6842.66C-3840.26,6843.5 -3838.41,6844.31 -3836.41,6845.08C-3834.34,6845.88 -3832.39,6846.84 -3830.59,6847.95C-3830.59,6847.95 -3830.59,6847.95 -3830.59,6847.95C-3828.75,6849.1 -3827.21,6850.47 -3825.95,6852.06C-3824.62,6853.72 -3823.96,6855.8 -3823.96,6858.35Z" style="fill:rgb(73,82,99);"/>
        </g>
    </g>
</svg>
