<svg width="32" height="32" viewBox="0 0 32 32" fill="none" xmlns="http://www.w3.org/2000/svg">
<g clip-path="url(#clip0_308_6572)">
<rect opacity="0.05" width="32" height="32" fill="#0DA46F"/>
<path d="M25 13.5V10.5C25 9.11929 23.8807 8 22.5 8H9.5C8.11929 8 7 9.11929 7 10.5V14" stroke="#0DA46F" stroke-width="1.5" stroke-linecap="round" stroke-linejoin="round"/>
<path d="M25 18.5V21.5C25 22.8807 23.8807 24 22.5 24H17" stroke="#0DA46F" stroke-width="1.5" stroke-linecap="round" stroke-linejoin="round"/>
<path fill-rule="evenodd" clip-rule="evenodd" d="M23.5 13.5H25C25.5523 13.5 26 13.9477 26 14.5V17.5C26 18.0523 25.5523 18.5 25 18.5H23.5C22.1193 18.5 21 17.3807 21 16V16C21 14.6193 22.1193 13.5 23.5 13.5V13.5Z" stroke="#0DA46F" stroke-width="1.5" stroke-linecap="round" stroke-linejoin="round"/>
<circle cx="10.5" cy="20.5" r="4.5" stroke="#0DA46F" stroke-width="1.5" stroke-linecap="round" stroke-linejoin="round"/>
<path d="M12 20.5H9" stroke="#0DA46F" stroke-width="1.5" stroke-linecap="round" stroke-linejoin="round"/>
<path d="M10.5 19V22" stroke="#0DA46F" stroke-width="1.5" stroke-linecap="round" stroke-linejoin="round"/>
</g>
<defs>
<clipPath id="clip0_308_6572">
<rect width="32" height="32" rx="8" fill="white"/>
</clipPath>
</defs>
</svg>
