<svg width="32" height="32" viewBox="0 0 32 32" fill="none" xmlns="http://www.w3.org/2000/svg">
<g clip-path="url(#clip0_267_6500)">
<rect opacity="0.05" width="32" height="32" fill="#0DA46F"/>
<path fill-rule="evenodd" clip-rule="evenodd" d="M10 25H8C7.448 25 7 24.552 7 24V18C7 17.448 7.448 17 8 17H10C10.552 17 11 17.448 11 18V24C11 24.552 10.552 25 10 25Z" stroke="#0DA46F" stroke-width="1.5" stroke-linecap="round" stroke-linejoin="round"/>
<path d="M16.9999 21.0001H19.3329C19.7659 21.0001 20.1869 20.8601 20.5329 20.6001L22.9489 18.7881C23.5519 18.3361 24.3959 18.3961 24.9289 18.9291V18.9291C25.5209 19.5211 25.5209 20.4801 24.9289 21.0711L22.8559 23.1441C22.2979 23.7021 21.5859 24.0831 20.8119 24.2381L17.8819 24.8241C17.3009 24.9401 16.7019 24.9261 16.1269 24.7821L13.4769 24.1201C13.1599 24.0401 12.8349 24.0001 12.5079 24.0001H10.9999" stroke="#0DA46F" stroke-width="1.5" stroke-linecap="round" stroke-linejoin="round"/>
<path d="M16.9999 21H18.4849C19.3219 21 19.9999 20.322 19.9999 19.485V19.182C19.9999 18.487 19.5269 17.881 18.8529 17.713L16.5609 17.14C16.1879 17.047 15.8059 17 15.4219 17V17C14.4949 17 13.5879 17.274 12.8169 17.789L10.9999 19" stroke="#0DA46F" stroke-width="1.5" stroke-linecap="round" stroke-linejoin="round"/>
<path d="M21.1689 9.15521C22.2772 10.2635 22.2772 12.0604 21.1689 13.1687C20.0606 14.2771 18.2636 14.2771 17.1553 13.1687C16.047 12.0604 16.047 10.2635 17.1553 9.15521C18.2636 8.0469 20.0606 8.0469 21.1689 9.15521" stroke="#0DA46F" stroke-width="1.5" stroke-linecap="round" stroke-linejoin="round"/>
<path d="M18.631 8.375C18.538 7.81 18.28 7.267 17.844 6.831C16.736 5.723 14.939 5.723 13.831 6.831C12.723 7.939 12.723 9.736 13.831 10.844C14.521 11.534 15.477 11.793 16.368 11.624" stroke="#0DA46F" stroke-width="1.5" stroke-linecap="round" stroke-linejoin="round"/>
</g>
<defs>
<clipPath id="clip0_267_6500">
<rect width="32" height="32" rx="8" fill="white"/>
</clipPath>
</defs>
</svg>
