<svg width="111" height="80" viewBox="0 0 111 80" fill="none" xmlns="http://www.w3.org/2000/svg">
<path fill-rule="evenodd" clip-rule="evenodd" d="M61.5 80H49.5V79H61.5V80Z" fill="#C9CFE6"/>
<path d="M45.5991 64.4H46.5591V66.68H47.1191L48.7351 64.4H49.8391L47.8791 67.072L49.9991 70H48.8311L47.1191 67.56H46.5591V70H45.5991V64.4ZM50.3934 69.2H50.4734C50.6868 69.2 50.8521 69.1413 50.9694 69.024C51.0921 68.9067 51.1801 68.7467 51.2334 68.544C51.2921 68.3413 51.3268 68.104 51.3374 67.832C51.3481 67.56 51.3534 67.2693 51.3534 66.96V64.4H55.1934V70H54.2334V65.28H52.3134V66.96C52.3134 67.3387 52.2974 67.7147 52.2654 68.088C52.2388 68.4613 52.1641 68.7973 52.0414 69.096C51.9241 69.3893 51.7428 69.6267 51.4974 69.808C51.2521 69.9893 50.9108 70.08 50.4734 70.08H50.3934V69.2ZM57.8761 68.4L55.9081 64.4H56.9801L58.3721 67.36H58.3881L59.6201 64.4H60.6281L58.1881 70H57.1801L57.8761 68.4ZM61.3491 64.4H65.0291V65.28H62.3091V66.448H63.3891C64.0771 66.448 64.5891 66.6053 64.9251 66.92C65.2611 67.2347 65.4291 67.6693 65.4291 68.224C65.4291 68.768 65.2584 69.2 64.9171 69.52C64.5757 69.84 64.0664 70 63.3891 70H61.3491V64.4ZM63.3491 69.12C63.7117 69.12 63.9811 69.04 64.1571 68.88C64.3331 68.7147 64.4211 68.496 64.4211 68.224C64.4211 67.9573 64.3304 67.7413 64.1491 67.576C63.9677 67.4107 63.7011 67.328 63.3491 67.328H62.3091V69.12H63.3491Z" fill="#464E5F"/>
<path d="M15.9138 45.58C15.2978 45.58 14.7458 45.496 14.2578 45.328C13.7778 45.152 13.3698 44.904 13.0338 44.584C12.7058 44.264 12.4538 43.88 12.2778 43.432C12.1018 42.984 12.0138 42.484 12.0138 41.932V41.668C12.0138 41.124 12.1018 40.628 12.2778 40.18C12.4538 39.732 12.7098 39.348 13.0458 39.028C13.3818 38.708 13.7898 38.46 14.2698 38.284C14.7578 38.108 15.3058 38.02 15.9138 38.02V37.492H17.3538V38.02C17.9698 38.02 18.5178 38.108 18.9978 38.284C19.4858 38.452 19.8938 38.696 20.2218 39.016C20.5578 39.336 20.8138 39.72 20.9898 40.168C21.1658 40.616 21.2538 41.116 21.2538 41.668V41.932C21.2538 42.476 21.1658 42.972 20.9898 43.42C20.8138 43.868 20.5578 44.252 20.2218 44.572C19.8858 44.892 19.4738 45.14 18.9858 45.316C18.5058 45.492 17.9618 45.58 17.3538 45.58V46.108H15.9138V45.58ZM19.7418 41.668C19.7418 40.924 19.5378 40.352 19.1298 39.952C18.7218 39.544 18.1298 39.34 17.3538 39.34V44.26C18.1378 44.26 18.7298 44.06 19.1298 43.66C19.5378 43.26 19.7418 42.684 19.7418 41.932V41.668ZM13.5258 41.932C13.5258 42.676 13.7298 43.252 14.1378 43.66C14.5458 44.06 15.1378 44.26 15.9138 44.26V39.34C15.1298 39.34 14.5338 39.54 14.1258 39.94C13.7258 40.34 13.5258 40.916 13.5258 41.668V41.932ZM22.8691 37.6H24.3091V44.2H24.3331L27.7651 37.6H29.7091V46H28.2691V39.4H28.2451L24.8131 46H22.8691V37.6ZM31.7459 37.6H33.1859V41.02H37.1459V37.6H38.5859V46H37.1459V42.34H33.1859V46H31.7459V37.6ZM42.9026 37.6H44.5826L47.5826 46H46.0466L45.3506 43.9H42.0506L41.3426 46H39.9026L42.9026 37.6ZM44.9186 42.58L43.7306 38.98H43.7066L42.4946 42.58H44.9186ZM48.9016 37.6H50.3416V41.02H54.3016V37.6H55.7416V46H54.3016V42.34H50.3416V46H48.9016V37.6ZM61.1384 46.12C60.5864 46.12 60.0864 46.032 59.6384 45.856C59.1904 45.672 58.8064 45.408 58.4864 45.064C58.1664 44.712 57.9184 44.28 57.7424 43.768C57.5664 43.248 57.4784 42.656 57.4784 41.992V41.488C57.4784 40.856 57.5664 40.292 57.7424 39.796C57.9184 39.3 58.1664 38.88 58.4864 38.536C58.8064 38.192 59.1904 37.932 59.6384 37.756C60.0944 37.572 60.5944 37.48 61.1384 37.48C61.6344 37.48 62.0784 37.552 62.4704 37.696C62.8704 37.832 63.2144 38.024 63.5024 38.272C63.7904 38.52 64.0224 38.812 64.1984 39.148C64.3744 39.484 64.4944 39.848 64.5584 40.24H62.9984C62.8784 39.816 62.6664 39.472 62.3624 39.208C62.0584 38.936 61.6504 38.8 61.1384 38.8C60.4984 38.8 59.9784 39.024 59.5784 39.472C59.1864 39.912 58.9904 40.584 58.9904 41.488V41.992C58.9904 42.472 59.0424 42.888 59.1464 43.24C59.2584 43.592 59.4064 43.884 59.5904 44.116C59.7824 44.348 60.0104 44.52 60.2744 44.632C60.5384 44.744 60.8264 44.8 61.1384 44.8C61.6424 44.8 62.0424 44.66 62.3384 44.38C62.6424 44.1 62.8544 43.72 62.9744 43.24H64.5584C64.4944 43.664 64.3744 44.052 64.1984 44.404C64.0224 44.756 63.7904 45.06 63.5024 45.316C63.2144 45.572 62.8704 45.772 62.4704 45.916C62.0784 46.052 61.6344 46.12 61.1384 46.12ZM69.5946 46.12C69.0266 46.12 68.5146 46.032 68.0586 45.856C67.6026 45.672 67.2106 45.408 66.8826 45.064C66.5626 44.712 66.3146 44.28 66.1386 43.768C65.9626 43.248 65.8746 42.656 65.8746 41.992V41.488C65.8746 40.856 65.9626 40.292 66.1386 39.796C66.3146 39.3 66.5626 38.88 66.8826 38.536C67.2106 38.192 67.6026 37.932 68.0586 37.756C68.5226 37.572 69.0346 37.48 69.5946 37.48C70.1546 37.48 70.6626 37.572 71.1186 37.756C71.5826 37.932 71.9746 38.192 72.2946 38.536C72.6226 38.872 72.8746 39.292 73.0506 39.796C73.2266 40.292 73.3146 40.856 73.3146 41.488V41.992C73.3146 42.656 73.2266 43.244 73.0506 43.756C72.8746 44.268 72.6226 44.7 72.2946 45.052C71.9746 45.404 71.5826 45.672 71.1186 45.856C70.6626 46.032 70.1546 46.12 69.5946 46.12ZM69.5946 44.8C70.2586 44.8 70.7906 44.576 71.1906 44.128C71.5986 43.68 71.8026 42.968 71.8026 41.992V41.488C71.8026 40.592 71.5986 39.92 71.1906 39.472C70.7826 39.024 70.2506 38.8 69.5946 38.8C68.9226 38.8 68.3866 39.02 67.9866 39.46C67.5866 39.9 67.3866 40.576 67.3866 41.488V41.992C67.3866 42.952 67.5866 43.66 67.9866 44.116C68.3946 44.572 68.9306 44.8 69.5946 44.8ZM75.0513 37.6H77.9313C79.0113 37.6 79.7793 37.8 80.2353 38.2C80.6993 38.6 80.9313 39.16 80.9313 39.88C80.9313 40.656 80.5753 41.236 79.8633 41.62V41.644C80.7353 42.012 81.1713 42.656 81.1713 43.576C81.1713 44.368 80.9393 44.972 80.4753 45.388C80.0193 45.796 79.2513 46 78.1713 46H75.0513V37.6ZM76.4913 38.92V41.08H77.8713C78.4553 41.08 78.8593 40.988 79.0833 40.804C79.3073 40.62 79.4193 40.352 79.4193 40C79.4193 39.648 79.3073 39.38 79.0833 39.196C78.8593 39.012 78.4553 38.92 77.8713 38.92H76.4913ZM76.4913 42.28V44.68H78.1113C78.6953 44.68 79.0993 44.584 79.3233 44.392C79.5473 44.192 79.6593 43.888 79.6593 43.48C79.6593 43.072 79.5473 42.772 79.3233 42.58C79.0993 42.38 78.6953 42.28 78.1113 42.28H76.4913ZM86.2699 46.12C85.7019 46.12 85.1899 46.032 84.7339 45.856C84.2779 45.672 83.8859 45.408 83.5579 45.064C83.2379 44.712 82.9899 44.28 82.8139 43.768C82.6379 43.248 82.5499 42.656 82.5499 41.992V41.488C82.5499 40.856 82.6379 40.292 82.8139 39.796C82.9899 39.3 83.2379 38.88 83.5579 38.536C83.8859 38.192 84.2779 37.932 84.7339 37.756C85.1979 37.572 85.7099 37.48 86.2699 37.48C86.8299 37.48 87.3379 37.572 87.7939 37.756C88.2579 37.932 88.6499 38.192 88.9699 38.536C89.2979 38.872 89.5499 39.292 89.7259 39.796C89.9019 40.292 89.9899 40.856 89.9899 41.488V41.992C89.9899 42.656 89.9019 43.244 89.7259 43.756C89.5499 44.268 89.2979 44.7 88.9699 45.052C88.6499 45.404 88.2579 45.672 87.7939 45.856C87.3379 46.032 86.8299 46.12 86.2699 46.12ZM86.2699 44.8C86.9339 44.8 87.4659 44.576 87.8659 44.128C88.2739 43.68 88.4779 42.968 88.4779 41.992V41.488C88.4779 40.592 88.2739 39.92 87.8659 39.472C87.4579 39.024 86.9259 38.8 86.2699 38.8C85.5979 38.8 85.0619 39.02 84.6619 39.46C84.2619 39.9 84.0619 40.576 84.0619 41.488V41.992C84.0619 42.952 84.2619 43.66 84.6619 44.116C85.0699 44.572 85.6059 44.8 86.2699 44.8ZM91.7266 37.6H93.1666V44.2H93.1906L96.6226 37.6H98.5666V46H97.1266V39.4H97.1026L93.6706 46H91.7266V37.6ZM95.1466 36.88C94.5386 36.88 94.0746 36.732 93.7546 36.436C93.4426 36.132 93.2866 35.72 93.2866 35.2H94.3666C94.3666 35.472 94.4346 35.68 94.5706 35.824C94.7146 35.968 94.9066 36.04 95.1466 36.04C95.3866 36.04 95.5746 35.968 95.7106 35.824C95.8546 35.68 95.9266 35.472 95.9266 35.2H97.0066C97.0066 35.72 96.8466 36.132 96.5266 36.436C96.2146 36.732 95.7546 36.88 95.1466 36.88ZM4.37461 58.12C3.87861 58.12 3.43061 58.052 3.03061 57.916C2.63861 57.772 2.29861 57.572 2.01061 57.316C1.72261 57.06 1.48661 56.756 1.30261 56.404C1.12661 56.052 1.01061 55.664 0.954611 55.24H2.53861C2.65861 55.72 2.86661 56.1 3.16261 56.38C3.46661 56.66 3.87061 56.8 4.37461 56.8C4.99861 56.8 5.49861 56.6 5.87461 56.2C6.25861 55.792 6.47061 55.176 6.51061 54.352H3.35461V53.128H6.51061C6.46261 52.36 6.25461 51.78 5.88661 51.388C5.52661 50.996 5.02261 50.8 4.37461 50.8C3.86261 50.8 3.45461 50.936 3.15061 51.208C2.84661 51.48 2.63461 51.824 2.51461 52.24H0.954611C1.01061 51.848 1.12661 51.484 1.30261 51.148C1.48661 50.812 1.72261 50.52 2.01061 50.272C2.29861 50.024 2.63861 49.832 3.03061 49.696C3.43061 49.552 3.87861 49.48 4.37461 49.48C4.91861 49.48 5.41461 49.572 5.86261 49.756C6.31861 49.932 6.70661 50.192 7.02661 50.536C7.34661 50.88 7.59461 51.3 7.77061 51.796C7.94661 52.292 8.03461 52.856 8.03461 53.488V53.992C8.03461 54.656 7.94661 55.248 7.77061 55.768C7.59461 56.28 7.34661 56.712 7.02661 57.064C6.70661 57.408 6.32261 57.672 5.87461 57.856C5.42661 58.032 4.92661 58.12 4.37461 58.12ZM13.2509 57.58C12.6349 57.58 12.0829 57.496 11.5949 57.328C11.1149 57.152 10.7069 56.904 10.3709 56.584C10.0429 56.264 9.79086 55.88 9.61486 55.432C9.43886 54.984 9.35086 54.484 9.35086 53.932V53.668C9.35086 53.124 9.43886 52.628 9.61486 52.18C9.79086 51.732 10.0469 51.348 10.3829 51.028C10.7189 50.708 11.1269 50.46 11.6069 50.284C12.0949 50.108 12.6429 50.02 13.2509 50.02V49.492H14.6909V50.02C15.3069 50.02 15.8549 50.108 16.3349 50.284C16.8229 50.452 17.2309 50.696 17.5589 51.016C17.8949 51.336 18.1509 51.72 18.3269 52.168C18.5029 52.616 18.5909 53.116 18.5909 53.668V53.932C18.5909 54.476 18.5029 54.972 18.3269 55.42C18.1509 55.868 17.8949 56.252 17.5589 56.572C17.2229 56.892 16.8109 57.14 16.3229 57.316C15.8429 57.492 15.2989 57.58 14.6909 57.58V58.108H13.2509V57.58ZM17.0789 53.668C17.0789 52.924 16.8749 52.352 16.4669 51.952C16.0589 51.544 15.4669 51.34 14.6909 51.34V56.26C15.4749 56.26 16.0669 56.06 16.4669 55.66C16.8749 55.26 17.0789 54.684 17.0789 53.932V53.668ZM10.8629 53.932C10.8629 54.676 11.0669 55.252 11.4749 55.66C11.8829 56.06 12.4749 56.26 13.2509 56.26V51.34C12.4669 51.34 11.8709 51.54 11.4629 51.94C11.0629 52.34 10.8629 52.916 10.8629 53.668V53.932ZM23.6862 57.58C23.0702 57.58 22.5182 57.496 22.0302 57.328C21.5502 57.152 21.1422 56.904 20.8062 56.584C20.4782 56.264 20.2262 55.88 20.0502 55.432C19.8742 54.984 19.7862 54.484 19.7862 53.932V53.668C19.7862 53.124 19.8742 52.628 20.0502 52.18C20.2262 51.732 20.4822 51.348 20.8182 51.028C21.1542 50.708 21.5622 50.46 22.0422 50.284C22.5302 50.108 23.0782 50.02 23.6862 50.02V49.492H25.1262V50.02C25.7422 50.02 26.2902 50.108 26.7702 50.284C27.2582 50.452 27.6662 50.696 27.9942 51.016C28.3302 51.336 28.5862 51.72 28.7622 52.168C28.9382 52.616 29.0262 53.116 29.0262 53.668V53.932C29.0262 54.476 28.9382 54.972 28.7622 55.42C28.5862 55.868 28.3302 56.252 27.9942 56.572C27.6582 56.892 27.2462 57.14 26.7582 57.316C26.2782 57.492 25.7342 57.58 25.1262 57.58V58.108H23.6862V57.58ZM27.5142 53.668C27.5142 52.924 27.3102 52.352 26.9022 51.952C26.4942 51.544 25.9022 51.34 25.1262 51.34V56.26C25.9102 56.26 26.5022 56.06 26.9022 55.66C27.3102 55.26 27.5142 54.684 27.5142 53.932V53.668ZM21.2982 53.932C21.2982 54.676 21.5022 55.252 21.9102 55.66C22.3182 56.06 22.9102 56.26 23.6862 56.26V51.34C22.9022 51.34 22.3062 51.54 21.8982 51.94C21.4982 52.34 21.2982 52.916 21.2982 53.668V53.932ZM30.6415 49.6H36.0415V50.92H32.0815V53.02H35.3215V54.34H32.0815V56.68H36.0415V58H30.6415V49.6ZM37.7135 49.6H39.1535V53.02H39.9935L42.4175 49.6H44.0735L41.1335 53.608L44.3135 58H42.5615L39.9935 54.34H39.1535V58H37.7135V49.6ZM47.6079 50.92H45.0279V49.6H51.6279V50.92H49.0479V58H47.6079V50.92ZM53.006 49.6H54.446V56.2H54.47L57.902 49.6H59.846V58H58.406V51.4H58.382L54.95 58H53.006V49.6ZM61.8827 49.6H64.7627C65.8427 49.6 66.6107 49.8 67.0667 50.2C67.5307 50.6 67.7627 51.16 67.7627 51.88C67.7627 52.656 67.4067 53.236 66.6947 53.62V53.644C67.5667 54.012 68.0027 54.656 68.0027 55.576C68.0027 56.368 67.7707 56.972 67.3067 57.388C66.8507 57.796 66.0827 58 65.0027 58H61.8827V49.6ZM63.3227 50.92V53.08H64.7027C65.2867 53.08 65.6907 52.988 65.9147 52.804C66.1387 52.62 66.2507 52.352 66.2507 52C66.2507 51.648 66.1387 51.38 65.9147 51.196C65.6907 51.012 65.2867 50.92 64.7027 50.92H63.3227ZM63.3227 54.28V56.68H64.9427C65.5267 56.68 65.9307 56.584 66.1547 56.392C66.3787 56.192 66.4907 55.888 66.4907 55.48C66.4907 55.072 66.3787 54.772 66.1547 54.58C65.9307 54.38 65.5267 54.28 64.9427 54.28H63.3227ZM69.6813 49.6H71.1213V53.02H75.0813V49.6H76.5213V58H75.0813V54.34H71.1213V58H69.6813V49.6ZM81.978 58.12C81.41 58.12 80.898 58.032 80.442 57.856C79.986 57.672 79.594 57.408 79.266 57.064C78.946 56.712 78.698 56.28 78.522 55.768C78.346 55.248 78.258 54.656 78.258 53.992V53.488C78.258 52.856 78.346 52.292 78.522 51.796C78.698 51.3 78.946 50.88 79.266 50.536C79.594 50.192 79.986 49.932 80.442 49.756C80.906 49.572 81.418 49.48 81.978 49.48C82.538 49.48 83.046 49.572 83.502 49.756C83.966 49.932 84.358 50.192 84.678 50.536C85.006 50.872 85.258 51.292 85.434 51.796C85.61 52.292 85.698 52.856 85.698 53.488V53.992C85.698 54.656 85.61 55.244 85.434 55.756C85.258 56.268 85.006 56.7 84.678 57.052C84.358 57.404 83.966 57.672 83.502 57.856C83.046 58.032 82.538 58.12 81.978 58.12ZM81.978 56.8C82.642 56.8 83.174 56.576 83.574 56.128C83.982 55.68 84.186 54.968 84.186 53.992V53.488C84.186 52.592 83.982 51.92 83.574 51.472C83.166 51.024 82.634 50.8 81.978 50.8C81.306 50.8 80.77 51.02 80.37 51.46C79.97 51.9 79.77 52.576 79.77 53.488V53.992C79.77 54.952 79.97 55.66 80.37 56.116C80.778 56.572 81.314 56.8 81.978 56.8ZM90.7948 58.12C90.2428 58.12 89.7428 58.032 89.2948 57.856C88.8468 57.672 88.4628 57.408 88.1428 57.064C87.8228 56.712 87.5748 56.28 87.3988 55.768C87.2228 55.248 87.1348 54.656 87.1348 53.992V53.488C87.1348 52.856 87.2228 52.292 87.3988 51.796C87.5748 51.3 87.8228 50.88 88.1428 50.536C88.4628 50.192 88.8468 49.932 89.2948 49.756C89.7508 49.572 90.2508 49.48 90.7948 49.48C91.2908 49.48 91.7348 49.552 92.1268 49.696C92.5268 49.832 92.8708 50.024 93.1588 50.272C93.4468 50.52 93.6788 50.812 93.8548 51.148C94.0308 51.484 94.1508 51.848 94.2148 52.24H92.6548C92.5348 51.816 92.3228 51.472 92.0188 51.208C91.7148 50.936 91.3068 50.8 90.7948 50.8C90.1548 50.8 89.6348 51.024 89.2348 51.472C88.8428 51.912 88.6468 52.584 88.6468 53.488V53.992C88.6468 54.472 88.6988 54.888 88.8028 55.24C88.9148 55.592 89.0628 55.884 89.2468 56.116C89.4388 56.348 89.6668 56.52 89.9308 56.632C90.1948 56.744 90.4828 56.8 90.7948 56.8C91.2988 56.8 91.6988 56.66 91.9948 56.38C92.2988 56.1 92.5108 55.72 92.6308 55.24H94.2148C94.1508 55.664 94.0308 56.052 93.8548 56.404C93.6788 56.756 93.4468 57.06 93.1588 57.316C92.8708 57.572 92.5268 57.772 92.1268 57.916C91.7348 58.052 91.2908 58.12 90.7948 58.12ZM97.3877 50.92H94.8077V49.6H101.408V50.92H98.8277V58H97.3877V50.92ZM102.786 49.6H104.226V56.2H104.25L107.682 49.6H109.626V58H108.186V51.4H108.162L104.73 58H102.786V49.6Z" fill="#3156A6"/>
<path fill-rule="evenodd" clip-rule="evenodd" d="M65.852 22.1787L54.0733 27.0867C52.6893 27.664 51.1253 27.6307 49.7666 26.996L45.784 25.1373C44.5026 24.5387 43.9106 23.044 44.436 21.7307L50.852 5.69067C51.4213 4.268 53.068 3.61733 54.456 4.264L58.8213 6.30133C59.7853 6.75067 60.592 7.47867 61.1386 8.39067L67.112 18.3453C67.9493 19.74 67.3533 21.5533 65.852 22.1787V22.1787Z" stroke="#3156A6" stroke-width="1.5" stroke-linecap="round" stroke-linejoin="round"/>
<path d="M60.2066 7.24L52.1 27.48" stroke="#3156A6" stroke-width="1.5" stroke-linecap="round" stroke-linejoin="round"/>
</svg>
