<?xml version="1.0" encoding="UTF-8" standalone="no"?>
<!DOCTYPE svg PUBLIC "-//W3C//DTD SVG 1.1//EN" "http://www.w3.org/Graphics/SVG/1.1/DTD/svg11.dtd">
<svg width="100%" height="100%" viewBox="0 0 800 800" version="1.1" xmlns="http://www.w3.org/2000/svg" xml:space="preserve" xmlns:serif="http://www.serif.com/" style="fill-rule:evenodd;clip-rule:evenodd;stroke-linejoin:round;stroke-miterlimit:2;">
    <g transform="matrix(1,0,0,1,0,-7183)">
        <g id="Слой-6" serif:id="Слой 6">
        </g>
        <g id="Режим-изоляции" serif:id="Режим изоляции">
        </g>
        <g id="Режим-изоляции1" serif:id="Режим изоляции">
        </g>
        <g id="Режим-изоляции2" serif:id="Режим изоляции">
        </g>
        <g id="Режим-изоляции3" serif:id="Режим изоляции">
        </g>
        <g id="Слой-2" serif:id="Слой 2">
        </g>
        <g id="Слой-3" serif:id="Слой 3">
        </g>
        <g id="Слой-4" serif:id="Слой 4">
        </g>
        <g id="Слой-5" serif:id="Слой 5">
        </g>
        <g id="Режим-изоляции4" serif:id="Режим изоляции">
        </g>
        <g id="Artboard3" transform="matrix(1.89573,0,0,1.70576,5639.81,-5069.45)">
            <rect x="-2975" y="7183" width="422" height="469" style="fill:none;"/>
            <clipPath id="_clip1">
                <rect x="-2975" y="7183" width="422" height="469"/>
            </clipPath>
            <g clip-path="url(#_clip1)">
                <g transform="matrix(0.487282,0,0,0.541553,-597.792,3681.81)">
                    <path d="M-4431.79,6785.6C-4443.53,6758.77 -4450.05,6729.14 -4450.05,6698C-4450.05,6577.25 -4352.02,6479.21 -4231.26,6479.21C-4110.51,6479.21 -4012.47,6577.25 -4012.47,6698C-4012.47,6818.75 -4110.51,6916.79 -4231.26,6916.79C-4270.28,6916.79 -4306.93,6906.56 -4338.66,6888.63L-4317.32,6854.73C-4291.78,6868.79 -4262.45,6876.79 -4231.26,6876.79C-4132.59,6876.79 -4052.47,6796.68 -4052.47,6698C-4052.47,6599.32 -4132.59,6519.21 -4231.26,6519.21C-4329.94,6519.21 -4410.05,6599.32 -4410.05,6698C-4410.05,6723.03 -4404.9,6746.86 -4395.6,6768.5L-4431.79,6785.6ZM-4287.76,6735.92L-4265.87,6735.92C-4263.87,6745.95 -4260.06,6754.08 -4254.44,6760.3C-4248.82,6766.52 -4240.59,6769.63 -4229.76,6769.63C-4222.94,6769.63 -4216.32,6768.02 -4209.9,6764.81C-4203.48,6761.6 -4200.27,6755.98 -4200.27,6747.96C-4200.27,6741.14 -4202.97,6735.62 -4208.39,6731.41C-4213.81,6727.19 -4220.63,6723.48 -4228.86,6720.27C-4237.08,6717.06 -4246.01,6713.75 -4255.64,6710.34C-4265.27,6706.93 -4274.2,6702.61 -4282.43,6697.4C-4290.65,6692.18 -4297.47,6685.46 -4302.89,6677.23C-4308.31,6669.01 -4311.02,6658.27 -4311.02,6645.03C-4311.02,6626.57 -4305.3,6612.13 -4293.86,6601.69C-4282.43,6591.26 -4268.68,6583.84 -4252.63,6579.42L-4252.63,6546.32L-4211.7,6546.32L-4211.7,6580.03C-4192.04,6585.24 -4177.99,6593.27 -4169.57,6604.1C-4161.14,6614.94 -4156.93,6630.59 -4156.93,6651.05L-4200.27,6651.05C-4202.67,6641.02 -4205.88,6633.6 -4209.9,6628.78C-4213.91,6623.96 -4221.73,6621.56 -4233.37,6621.56C-4239.39,6621.56 -4245.81,6623.16 -4252.63,6626.37C-4259.45,6629.58 -4262.86,6634.8 -4262.86,6642.02C-4262.86,6646.84 -4259.75,6651.15 -4253.53,6654.96C-4247.31,6658.78 -4242.4,6661.68 -4238.79,6663.69C-4229.96,6668.11 -4220.33,6672.32 -4209.9,6676.33C-4199.46,6680.34 -4189.73,6685.16 -4180.7,6690.78C-4171.67,6696.4 -4164.05,6703.12 -4157.83,6710.94C-4151.61,6718.77 -4148.5,6728.7 -4148.5,6740.74C-4148.5,6749.56 -4150.2,6757.99 -4153.62,6766.02C-4157.03,6774.04 -4161.54,6781.16 -4167.16,6787.38C-4172.78,6793.6 -4179.4,6798.72 -4187.02,6802.73C-4194.65,6806.75 -4202.87,6809.35 -4211.7,6810.56L-4211.7,6849.68L-4252.63,6849.68L-4252.63,6811.16C-4264.83,6809.32 -4275.06,6805.82 -4283.3,6800.68L-4275.31,6788C-4266.44,6773.91 -4267.94,6755.67 -4278.98,6743.21C-4281.57,6740.29 -4284.54,6737.85 -4287.76,6735.92ZM-4128.72,6929.1C-4128.57,6933.38 -4128.5,6937.68 -4128.5,6942C-4128.5,7148.97 -4296.53,7317 -4503.5,7317C-4710.47,7317 -4878.5,7148.97 -4878.5,6942C-4878.5,6735.03 -4710.47,6567 -4503.5,6567C-4485.25,6567 -4467.3,6568.31 -4449.74,6570.83C-4456.79,6582.91 -4462.87,6595.63 -4467.87,6608.88C-4479.58,6607.64 -4491.47,6607 -4503.5,6607C-4688.39,6607 -4838.5,6757.11 -4838.5,6942C-4838.5,7126.89 -4688.39,7277 -4503.5,7277C-4318.92,7277 -4169,7127.39 -4168.5,6942.93C-4154.76,6939.41 -4141.46,6934.76 -4128.72,6929.1ZM-4468.18,7028.53L-4691.45,7134.03C-4699.49,7137.83 -4709.07,7135.87 -4714.97,7129.22C-4720.86,7122.56 -4721.66,7112.82 -4716.93,7105.3L-4578.96,6886.14C-4577.65,6884.06 -4576.02,6882.31 -4574.18,6880.9C-4568.53,6874.37 -4561.99,6868.63 -4554.76,6863.88C-4553.38,6862.65 -4551.81,6861.61 -4550.06,6860.78L-4547.75,6859.69C-4544.86,6858.13 -4541.88,6856.72 -4538.82,6855.47L-4315.55,6749.97C-4307.51,6746.17 -4297.93,6748.13 -4292.03,6754.78C-4286.14,6761.44 -4285.34,6771.18 -4290.07,6778.7L-4428.04,6997.86C-4429.35,6999.94 -4430.98,7001.69 -4432.82,7003.1C-4438.47,7009.63 -4445.01,7015.37 -4452.24,7020.12C-4453.62,7021.35 -4455.19,7022.39 -4456.94,7023.22L-4459.25,7024.31C-4462.14,7025.87 -4465.12,7027.28 -4468.18,7028.53ZM-4417.34,6905.78L-4360.46,6815.43L-4456.9,6861C-4439.29,6871.16 -4425.3,6886.9 -4417.34,6905.78ZM-4529.55,6895.33C-4545.89,6904.48 -4556.95,6921.96 -4556.95,6942C-4556.95,6971.5 -4533,6995.45 -4503.5,6995.45C-4496.65,6995.45 -4490.1,6994.15 -4484.08,6991.8L-4477.45,6988.67C-4461.11,6979.52 -4450.05,6962.04 -4450.05,6942C-4450.05,6912.5 -4474,6888.55 -4503.5,6888.55C-4510.35,6888.55 -4516.9,6889.85 -4522.92,6892.2L-4529.55,6895.33ZM-4589.66,6978.22L-4646.54,7068.57L-4550.1,7023C-4567.71,7012.84 -4581.7,6997.11 -4589.66,6978.22Z" style="fill:rgb(73,82,99);"/>
                </g>
            </g>
        </g>
    </g>
</svg>
