<svg width="32" height="32" viewBox="0 0 32 32" fill="none" xmlns="http://www.w3.org/2000/svg">
<g clip-path="url(#clip0_267_6641)">
<rect opacity="0.05" width="32" height="32" fill="#EE2B49"/>
<path d="M14.9996 7.9967L19.2522 10.5483C19.7417 10.842 20.1372 11.2691 20.3925 11.7796L20.6852 12.3651C20.8936 12.7818 21.0021 13.2414 21.0021 13.7073V15.4167" stroke="#EE2B49" stroke-width="1.5" stroke-linecap="round" stroke-linejoin="round"/>
<path d="M14.0639 19.3591C14.0283 19.5716 14.0067 19.7863 13.9992 20.0017C13.9787 22.3466 15.5764 24.3966 17.8553 24.9496C20.1342 25.5026 22.4937 24.4128 23.5503 22.3192C24.6068 20.2257 24.0819 17.6802 22.2834 16.1754C20.4848 14.6706 17.8866 14.6031 16.0124 16.0125" stroke="#EE2B49" stroke-width="1.5" stroke-linecap="round" stroke-linejoin="round"/>
<path d="M7.99667 9.99756L10.0795 15.7618C10.3703 16.5664 10.9111 17.2566 11.6229 17.7312L16.1127 20.7253C16.7657 21.1608 17.6354 21.0747 18.1904 20.5197V20.5197C18.8333 19.8768 18.8334 18.8346 18.1906 18.1916L16 16.0001V13.9992" stroke="#EE2B49" stroke-width="1.5" stroke-linecap="round" stroke-linejoin="round"/>
</g>
<defs>
<clipPath id="clip0_267_6641">
<rect width="32" height="32" rx="8" fill="white"/>
</clipPath>
</defs>
</svg>
