<svg width="17" height="16" viewBox="0 0 17 16" fill="none" xmlns="http://www.w3.org/2000/svg">
<path d="M10.5963 5.61945V4.57648C10.5963 4.01535 10.3734 3.47717 9.97662 3.08021C9.57979 2.68338 9.04161 2.46049 8.48036 2.46049H8.34285C7.78159 2.46049 7.24341 2.68339 6.84658 3.08021C6.44975 3.47717 6.22686 4.01535 6.22686 4.57648V5.61933C5.69378 5.66159 5.16183 5.71856 4.63073 5.79012V4.58096V4.58109C4.6311 3.5967 5.02182 2.65285 5.71708 1.95609C6.41235 1.25945 7.35559 0.866864 8.33985 0.864502H8.47736C9.46136 0.866497 10.4045 1.25846 11.1 1.95446C11.7955 2.65059 12.1867 3.59396 12.188 4.57796V5.78712C11.6609 5.71768 11.1304 5.6617 10.5963 5.61944V5.61945ZM3.47581 7.28203H3.47594C6.73573 6.66531 10.0826 6.66531 13.3424 7.28203L13.4165 7.29562C13.607 7.33152 13.7789 7.433 13.9025 7.58223C14.0262 7.73158 14.0938 7.91944 14.0935 8.11333V13.7964C14.0938 13.9903 14.0262 14.178 13.9025 14.3274C13.7789 14.4767 13.607 14.5781 13.4165 14.6141L12.9117 14.7094V14.7092C11.4274 14.9915 9.91995 15.1342 8.40916 15.1355C6.89895 15.1356 5.39209 14.9945 3.9082 14.7138L3.40344 14.6186C3.21294 14.5827 3.04092 14.4812 2.91737 14.3319C2.7937 14.1826 2.72613 13.9948 2.72626 13.8009V8.1178C2.72613 7.92394 2.7937 7.73606 2.91737 7.58683C3.04092 7.43748 3.21296 7.336 3.40344 7.30009L3.47581 7.28203ZM6.14208 11.0438L7.59309 12.7215V12.7216C7.66365 12.8011 7.76488 12.8466 7.8711 12.8466C7.97744 12.8466 8.07867 12.8011 8.14923 12.7216L10.5041 10.1461C10.6381 9.99912 10.6329 9.77273 10.492 9.63221L10.0717 9.21955C9.93272 9.08067 9.70955 9.07406 9.56246 9.20446L7.859 10.7204L7.0655 10.0992C6.91739 9.98313 6.70572 9.9961 6.5728 10.1295L6.16014 10.5437C6.02662 10.681 6.01876 10.8972 6.14206 11.0438L6.14208 11.0438Z" fill="#EE2B49"/>
</svg>
