<svg width="16" height="16" viewBox="0 0 16 16" fill="none" xmlns="http://www.w3.org/2000/svg">
<path d="M1.99744 3.9975C1.99744 2.89293 2.89287 1.9975 3.99744 1.9975H12.0024C13.107 1.9975 14.0024 2.89293 14.0024 3.9975V12.0025C14.0024 13.1071 13.107 14.0025 12.0024 14.0025H3.99744C2.89287 14.0025 1.99744 13.1071 1.99744 12.0025V3.9975Z" stroke="white" stroke-width="1.5" stroke-linecap="round" stroke-linejoin="round"/>
<path d="M14.0024 5.33219H1.99744" stroke="white" stroke-width="1.5" stroke-linecap="round" stroke-linejoin="round"/>
<path d="M11.5348 7.66654C11.5348 7.68496 11.5199 7.69989 11.5014 7.69989C11.483 7.69989 11.4681 7.68496 11.4681 7.66654C11.4681 7.64812 11.483 7.63319 11.5014 7.63319" stroke="white" stroke-width="1.5" stroke-linecap="round" stroke-linejoin="round"/>
<path d="M11.5015 7.6332C11.5199 7.6332 11.5348 7.64813 11.5348 7.66655" stroke="white" stroke-width="1.5" stroke-linecap="round" stroke-linejoin="round"/>
<path d="M9.19983 7.66654C9.19983 7.68496 9.1849 7.69989 9.16648 7.69989C9.14806 7.69989 9.13313 7.68496 9.13313 7.66654C9.13313 7.64812 9.14806 7.63319 9.16648 7.63319" stroke="white" stroke-width="1.5" stroke-linecap="round" stroke-linejoin="round"/>
<path d="M9.16653 7.6332C9.18495 7.6332 9.19988 7.64813 9.19988 7.66655" stroke="white" stroke-width="1.5" stroke-linecap="round" stroke-linejoin="round"/>
<path d="M6.86548 7.66654C6.86548 7.68496 6.85055 7.69989 6.83213 7.69989C6.81371 7.69989 6.79878 7.68496 6.79878 7.66654C6.79878 7.64812 6.81371 7.63319 6.83213 7.63319" stroke="white" stroke-width="1.5" stroke-linecap="round" stroke-linejoin="round"/>
<path d="M6.83218 7.6332C6.8506 7.6332 6.86553 7.64813 6.86553 7.66655" stroke="white" stroke-width="1.5" stroke-linecap="round" stroke-linejoin="round"/>
<path d="M4.53125 9.66733C4.53125 9.68575 4.51632 9.70068 4.4979 9.70068C4.47948 9.70068 4.46455 9.68575 4.46455 9.66733C4.46455 9.64892 4.47948 9.63399 4.4979 9.63399" stroke="white" stroke-width="1.5" stroke-linecap="round" stroke-linejoin="round"/>
<path d="M4.49783 9.634C4.51625 9.634 4.53118 9.64893 4.53118 9.66735" stroke="white" stroke-width="1.5" stroke-linecap="round" stroke-linejoin="round"/>
<path d="M6.86548 9.66733C6.86548 9.68575 6.85055 9.70068 6.83213 9.70068C6.81371 9.70068 6.79878 9.68575 6.79878 9.66733C6.79878 9.64892 6.81371 9.63399 6.83213 9.63399" stroke="white" stroke-width="1.5" stroke-linecap="round" stroke-linejoin="round"/>
<path d="M6.83218 9.634C6.8506 9.634 6.86553 9.64893 6.86553 9.66735" stroke="white" stroke-width="1.5" stroke-linecap="round" stroke-linejoin="round"/>
<path d="M9.19983 9.66733C9.19983 9.68575 9.1849 9.70068 9.16648 9.70068C9.14806 9.70068 9.13313 9.68575 9.13313 9.66733C9.13313 9.64892 9.14806 9.63399 9.16648 9.63399" stroke="white" stroke-width="1.5" stroke-linecap="round" stroke-linejoin="round"/>
<path d="M9.16653 9.634C9.18495 9.634 9.19988 9.64893 9.19988 9.66735" stroke="white" stroke-width="1.5" stroke-linecap="round" stroke-linejoin="round"/>
<path d="M11.5348 9.66733C11.5348 9.68575 11.5199 9.70068 11.5014 9.70068C11.483 9.70068 11.4681 9.68575 11.4681 9.66733C11.4681 9.64892 11.483 9.63399 11.5014 9.63399" stroke="white" stroke-width="1.5" stroke-linecap="round" stroke-linejoin="round"/>
<path d="M11.5015 9.634C11.5199 9.634 11.5348 9.64893 11.5348 9.66735" stroke="white" stroke-width="1.5" stroke-linecap="round" stroke-linejoin="round"/>
<path d="M11.5348 11.6682C11.5348 11.6866 11.5199 11.7015 11.5014 11.7015C11.483 11.7015 11.4681 11.6866 11.4681 11.6682C11.4681 11.6498 11.483 11.6348 11.5014 11.6348" stroke="white" stroke-width="1.5" stroke-linecap="round" stroke-linejoin="round"/>
<path d="M11.5015 11.6349C11.5199 11.6349 11.5348 11.6498 11.5348 11.6682" stroke="white" stroke-width="1.5" stroke-linecap="round" stroke-linejoin="round"/>
<path d="M9.19983 11.6682C9.19983 11.6866 9.1849 11.7015 9.16648 11.7015C9.14806 11.7015 9.13313 11.6866 9.13313 11.6682C9.13313 11.6498 9.14806 11.6348 9.16648 11.6348" stroke="white" stroke-width="1.5" stroke-linecap="round" stroke-linejoin="round"/>
<path d="M9.16653 11.6349C9.18495 11.6349 9.19988 11.6498 9.19988 11.6682" stroke="white" stroke-width="1.5" stroke-linecap="round" stroke-linejoin="round"/>
<path d="M6.86548 11.6682C6.86548 11.6866 6.85055 11.7015 6.83213 11.7015C6.81371 11.7015 6.79878 11.6866 6.79878 11.6682C6.79878 11.6498 6.81371 11.6348 6.83213 11.6348" stroke="white" stroke-width="1.5" stroke-linecap="round" stroke-linejoin="round"/>
<path d="M6.83218 11.6349C6.8506 11.6349 6.86553 11.6498 6.86553 11.6682" stroke="white" stroke-width="1.5" stroke-linecap="round" stroke-linejoin="round"/>
<path d="M4.53125 11.6682C4.53125 11.6866 4.51632 11.7015 4.4979 11.7015C4.47948 11.7015 4.46455 11.6866 4.46455 11.6682C4.46455 11.6498 4.47948 11.6348 4.4979 11.6348" stroke="white" stroke-width="1.5" stroke-linecap="round" stroke-linejoin="round"/>
<path d="M4.49783 11.6349C4.51625 11.6349 4.53118 11.6498 4.53118 11.6682" stroke="white" stroke-width="1.5" stroke-linecap="round" stroke-linejoin="round"/>
</svg>
