<svg width="144" height="84" viewBox="0 0 144 84" fill="none" xmlns="http://www.w3.org/2000/svg">
<g filter="url(#filter0_dddddd_1322_15758)">
<rect x="80" y="20" width="48" height="48" rx="24" fill="white"/>
<path fill-rule="evenodd" clip-rule="evenodd" d="M96 38C96 37.4477 96.4214 37 96.9412 37H111.059C111.579 37 112 37.4477 112 38C112 38.5523 111.579 39 111.059 39H96.9412C96.4214 39 96 38.5523 96 38Z" fill="#3156A6"/>
<path fill-rule="evenodd" clip-rule="evenodd" d="M94 44C94 43.4477 94.407 43 94.9091 43H113.091C113.593 43 114 43.4477 114 44C114 44.5523 113.593 45 113.091 45H94.9091C94.407 45 94 44.5523 94 44Z" fill="#3156A6"/>
<path fill-rule="evenodd" clip-rule="evenodd" d="M98 50C98 49.4477 98.4477 49 99 49H109C109.552 49 110 49.4477 110 50C110 50.5523 109.552 51 109 51H99C98.4477 51 98 50.5523 98 50Z" fill="#3156A6"/>
</g>
<defs>
<filter id="filter0_dddddd_1322_15758" x="0" y="0" width="208" height="208" filterUnits="userSpaceOnUse" color-interpolation-filters="sRGB">
<feFlood flood-opacity="0" result="BackgroundImageFix"/>
<feColorMatrix in="SourceAlpha" type="matrix" values="0 0 0 0 0 0 0 0 0 0 0 0 0 0 0 0 0 0 127 0" result="hardAlpha"/>
<feOffset dy="1.11111"/>
<feGaussianBlur stdDeviation="1.57407"/>
<feColorMatrix type="matrix" values="0 0 0 0 0.192157 0 0 0 0 0.337255 0 0 0 0 0.65098 0 0 0 0.14 0"/>
<feBlend mode="normal" in2="BackgroundImageFix" result="effect1_dropShadow_1322_15758"/>
<feColorMatrix in="SourceAlpha" type="matrix" values="0 0 0 0 0 0 0 0 0 0 0 0 0 0 0 0 0 0 127 0" result="hardAlpha"/>
<feOffset dy="4.88889"/>
<feGaussianBlur stdDeviation="3.25926"/>
<feColorMatrix type="matrix" values="0 0 0 0 0.192157 0 0 0 0 0.337255 0 0 0 0 0.65098 0 0 0 0.106296 0"/>
<feBlend mode="normal" in2="effect1_dropShadow_1322_15758" result="effect2_dropShadow_1322_15758"/>
<feColorMatrix in="SourceAlpha" type="matrix" values="0 0 0 0 0 0 0 0 0 0 0 0 0 0 0 0 0 0 127 0" result="hardAlpha"/>
<feOffset dy="12"/>
<feGaussianBlur stdDeviation="6.5"/>
<feColorMatrix type="matrix" values="0 0 0 0 0.192157 0 0 0 0 0.337255 0 0 0 0 0.65098 0 0 0 0.085037 0"/>
<feBlend mode="normal" in2="effect2_dropShadow_1322_15758" result="effect3_dropShadow_1322_15758"/>
<feColorMatrix in="SourceAlpha" type="matrix" values="0 0 0 0 0 0 0 0 0 0 0 0 0 0 0 0 0 0 127 0" result="hardAlpha"/>
<feOffset dy="23.1111"/>
<feGaussianBlur stdDeviation="12.7407"/>
<feColorMatrix type="matrix" values="0 0 0 0 0.192157 0 0 0 0 0.337255 0 0 0 0 0.65098 0 0 0 0.07 0"/>
<feBlend mode="normal" in2="effect3_dropShadow_1322_15758" result="effect4_dropShadow_1322_15758"/>
<feColorMatrix in="SourceAlpha" type="matrix" values="0 0 0 0 0 0 0 0 0 0 0 0 0 0 0 0 0 0 127 0" result="hardAlpha"/>
<feOffset dy="38.8889"/>
<feGaussianBlur stdDeviation="23.4259"/>
<feColorMatrix type="matrix" values="0 0 0 0 0.192157 0 0 0 0 0.337255 0 0 0 0 0.65098 0 0 0 0.054963 0"/>
<feBlend mode="normal" in2="effect4_dropShadow_1322_15758" result="effect5_dropShadow_1322_15758"/>
<feColorMatrix in="SourceAlpha" type="matrix" values="0 0 0 0 0 0 0 0 0 0 0 0 0 0 0 0 0 0 127 0" result="hardAlpha"/>
<feOffset dy="60"/>
<feGaussianBlur stdDeviation="40"/>
<feColorMatrix type="matrix" values="0 0 0 0 0.192157 0 0 0 0 0.337255 0 0 0 0 0.65098 0 0 0 0.0337037 0"/>
<feBlend mode="normal" in2="effect5_dropShadow_1322_15758" result="effect6_dropShadow_1322_15758"/>
<feBlend mode="normal" in="SourceGraphic" in2="effect6_dropShadow_1322_15758" result="shape"/>
</filter>
</defs>
</svg>
