<?xml version="1.0" encoding="UTF-8" standalone="no"?>
<!DOCTYPE svg PUBLIC "-//W3C//DTD SVG 1.1//EN" "http://www.w3.org/Graphics/SVG/1.1/DTD/svg11.dtd">
<svg width="100%" height="100%" viewBox="0 0 977 1064" version="1.1" xmlns="http://www.w3.org/2000/svg" xmlnsxlink="http://www.w3.org/1999/xlink" xml:space="preserve" xmlnsserif="http://www.serif.com/" style="fill-rule:evenodd;clip-rule:evenodd;stroke-linejoin:round;stroke-miterlimit:2;">
    <g transform="matrix(1,0,0,1,-13923.6,-11319.5)">
        <g transform="matrix(5.33512,-2.51463,0,7.66516,35200,-50314.2)">
            <path d="M-3947.54,6851.67L-3883.12,6872.8L-3883.12,6796.01C-3883.12,6794.58 -3881.99,6793.63 -3880.18,6793.54C-3880.18,6793.54 -3832.82,6791.2 -3832.82,6791.2L-3947.54,6753.57L-3947.54,6787.89C-3947.54,6790.05 -3950.07,6790.98 -3953.17,6789.96C-3956.28,6788.94 -3958.8,6786.36 -3958.8,6784.19L-3958.8,6745.96C-3958.8,6743.79 -3956.28,6742.87 -3953.17,6743.89L-3810.63,6790.65C-3809.63,6790.98 -3808.69,6791.47 -3807.88,6792.05C-3806.9,6792.75 -3806.1,6793.59 -3805.59,6794.47C-3805.29,6794.99 -3805.09,6795.52 -3805.02,6796.03C-3805,6796.18 -3804.99,6796.32 -3805,6796.46L-3805,6903.13C-3805,6904.59 -3806.17,6905.55 -3808.03,6905.61L-3874.9,6907.81C-3876.65,6907.87 -3878.74,6907.13 -3880.42,6905.87C-3882.1,6904.61 -3883.12,6903 -3883.12,6901.63L-3883.12,6880.64L-3953.17,6857.66C-3956.28,6856.64 -3958.8,6854.06 -3958.8,6851.89L-3958.8,6822.74C-3958.8,6820.58 -3956.28,6819.65 -3953.17,6820.67C-3950.07,6821.69 -3947.54,6824.28 -3947.54,6826.44L-3947.54,6851.67ZM-3816.26,6799.3L-3871.87,6802.04C-3871.87,6809.94 -3871.87,6898.88 -3871.87,6898.88L-3816.26,6897.06L-3816.26,6799.3ZM-3823.38,6858.79C-3823.38,6860.59 -3823.72,6862.3 -3824.41,6863.93L-3824.41,6863.94C-3825.11,6865.56 -3826.02,6866.99 -3827.14,6868.25C-3827.14,6868.25 -3827.14,6868.25 -3827.15,6868.25C-3828.29,6869.51 -3829.64,6870.54 -3831.18,6871.37C-3831.18,6871.37 -3831.18,6871.37 -3831.18,6871.37C-3832.59,6872.1 -3834.09,6872.61 -3835.69,6872.89L-3835.69,6880.01C-3835.69,6880.38 -3835.99,6880.61 -3836.46,6880.61L-3844.43,6880.61C-3844.85,6880.61 -3845.34,6880.43 -3845.73,6880.13C-3846.12,6879.83 -3846.36,6879.45 -3846.36,6879.13L-3846.36,6872.77C-3850.34,6871.87 -3853.22,6870.04 -3855.07,6867.39C-3856.97,6864.67 -3858.08,6861.21 -3858.33,6857.01C-3858.35,6856.62 -3858.05,6856.37 -3857.56,6856.37L-3848.18,6856.37C-3847.79,6856.37 -3847.34,6856.53 -3846.97,6856.79C-3846.59,6857.05 -3846.33,6857.39 -3846.26,6857.71C-3845.91,6859.41 -3845.32,6860.8 -3844.36,6861.86C-3843.62,6862.67 -3842.55,6862.94 -3841.14,6862.94C-3839.96,6862.94 -3838.83,6862.64 -3837.72,6862.1C-3836.67,6861.56 -3836.16,6860.63 -3836.16,6859.31C-3836.16,6858.39 -3836.39,6857.65 -3837.13,6857.08C-3837.13,6857.08 -3837.13,6857.08 -3837.14,6857.08C-3838.02,6856.38 -3839.15,6855.79 -3840.51,6855.26C-3842.09,6854.64 -3843.81,6854 -3845.65,6853.35C-3845.65,6853.35 -3845.65,6853.35 -3845.66,6853.35C-3847.71,6852.62 -3849.61,6851.7 -3851.37,6850.58C-3853.21,6849.42 -3854.75,6847.92 -3855.97,6846.07C-3855.98,6846.07 -3855.98,6846.07 -3855.98,6846.07C-3857.12,6844.32 -3857.74,6842.05 -3857.74,6839.26C-3857.74,6835.49 -3856.57,6832.54 -3854.23,6830.41C-3852.03,6828.41 -3849.41,6826.96 -3846.36,6826.05L-3846.36,6820.03C-3846.36,6819.66 -3846.06,6819.43 -3845.59,6819.43L-3837.62,6819.43C-3837.2,6819.43 -3836.71,6819.61 -3836.32,6819.91C-3835.93,6820.21 -3835.69,6820.59 -3835.69,6820.91L-3835.69,6826.49C-3832.05,6827.67 -3829.41,6829.38 -3827.74,6831.54C-3825.99,6833.79 -3825.02,6837.06 -3825.02,6841.31C-3825.02,6841.68 -3825.32,6841.91 -3825.79,6841.91L-3834.23,6841.91C-3834.61,6841.91 -3835.06,6841.76 -3835.43,6841.5C-3835.8,6841.25 -3836.06,6840.91 -3836.14,6840.6C-3836.55,6838.88 -3837.06,6837.6 -3837.75,6836.77C-3837.89,6836.61 -3838.11,6836.52 -3838.38,6836.44C-3839,6836.24 -3839.76,6836.17 -3840.68,6836.17C-3841.73,6836.17 -3842.82,6836.46 -3843.99,6837.02C-3843.99,6837.02 -3843.99,6837.02 -3844,6837.02C-3845.11,6837.54 -3845.66,6838.39 -3845.66,6839.55C-3845.66,6840.07 -3845.33,6840.53 -3844.67,6840.94C-3843.53,6841.64 -3842.62,6842.18 -3841.95,6842.56C-3840.31,6843.38 -3838.51,6844.16 -3836.58,6844.9C-3834.4,6845.74 -3832.37,6846.74 -3830.48,6847.91C-3830.48,6847.91 -3830.47,6847.92 -3830.47,6847.92C-3828.49,6849.15 -3826.83,6850.62 -3825.47,6852.33C-3824.12,6854.03 -3823.38,6856.18 -3823.38,6858.79ZM-3936.51,6796.64L-3936.51,6789.6C-3936.51,6788.02 -3935.14,6787.04 -3933.04,6787.12C-3930.93,6787.2 -3928.51,6788.33 -3926.9,6789.98L-3898.39,6819.19C-3896.19,6821.44 -3896.19,6823.92 -3898.39,6824.73L-3927.99,6835.62C-3929.6,6836.21 -3932.03,6835.75 -3934.13,6834.46C-3936.23,6833.16 -3937.6,6831.28 -3937.6,6829.7L-3937.6,6822.57L-3982.36,6807.88C-3985.47,6806.86 -3987.99,6804.28 -3987.99,6802.12L-3987.99,6783.67C-3987.99,6781.51 -3985.47,6780.58 -3982.36,6781.6L-3964.45,6787.48L-3936.51,6796.64ZM-3910.33,6818.04L-3925.25,6802.75L-3925.25,6804.25C-3925.25,6806.42 -3927.77,6807.34 -3930.88,6806.32L-3976.73,6791.28C-3976.73,6791.28 -3976.73,6801.89 -3976.73,6801.89L-3931.97,6816.58C-3928.87,6817.6 -3926.35,6820.18 -3926.35,6822.34L-3926.35,6823.93L-3910.33,6818.04Z" style="fill:rgb(73,82,99);"/>
        </g>
    </g>
</svg>
