<?xml version="1.0" encoding="UTF-8" standalone="no"?>
<!DOCTYPE svg PUBLIC "-//W3C//DTD SVG 1.1//EN" "http://www.w3.org/Graphics/SVG/1.1/DTD/svg11.dtd">
<svg width="100%" height="100%" viewBox="0 0 1105 1105" version="1.1" xmlns="http://www.w3.org/2000/svg" xmlnsxlink="http://www.w3.org/1999/xlink" xml:space="preserve" xmlnsserif="http://www.serif.com/" style="fill-rule:evenodd;clip-rule:evenodd;stroke-linejoin:round;stroke-miterlimit:2;">
    <g transform="matrix(1,0,0,1,-12559.3,-9839)">
        <g transform="matrix(1.21402,-0.63588,0.63588,1.21402,-4313.09,14334)">
            <path d="M12784.9,2993.89C12981.9,3097.1 13058.1,3340.88 12954.9,3537.93C12851.7,3734.99 12607.9,3811.17 12410.8,3707.96C12213.8,3604.75 12137.6,3360.97 12240.8,3163.92C12344,2966.87 12587.8,2890.68 12784.9,2993.89ZM12762.3,3037.03C12589,2946.28 12374.7,3013.27 12283.9,3186.51C12193.2,3359.76 12260.2,3574.08 12433.4,3664.83C12606.7,3755.57 12821,3688.59 12911.7,3515.34C13002.5,3342.1 12935.5,3127.77 12762.3,3037.03ZM12894.2,3303.6C12907.6,3301.96 12919.7,3311.45 12921.4,3324.79C12923,3338.12 12913.5,3350.29 12900.2,3351.93L12838.7,3359.52C12825.3,3361.17 12813.2,3351.68 12811.5,3338.34C12809.9,3325 12819.4,3312.84 12832.7,3311.19L12894.2,3303.6ZM12866.9,3464.36C12878.8,3470.59 12883.4,3485.32 12877.2,3497.22C12870.9,3509.13 12856.2,3513.73 12844.3,3507.49L12789.4,3478.73C12777.5,3472.49 12772.9,3457.77 12779.1,3445.86C12785.3,3433.96 12800.1,3429.36 12812,3435.59L12866.9,3464.36ZM12837.6,3161.24C12848.9,3153.99 12864,3157.28 12871.3,3168.58C12878.5,3179.89 12875.2,3194.97 12863.9,3202.22L12811.8,3235.71C12800.5,3242.97 12785.4,3239.68 12778.1,3228.37C12770.9,3217.07 12774.1,3201.99 12785.5,3194.73L12837.6,3161.24ZM12325.1,3235.56C12313.2,3229.33 12308.6,3214.6 12314.8,3202.7C12321.1,3190.79 12335.8,3186.19 12347.7,3192.43L12402.6,3221.19C12414.5,3227.43 12419.1,3242.16 12412.9,3254.06C12406.7,3265.96 12391.9,3270.57 12380,3264.33L12325.1,3235.56ZM12414,3102.9C12407.7,3091 12412.3,3076.27 12424.2,3070.03C12436.1,3063.78 12450.8,3068.38 12457.1,3080.28L12485.9,3135.18C12492.1,3147.08 12487.5,3161.81 12475.6,3168.05C12463.7,3174.3 12449,3169.7 12442.8,3157.8L12414,3102.9ZM12791.4,3534.31C12800.7,3524.55 12816.1,3524.13 12825.9,3533.37C12835.6,3542.61 12836,3558.03 12826.8,3567.79C12732.2,3667.66 12579.3,3697.17 12451.5,3630.24C12323.8,3563.3 12261,3420.8 12289.2,3286.2C12292,3273.05 12304.9,3264.61 12318,3267.37C12331.2,3270.13 12339.6,3283.05 12336.9,3296.2C12313,3410.01 12366.1,3530.5 12474.1,3587.1C12582.2,3643.7 12711.5,3618.75 12791.4,3534.31ZM12583.1,3172C12583.1,3172 12653.4,3376.67 12653.4,3416C12653.4,3467.52 12611.6,3509.35 12560.1,3509.35C12508.6,3509.35 12466.7,3467.52 12466.7,3416C12466.7,3376.67 12537.1,3172 12537.1,3172C12537.1,3171.99 12537.1,3171.99 12537.1,3171.99C12540.5,3162.2 12549.7,3155.65 12560.1,3155.65C12570.4,3155.65 12579.7,3162.2 12583.1,3171.99C12583.1,3171.99 12583.1,3171.99 12583.1,3172ZM12560.1,3255.37C12540.5,3314.14 12515.4,3393.61 12515.4,3416C12515.4,3440.64 12535.4,3460.65 12560.1,3460.65C12584.7,3460.65 12604.7,3440.64 12604.7,3416C12604.7,3393.61 12579.6,3314.14 12560.1,3255.37ZM12557.2,3049.46C12556.7,3036.03 12567.2,3024.74 12580.7,3024.27C12594.1,3023.8 12605.4,3034.32 12605.9,3047.75L12608,3109.71C12608.5,3123.14 12598,3134.43 12584.6,3134.9C12571.1,3135.37 12559.9,3124.85 12559.4,3111.42L12557.2,3049.46ZM12713,3069.98C12719.2,3058.08 12734,3053.47 12745.9,3059.71C12757.8,3065.95 12762.4,3080.67 12756.1,3092.58L12727.4,3147.5C12721.1,3159.4 12706.4,3164 12694.5,3157.77C12682.6,3151.53 12678,3136.81 12684.2,3124.9L12713,3069.98Z" style="fill:rgb(73,82,99);"/>
        </g>
    </g>
</svg>
