<?xml version="1.0" encoding="UTF-8" standalone="no"?>
<!DOCTYPE svg PUBLIC "-//W3C//DTD SVG 1.1//EN" "http://www.w3.org/Graphics/SVG/1.1/DTD/svg11.dtd">
<svg width="100%" height="100%" viewBox="0 0 1261 959" version="1.1" xmlns="http://www.w3.org/2000/svg" xmlnsxlink="http://www.w3.org/1999/xlink" xml:space="preserve" xmlnsserif="http://www.serif.com/" style="fill-rule:evenodd;clip-rule:evenodd;stroke-linejoin:round;stroke-miterlimit:2;">
    <g transform="matrix(1,0,0,1,-12481.3,-8552.13)">
        <g transform="matrix(15.1926,0,0,15.1927,71473.3,-95038.6)">
            <path d="M-3864.29,6872.99L-3864.29,6879.57C-3864.29,6880.38 -3864.78,6881.1 -3865.52,6881.41C-3866.27,6881.72 -3867.12,6881.55 -3867.69,6880.98L-3882.35,6866.33C-3883.12,6865.55 -3883.12,6864.29 -3882.35,6863.51L-3867.6,6848.77C-3867.03,6848.19 -3866.17,6848.03 -3865.43,6848.33C-3864.68,6848.64 -3864.2,6849.37 -3864.2,6850.18L-3864.2,6856.72L-3861.95,6856.72C-3860.91,6856.72 -3860.05,6857.51 -3859.96,6858.53C-3859.58,6862.74 -3858.38,6866.22 -3856.44,6869.01C-3856.26,6869.26 -3856.08,6869.51 -3855.89,6869.74C-3855.4,6870.34 -3855.31,6871.16 -3855.64,6871.86C-3855.97,6872.55 -3856.67,6872.99 -3857.43,6872.99L-3864.29,6872.99ZM-3878.12,6864.92L-3868.28,6874.76L-3868.28,6871C-3868.28,6869.9 -3867.39,6869 -3866.28,6869L-3861.1,6869C-3862.37,6866.6 -3863.26,6863.84 -3863.72,6860.7L-3866.19,6860.7C-3867.29,6860.7 -3868.19,6859.81 -3868.19,6858.71L-3868.19,6854.99L-3878.12,6864.92ZM-3818.59,6843.29L-3821.34,6843.29C-3821.89,6843.29 -3822.43,6843.05 -3822.8,6842.64C-3823.18,6842.23 -3823.37,6841.68 -3823.32,6841.13C-3823.32,6841.04 -3823.31,6840.96 -3823.31,6840.87C-3823.31,6836.26 -3824.34,6832.71 -3826.18,6830.18C-3826.61,6829.57 -3826.68,6828.77 -3826.34,6828.1C-3825.99,6827.43 -3825.31,6827.01 -3824.56,6827.01L-3818.68,6827.01L-3818.68,6820.47C-3818.68,6819.66 -3818.19,6818.94 -3817.45,6818.63C-3816.7,6818.32 -3815.84,6818.49 -3815.27,6819.06L-3800.53,6833.8C-3799.75,6834.58 -3799.75,6835.85 -3800.53,6836.62L-3815.18,6851.28C-3815.75,6851.85 -3816.61,6852.02 -3817.35,6851.71C-3818.1,6851.4 -3818.59,6850.67 -3818.59,6849.86L-3818.59,6843.29ZM-3819.36,6839.3L-3816.59,6839.3C-3815.49,6839.3 -3814.6,6840.19 -3814.6,6841.29L-3814.6,6845.05L-3804.76,6835.21L-3814.69,6825.28L-3814.69,6829.01C-3814.69,6830.11 -3815.58,6831 -3816.68,6831C-3816.68,6831 -3821.16,6831 -3821.16,6831C-3820.15,6833.31 -3819.52,6836.07 -3819.36,6839.3ZM-3822.74,6858.35C-3822.74,6860.34 -3823.12,6862.24 -3823.88,6864.05C-3823.89,6864.05 -3823.89,6864.05 -3823.89,6864.05C-3824.64,6865.83 -3825.64,6867.39 -3826.87,6868.77C-3826.88,6868.77 -3826.88,6868.78 -3826.89,6868.78C-3828.14,6870.16 -3829.61,6871.29 -3831.29,6872.19C-3831.3,6872.19 -3831.3,6872.19 -3831.31,6872.2C-3832.49,6872.82 -3833.74,6873.29 -3835.05,6873.6L-3835.05,6879.57C-3835.05,6880.67 -3835.94,6881.56 -3837.04,6881.56L-3845.01,6881.56C-3846.11,6881.56 -3847,6880.67 -3847,6879.57C-3847,6879.57 -3847,6873.72 -3847,6873.72C-3850.91,6872.82 -3853.74,6871.02 -3855.57,6868.4C-3857.55,6865.55 -3858.7,6861.94 -3858.97,6857.53C-3859,6856.98 -3858.81,6856.44 -3858.43,6856.04C-3858.06,6855.64 -3857.53,6855.42 -3856.98,6855.42L-3847.6,6855.42C-3846.65,6855.42 -3845.84,6856.08 -3845.65,6857.01C-3845.33,6858.57 -3844.76,6859.85 -3843.89,6860.82C-3843.13,6861.65 -3842.01,6861.99 -3840.56,6861.99C-3839.54,6861.99 -3838.55,6861.73 -3837.58,6861.26C-3837.02,6860.97 -3836.8,6860.45 -3836.8,6859.75C-3836.8,6859.08 -3837.08,6858.53 -3837.62,6858.11C-3837.62,6858.11 -3837.62,6858.1 -3837.63,6858.1C-3838.54,6857.39 -3839.71,6856.77 -3841.11,6856.22C-3842.7,6855.59 -3844.42,6854.96 -3846.26,6854.31C-3846.26,6854.31 -3846.27,6854.31 -3846.27,6854.31C-3848.29,6853.59 -3850.17,6852.68 -3851.89,6851.58C-3853.73,6850.42 -3855.25,6848.92 -3856.47,6847.08C-3856.47,6847.08 -3856.48,6847.07 -3856.48,6847.07C-3857.71,6845.18 -3858.38,6842.73 -3858.38,6839.7C-3858.38,6835.47 -3857.02,6832.18 -3854.39,6829.79C-3852.29,6827.87 -3849.83,6826.42 -3847,6825.45L-3847,6820.47C-3847,6819.37 -3846.11,6818.48 -3845.01,6818.48L-3837.04,6818.48C-3835.94,6818.48 -3835.05,6819.37 -3835.05,6820.47L-3835.05,6825.55C-3831.48,6826.7 -3828.9,6828.39 -3827.26,6830.51C-3825.39,6832.9 -3824.38,6836.35 -3824.38,6840.87C-3824.38,6841.97 -3825.27,6842.86 -3826.37,6842.86L-3834.81,6842.86C-3835.73,6842.86 -3836.53,6842.23 -3836.75,6841.34C-3837.13,6839.76 -3837.59,6838.57 -3838.22,6837.8C-3838.46,6837.53 -3838.82,6837.37 -3839.29,6837.27C-3839.83,6837.16 -3840.49,6837.12 -3841.26,6837.12C-3842.17,6837.12 -3843.13,6837.38 -3844.15,6837.87C-3844.16,6837.87 -3844.17,6837.88 -3844.17,6837.88C-3844.72,6838.13 -3845.02,6838.54 -3845.02,6839.11C-3845.02,6839.25 -3844.94,6839.36 -3844.82,6839.46C-3844.66,6839.62 -3844.42,6839.77 -3844.14,6839.94C-3842.99,6840.65 -3842.07,6841.2 -3841.39,6841.58C-3839.73,6842.4 -3837.93,6843.19 -3835.97,6843.94C-3833.83,6844.77 -3831.81,6845.76 -3829.95,6846.91C-3829.95,6846.92 -3829.95,6846.92 -3829.94,6846.92C-3827.98,6848.14 -3826.34,6849.61 -3824.99,6851.3C-3823.51,6853.16 -3822.74,6855.49 -3822.74,6858.35ZM-3827.85,6853.91C-3827.78,6853.91 -3827.71,6853.88 -3827.65,6853.84C-3827.68,6853.8 -3827.71,6853.77 -3827.74,6853.73C-3827.8,6853.83 -3827.85,6853.91 -3827.85,6853.91ZM-3827.85,6853.91L-3828.11,6853.78L-3827.85,6853.91L-3828.11,6853.78C-3829.18,6852.44 -3830.49,6851.28 -3832.06,6850.3C-3833.71,6849.28 -3835.5,6848.39 -3837.41,6847.66C-3839.5,6846.86 -3841.44,6846.01 -3843.21,6845.12C-3843.24,6845.11 -3843.26,6845.1 -3843.29,6845.08C-3844.01,6844.68 -3844.99,6844.1 -3846.23,6843.34C-3846.23,6843.34 -3846.24,6843.34 -3846.24,6843.33C-3848.2,6842.12 -3849,6840.63 -3849,6839.11C-3849,6836.89 -3847.98,6835.25 -3845.86,6834.27C-3844.24,6833.5 -3842.71,6833.14 -3841.26,6833.14C-3838.21,6833.14 -3836.22,6833.99 -3835.16,6835.25C-3835.16,6835.25 -3835.16,6835.25 -3835.16,6835.26C-3834.44,6836.11 -3833.81,6837.32 -3833.3,6838.88L-3828.44,6838.88C-3828.65,6836.39 -3829.28,6834.41 -3830.4,6832.95C-3831.82,6831.13 -3834.24,6829.84 -3837.55,6828.97C-3838.42,6828.74 -3839.03,6827.94 -3839.03,6827.04L-3839.03,6822.46L-3843.02,6822.46L-3843.02,6826.92C-3843.02,6827.82 -3843.62,6828.61 -3844.48,6828.84C-3847.29,6829.61 -3849.7,6830.91 -3851.71,6832.73C-3853.54,6834.4 -3854.4,6836.75 -3854.4,6839.7C-3854.4,6841.82 -3854.01,6843.56 -3853.14,6844.89C-3852.24,6846.24 -3851.11,6847.36 -3849.76,6848.21C-3849.75,6848.22 -3849.75,6848.22 -3849.75,6848.22C-3848.27,6849.16 -3846.67,6849.93 -3844.93,6850.55C-3843.04,6851.22 -3841.28,6851.87 -3839.65,6852.5C-3839.65,6852.5 -3839.65,6852.51 -3839.65,6852.51C-3837.85,6853.21 -3836.36,6854.03 -3835.18,6854.96C-3833.6,6856.18 -3832.82,6857.79 -3832.82,6859.75C-3832.82,6862.19 -3833.85,6863.84 -3835.79,6864.82C-3835.8,6864.82 -3835.8,6864.82 -3835.8,6864.83C-3837.34,6865.59 -3838.93,6865.97 -3840.56,6865.97C-3843.33,6865.97 -3845.4,6865.09 -3846.85,6863.5C-3846.85,6863.5 -3846.85,6863.5 -3846.85,6863.49C-3847.85,6862.39 -3848.62,6861.03 -3849.14,6859.4C-3850.09,6859.4 -3853.61,6859.4 -3854.78,6859.4C-3854.39,6862.04 -3853.58,6864.28 -3852.3,6866.12C-3850.77,6868.3 -3848.22,6869.57 -3844.71,6870.1C-3843.74,6870.25 -3843.02,6871.09 -3843.02,6872.07L-3843.02,6877.58L-3839.03,6877.58L-3839.03,6871.95C-3839.03,6870.95 -3838.29,6870.11 -3837.3,6869.97C-3835.82,6869.78 -3834.45,6869.34 -3833.16,6868.67C-3831.89,6867.99 -3830.78,6867.14 -3829.84,6866.1C-3828.89,6865.05 -3828.14,6863.85 -3827.56,6862.49C-3827,6861.18 -3826.72,6859.8 -3826.72,6858.35C-3826.72,6856.51 -3827.15,6854.98 -3828.11,6853.78C-3828.05,6853.86 -3827.95,6853.91 -3827.85,6853.91Z" style="fill:rgb(73,82,99);"/>
        </g>
    </g>
</svg>
