<?xml version="1.0" encoding="UTF-8" standalone="no"?>
<!DOCTYPE svg PUBLIC "-//W3C//DTD SVG 1.1//EN" "http://www.w3.org/Graphics/SVG/1.1/DTD/svg11.dtd">
<svg width="100%" height="100%" viewBox="0 0 1117 1088" version="1.1" xmlns="http://www.w3.org/2000/svg" xmlnsxlink="http://www.w3.org/1999/xlink" xml:space="preserve" xmlnsserif="http://www.serif.com/" style="fill-rule:evenodd;clip-rule:evenodd;stroke-linejoin:round;stroke-miterlimit:2;">
    <g transform="matrix(1,0,0,1,-13967.9,-8487.76)">
        <g transform="matrix(0.947772,0,0,0.947772,2634.65,2184.02)">
            <path d="M12404.8,6928.71L12324.9,6928.71C12313.5,6928.71 12303.2,6921.84 12298.8,6911.29C12294.4,6900.74 12296.9,6888.61 12304.9,6880.54L12500.7,6684.73C12511.8,6673.71 12529.6,6673.71 12540.6,6684.73L12744,6888.05C12752,6896.12 12754.4,6908.25 12750.1,6918.8C12745.7,6929.35 12735.4,6936.22 12724,6936.22L12643.2,6936.22L12643.2,7154.16C12643.2,7162.29 12639.7,7170.03 12633.6,7175.39C12607.8,7197.97 12581.5,7222.94 12557.6,7249.07C12552.3,7254.93 12544.7,7258.26 12536.8,7258.26L12520.1,7258.26C12511,7258.26 12502.5,7253.89 12497.2,7246.52C12482.3,7225.82 12455.1,7192.23 12414.6,7157.47C12408.4,7152.11 12404.8,7144.28 12404.8,7136.05L12404.8,6928.71ZM12520.8,6737.2C12520.7,6737.16 12520.7,6737.13 12520.7,6737.13C12520.7,6737.13 12519.4,6738.46 12517,6740.85C12517,6740.88 12517,6740.89 12517,6740.91C12517,6740.91 12520.7,6742.41 12520.7,6742.41C12520.7,6742.41 12520.5,6739.76 12520.8,6737.2ZM12520.7,6744.6L12393,6872.27L12433,6872.27C12448.6,6872.27 12461.2,6884.9 12461.2,6900.49L12461.2,7123.26C12491.2,7150.16 12514,7175.97 12529.9,7196.14C12548.2,7177.04 12567.5,7158.66 12586.8,7141.46L12586.8,6908C12586.8,6892.41 12599.4,6879.78 12615,6879.78L12655.9,6879.78L12521.1,6745.01L12520.7,6744.6ZM12857.7,7344.67C12819.7,7367.15 12748.7,7416.84 12704.6,7495.76C12641.3,7609.21 12652.2,7768.14 12652.2,7768.14L12652.2,7768.16C12652.7,7775.94 12649.9,7783.6 12644.6,7789.29C12639.3,7794.99 12631.8,7798.22 12624,7798.22L12412,7798.22C12397.2,7798.22 12385,7786.84 12383.9,7772.11C12383.7,7770.65 12369.7,7586.76 12506.7,7354.66C12567.5,7251.68 12708.4,7147.66 12758.5,7112.69L12729.2,7024.92C12725.7,7014.48 12728.7,7002.96 12736.7,6995.42C12744.7,6987.89 12756.4,6985.71 12766.6,6989.85L13052.6,7105.85C13059.9,7108.82 13065.7,7114.75 13068.5,7122.18C13071.2,7129.6 13070.7,7137.84 13067.1,7144.89L12933.1,7405.89C12928.1,7415.69 12917.8,7421.67 12906.8,7421.19C12895.8,7420.72 12886.1,7413.88 12881.9,7403.69C12881.9,7403.69 12864.2,7360.38 12857.7,7344.67ZM12856.1,7339.51C12857.4,7340.4 12860.3,7342.34 12860.3,7342.34C12860.3,7342.34 12860.6,7340.83 12861.2,7339.09C12860.6,7337.79 12860.3,7337.06 12860.3,7337.06C12859,7337.84 12857.6,7338.65 12856.1,7339.51ZM12555.3,7383.34C12458.2,7547.96 12442.2,7686 12440.1,7741.78C12440.1,7741.78 12595.2,7741.78 12595.2,7741.78C12595.4,7685.9 12602.5,7562.93 12655.4,7468.24C12726.9,7340.19 12860.2,7279.35 12860.3,7279.32C12867.3,7276.14 12875.3,7275.94 12882.4,7278.76C12889.5,7281.59 12895.2,7287.21 12898.1,7294.32C12898.1,7294.32 12910.9,7325.56 12910.9,7325.56C12910.9,7325.56 13002.8,7146.56 13002.8,7146.56L12802.1,7065.17L12818.8,7115.08C12822.8,7127.26 12818.2,7140.65 12807.4,7147.65L12807.4,7147.66C12807.4,7147.66 12624.7,7265.73 12555.3,7383.34ZM12352.7,7531.42C12291.2,7427.91 12204.4,7368.23 12163.3,7344.12L12129.8,7405.53C12124.6,7415.01 12114.5,7420.7 12103.7,7420.19C12092.9,7419.68 12083.3,7413.06 12079.1,7403.14L11960.1,7126.14C11957,7118.89 11957,7110.66 11960.2,7103.46C11963.5,7096.26 11969.6,7090.74 11977,7088.24L12273,6989.24C12283.5,6985.73 12295.1,6988.67 12302.6,6996.75C12310.2,7004.84 12312.3,7016.58 12308.1,7026.8C12308.1,7026.8 12278,7099.49 12278,7099.49C12436.3,7168.44 12507.4,7291.83 12507.4,7291.82C12512.2,7300.05 12512.5,7310.15 12508.2,7318.67C12459.8,7380.52 12425.9,7451.78 12402.2,7529.67C12397.6,7538.88 12388.3,7544.84 12378,7545.2C12367.7,7545.57 12358,7540.28 12352.7,7531.42ZM12108,7327.59L12127.2,7292.47C12134.3,7279.45 12150.3,7274.17 12163.8,7280.36C12164.4,7280.63 12282.6,7334.91 12373.7,7460.69C12378.8,7425.64 12428.3,7325.62 12449.6,7309.65L12450.5,7307.87C12427.7,7275.48 12357.3,7188.27 12231.2,7141.46C12224,7138.79 12218.2,7133.31 12215.1,7126.28C12212.1,7119.26 12212,7111.28 12214.9,7104.2L12232.2,7062.4C12232.2,7062.4 12024,7132.04 12024,7132.04L12108,7327.59ZM13079.8,6829.34C13079.8,6813.77 13092.4,6801.12 13108,6801.12C13123.6,6801.12 13136.2,6813.77 13136.2,6829.34C13136.2,6927.7 13056.4,7007.56 12958,7007.56C12859.6,7007.56 12779.8,6927.7 12779.8,6829.34C12779.8,6730.98 12859.6,6651.12 12958,6651.12C12973.6,6651.12 12986.2,6663.77 12986.2,6679.34C12986.2,6694.92 12973.6,6707.56 12958,6707.56C12890.8,6707.56 12836.2,6762.13 12836.2,6829.34C12836.2,6896.55 12890.8,6951.12 12958,6951.12C13025.2,6951.12 13079.8,6896.55 13079.8,6829.34ZM12869.8,6851.65C12858.1,6841.45 12856.8,6823.62 12867,6811.84C12877.2,6800.07 12895,6798.78 12906.8,6808.98L12949.3,6843.44L13078.9,6681.07C13088.7,6668.9 13106.4,6666.91 13118.6,6676.63C13130.8,6686.35 13132.8,6704.12 13123.1,6716.3L12975.1,6901.61C12970.3,6907.61 12963.2,6911.4 12955.6,6912.1C12947.9,6912.81 12940.3,6910.36 12934.5,6905.34L12869.8,6851.65Z" style="fill:rgb(73,82,99);"/>
        </g>
    </g>
</svg>
