<?xml version="1.0" encoding="UTF-8" standalone="no"?>
<!DOCTYPE svg PUBLIC "-//W3C//DTD SVG 1.1//EN" "http://www.w3.org/Graphics/SVG/1.1/DTD/svg11.dtd">
<svg width="100%" height="100%" viewBox="0 0 1136 1100" version="1.1" xmlns="http://www.w3.org/2000/svg" xmlnsxlink="http://www.w3.org/1999/xlink" xml:space="preserve" xmlnsserif="http://www.serif.com/" style="fill-rule:evenodd;clip-rule:evenodd;stroke-linejoin:round;stroke-miterlimit:2;">
    <g transform="matrix(1,0,0,1,-13943.8,-9801.42)">
        <g transform="matrix(1.29745,0,0,1.29745,20279.6,1401.13)">
            <path d="M-4549.9,6855.44C-4546.94,6853.84 -4543.88,6852.39 -4540.74,6851.11L-4317.59,6745.66C-4307.63,6740.95 -4295.77,6743.38 -4288.46,6751.62L-4288.46,6751.62C-4281.17,6759.87 -4280.18,6771.93 -4286.03,6781.24L-4424.01,7000.4C-4425.53,7002.82 -4427.41,7004.89 -4429.52,7006.57C-4435.31,7013.2 -4441.99,7019.05 -4449.34,7023.92C-4450.98,7025.34 -4452.84,7026.55 -4454.9,7027.53L-4454.91,7027.53C-4454.91,7027.53 -4457.09,7028.56 -4457.1,7028.56C-4460.06,7030.16 -4463.12,7031.61 -4466.26,7032.89L-4689.41,7138.34C-4699.37,7143.05 -4711.23,7140.62 -4718.54,7132.38L-4718.54,7132.38C-4725.83,7124.13 -4726.82,7112.07 -4720.97,7102.76L-4582.99,6883.6C-4581.47,6881.18 -4579.59,6879.11 -4577.48,6877.43C-4571.69,6870.8 -4565.01,6864.95 -4557.66,6860.08C-4556.02,6858.66 -4554.16,6857.45 -4552.1,6856.47L-4552.09,6856.47C-4552.09,6856.47 -4549.91,6855.44 -4549.9,6855.44ZM-4527.36,6899.57L-4527.37,6899.57C-4542.17,6907.93 -4552.18,6923.81 -4552.18,6942C-4552.18,6968.87 -4530.37,6990.68 -4503.5,6990.68C-4497.32,6990.68 -4491.4,6989.52 -4485.96,6987.42C-4485.96,6987.42 -4479.64,6984.43 -4479.63,6984.43C-4464.83,6976.07 -4454.82,6960.19 -4454.82,6942C-4454.82,6915.13 -4476.63,6893.32 -4503.5,6893.32C-4509.68,6893.32 -4515.6,6894.48 -4521.04,6896.58L-4527.36,6899.57ZM-4590.24,6988.09L-4633.8,7057.28C-4633.8,7057.28 -4559.93,7022.37 -4559.93,7022.37C-4572.53,7013.51 -4582.95,7001.76 -4590.24,6988.09ZM-4416.76,6895.91L-4373.2,6826.72C-4373.2,6826.72 -4447.07,6861.63 -4447.07,6861.63C-4434.47,6870.49 -4424.05,6882.25 -4416.76,6895.91ZM-4436.16,6787.51C-4448.15,6760.1 -4454.82,6729.82 -4454.82,6698C-4454.82,6574.62 -4354.65,6474.44 -4231.26,6474.44C-4107.88,6474.44 -4007.7,6574.62 -4007.7,6698C-4007.7,6821.38 -4107.88,6921.56 -4231.26,6921.56C-4271.13,6921.56 -4308.58,6911.1 -4341.01,6892.78C-4342.14,6892.14 -4342.96,6891.06 -4343.28,6889.8C-4343.6,6888.53 -4343.39,6887.19 -4342.69,6886.09L-4321.35,6852.19C-4320.01,6850.05 -4317.23,6849.34 -4315.02,6850.55C-4290.16,6864.24 -4261.62,6872.02 -4231.26,6872.02C-4135.22,6872.02 -4057.24,6794.05 -4057.24,6698C-4057.24,6601.95 -4135.22,6523.98 -4231.26,6523.98C-4327.31,6523.98 -4405.28,6601.95 -4405.28,6698C-4405.28,6722.36 -4400.27,6745.56 -4391.22,6766.62C-4390.21,6768.98 -4391.24,6771.71 -4393.56,6772.81L-4429.75,6789.91C-4430.92,6790.46 -4432.26,6790.52 -4433.46,6790.06C-4434.67,6789.61 -4435.64,6788.69 -4436.16,6787.51ZM-4287.76,6731.15L-4265.87,6731.15C-4263.6,6731.15 -4261.64,6732.76 -4261.19,6734.99C-4259.38,6744.07 -4255.99,6751.47 -4250.9,6757.1C-4246.11,6762.41 -4239,6764.86 -4229.76,6764.86C-4223.67,6764.86 -4217.76,6763.41 -4212.03,6760.55C-4207.27,6758.16 -4205.04,6753.91 -4205.04,6747.96C-4205.04,6742.69 -4207.13,6738.43 -4211.31,6735.18L-4211.32,6735.17C-4216.42,6731.2 -4222.85,6727.73 -4230.59,6724.71L-4230.59,6724.71C-4238.77,6721.52 -4247.65,6718.23 -4257.23,6714.83C-4267.21,6711.3 -4276.45,6706.82 -4284.98,6701.43L-4284.99,6701.42C-4293.78,6695.84 -4301.07,6688.66 -4306.87,6679.85C-4312.74,6670.96 -4315.79,6659.36 -4315.79,6645.03C-4315.79,6625.05 -4309.46,6609.47 -4297.07,6598.17C-4285.94,6588.01 -4272.71,6580.56 -4257.4,6575.85L-4257.4,6546.32C-4257.4,6543.69 -4255.26,6541.55 -4252.63,6541.55L-4211.7,6541.55C-4209.07,6541.55 -4206.93,6543.69 -4206.93,6546.32C-4206.93,6546.32 -4206.93,6576.41 -4206.93,6576.41C-4187.9,6581.97 -4174.24,6590.33 -4165.81,6601.17C-4156.84,6612.7 -4152.16,6629.29 -4152.16,6651.05C-4152.16,6653.68 -4154.3,6655.82 -4156.93,6655.82L-4200.27,6655.82C-4202.48,6655.82 -4204.39,6654.3 -4204.91,6652.16C-4207.09,6643.03 -4209.9,6636.22 -4213.56,6631.83L-4213.57,6631.83C-4216.92,6627.79 -4223.63,6626.33 -4233.37,6626.33C-4238.76,6626.33 -4244.49,6627.81 -4250.6,6630.68C-4255.56,6633.02 -4258.09,6636.77 -4258.09,6642.02C-4258.09,6645.44 -4255.46,6648.19 -4251.04,6650.9L-4251.03,6650.9C-4244.94,6654.64 -4240.12,6657.49 -4236.56,6659.48C-4227.89,6663.81 -4218.43,6667.94 -4208.19,6671.88C-4197.46,6676 -4187.46,6680.96 -4178.18,6686.73C-4168.67,6692.65 -4160.65,6699.74 -4154.1,6707.97L-4154.1,6707.98C-4147.25,6716.59 -4143.73,6727.49 -4143.73,6740.74C-4143.73,6750.21 -4145.56,6759.26 -4149.23,6767.89C-4152.86,6776.41 -4157.65,6783.97 -4163.62,6790.58C-4169.62,6797.21 -4176.67,6802.67 -4184.8,6806.95C-4191.72,6810.59 -4199.09,6813.14 -4206.93,6814.61L-4206.93,6849.68C-4206.93,6852.31 -4209.07,6854.45 -4211.7,6854.45L-4252.63,6854.45C-4255.26,6854.45 -4257.4,6852.31 -4257.4,6849.68C-4257.4,6849.68 -4257.4,6815.19 -4257.4,6815.19C-4268.55,6813.11 -4278.02,6809.59 -4285.82,6804.73C-4286.9,6804.05 -4287.66,6802.98 -4287.95,6801.74C-4288.23,6800.51 -4288.01,6799.21 -4287.33,6798.14L-4279.34,6785.46C-4271.6,6773.16 -4272.91,6757.25 -4282.55,6746.37C-4284.81,6743.82 -4287.4,6741.69 -4290.21,6740.01C-4292.05,6738.91 -4292.93,6736.71 -4292.35,6734.65C-4291.78,6732.58 -4289.9,6731.15 -4287.76,6731.15ZM-4123.96,6928.93C-4123.8,6933.27 -4123.73,6937.62 -4123.73,6942C-4123.73,7151.6 -4293.9,7321.77 -4503.5,7321.77C-4713.1,7321.77 -4883.27,7151.6 -4883.27,6942C-4883.27,6732.4 -4713.1,6562.23 -4503.5,6562.23C-4485.02,6562.23 -4466.84,6563.56 -4449.06,6566.11C-4447.49,6566.34 -4446.14,6567.33 -4445.45,6568.76C-4444.76,6570.19 -4444.82,6571.86 -4445.62,6573.23C-4452.54,6585.08 -4458.5,6597.56 -4463.41,6610.56C-4464.18,6612.59 -4466.22,6613.85 -4468.37,6613.62C-4479.92,6612.4 -4491.64,6611.77 -4503.5,6611.77C-4685.76,6611.77 -4833.73,6759.74 -4833.73,6942C-4833.73,7124.26 -4685.76,7272.23 -4503.5,7272.23C-4321.55,7272.23 -4173.76,7124.75 -4173.27,6942.92C-4173.26,6940.74 -4171.79,6938.85 -4169.68,6938.31C-4156.2,6934.86 -4143.15,6930.3 -4130.65,6924.74C-4129.21,6924.1 -4127.53,6924.22 -4126.19,6925.06C-4124.85,6925.9 -4124.01,6927.35 -4123.96,6928.93Z" style="fill:rgb(73,82,99);"/>
        </g>
    </g>
</svg>
