<svg width="32" height="32" viewBox="0 0 32 32" fill="none" xmlns="http://www.w3.org/2000/svg">
<g clip-path="url(#clip0_1173_4284)">
<rect opacity="0.05" width="32" height="32" fill="#EE2B49"/>
<path d="M16 6.99622C19.5913 6.99622 22.5027 9.90758 22.5027 13.4989C22.5027 17.0903 19.5913 20.0016 16 20.0016C12.4086 20.0016 9.49728 17.0903 9.49728 13.4989C9.49728 9.90758 12.4086 6.99622 16 6.99622" stroke="#EE2B49" stroke-width="1.5" stroke-linecap="round" stroke-linejoin="round"/>
<path d="M10.9979 20.0017H21.0021" stroke="#EE2B49" stroke-width="1.5" stroke-linecap="round" stroke-linejoin="round"/>
<path d="M22.0034 16H23.0029C24.1079 16 25.0037 16.8958 25.0037 18.0008V23.0029C25.0037 24.1079 24.1079 25.0037 23.0029 25.0037H8.99708C7.89205 25.0037 6.99625 24.1079 6.99625 23.0029V18.0008C6.99625 16.8958 7.89205 16 8.99708 16H9.99662" stroke="#EE2B49" stroke-width="1.5" stroke-linecap="round" stroke-linejoin="round"/>
<path d="M13.9992 13.9991L16 16L18.0008 13.9991" stroke="#EE2B49" stroke-width="1.5" stroke-linecap="round" stroke-linejoin="round"/>
<path d="M16 10.9979V16" stroke="#EE2B49" stroke-width="1.5" stroke-linecap="round" stroke-linejoin="round"/>
</g>
<defs>
<clipPath id="clip0_1173_4284">
<rect width="32" height="32" rx="8" fill="white"/>
</clipPath>
</defs>
</svg>
