<svg width="32" height="32" viewBox="0 0 32 32" fill="none" xmlns="http://www.w3.org/2000/svg">
<g clip-path="url(#clip0_1173_2823)">
<rect opacity="0.05" width="32" height="32" fill="#EE2B49"/>
<path d="M25 13.5V10.5C25 9.11929 23.8807 8 22.5 8H9.5C8.11929 8 7 9.11929 7 10.5V14" stroke="#EE2B49" stroke-width="1.5" stroke-linecap="round" stroke-linejoin="round"/>
<path d="M24.9999 18.5V21.5C24.9999 22.8807 23.8807 24 22.4999 24H16.9999" stroke="#EE2B49" stroke-width="1.5" stroke-linecap="round" stroke-linejoin="round"/>
<path fill-rule="evenodd" clip-rule="evenodd" d="M23.5001 13.5H25.0001C25.5523 13.5 26.0001 13.9477 26.0001 14.5V17.5C26.0001 18.0523 25.5523 18.5 25.0001 18.5H23.5001C22.1193 18.5 21.0001 17.3807 21.0001 16V16C21.0001 14.6193 22.1193 13.5 23.5001 13.5V13.5Z" stroke="#EE2B49" stroke-width="1.5" stroke-linecap="round" stroke-linejoin="round"/>
<circle cx="10.5001" cy="20.5" r="4.5" stroke="#EE2B49" stroke-width="1.5" stroke-linecap="round" stroke-linejoin="round"/>
<path d="M12.0001 20.5H9.00006" stroke="#EE2B49" stroke-width="1.5" stroke-linecap="round" stroke-linejoin="round"/>
</g>
<defs>
<clipPath id="clip0_1173_2823">
<rect width="32" height="32" rx="8" fill="white"/>
</clipPath>
</defs>
</svg>
