<svg width="24" height="24" viewBox="0 0 24 24" fill="none" xmlns="http://www.w3.org/2000/svg">
<path d="M16.2648 13.4221H8.7877C7.68224 13.4221 6.78687 12.5267 6.78687 11.4212V8.68311" stroke="#06A1D7" stroke-width="1.5" stroke-linecap="round" stroke-linejoin="round"/>
<path d="M10.9997 18.0028H4.99717C3.89171 18.0028 2.99634 17.1075 2.99634 16.002V4.99742C2.99634 3.89195 3.89171 2.99658 4.99717 2.99658H12.0001C13.1055 2.99658 14.0009 3.89195 14.0009 4.99742V5.99783" stroke="#06A1D7" stroke-width="1.5" stroke-linecap="round" stroke-linejoin="round"/>
<path d="M10.9998 11.0001V7.99888C10.9998 6.89342 11.8951 5.99805 13.0006 5.99805H19.0031C20.1085 5.99805 21.0039 6.89342 21.0039 7.99888V19.0035C21.0039 20.1089 20.1085 21.0043 19.0031 21.0043H13.0006C11.8951 21.0043 10.9998 20.1089 10.9998 19.0035V16.0022" stroke="#06A1D7" stroke-width="1.5" stroke-linecap="round" stroke-linejoin="round"/>
<path d="M14.3691 15.3179L16.2649 13.4222L14.3691 11.5264" stroke="#06A1D7" stroke-width="1.5" stroke-linecap="round" stroke-linejoin="round"/>
</svg>
