<svg width="24" height="24" viewBox="0 0 24 24" fill="none" xmlns="http://www.w3.org/2000/svg">
<path fill-rule="evenodd" clip-rule="evenodd" d="M17.999 7H6.00101C5.25701 7 4.77301 7.785 5.10801 8.45L5.61101 9.45C5.78101 9.787 6.12701 10 6.50501 10H17.496C17.874 10 18.219 9.787 18.389 9.45L18.892 8.45C19.227 7.785 18.743 7 17.999 7V7Z" stroke="#EE2B49" stroke-width="1.5" stroke-linecap="round" stroke-linejoin="round"/>
<path d="M14.957 5.88867C14.094 6.78667 12.737 6.99967 12.08 6.99967" stroke="#EE2B49" stroke-width="1.5" stroke-linecap="round" stroke-linejoin="round"/>
<path d="M12.08 7.00009C12.08 7.00009 11.685 4.50809 12.657 3.49609" stroke="#EE2B49" stroke-width="1.5" stroke-linecap="round" stroke-linejoin="round"/>
<path d="M14.957 5.88877C15.592 5.22777 15.592 4.15577 14.957 3.49477C14.322 2.83377 13.292 2.83377 12.657 3.49477" stroke="#EE2B49" stroke-width="1.5" stroke-linecap="round" stroke-linejoin="round"/>
<path d="M9.043 5.88867C9.906 6.78667 11.263 6.99967 11.92 6.99967" stroke="#EE2B49" stroke-width="1.5" stroke-linecap="round" stroke-linejoin="round"/>
<path d="M11.92 7.00009C11.92 7.00009 12.315 4.50809 11.343 3.49609" stroke="#EE2B49" stroke-width="1.5" stroke-linecap="round" stroke-linejoin="round"/>
<path d="M9.04299 5.88877C8.40799 5.22777 8.40799 4.15577 9.04299 3.49477C9.67799 2.83377 10.708 2.83377 11.343 3.49477" stroke="#EE2B49" stroke-width="1.5" stroke-linecap="round" stroke-linejoin="round"/>
<path d="M6.08 9.89648C5.541 10.7895 4.282 12.8755 3.552 14.0865C3.19 14.6855 3 15.3705 3 16.0715V16.0715C3 16.9935 3.331 17.8845 3.933 18.5835L4.866 19.6655C5.597 20.5135 6.661 21.0005 7.78 21.0005H16.22C17.339 21.0005 18.403 20.5135 19.134 19.6655L20.067 18.5835C20.669 17.8845 21 16.9935 21 16.0715V16.0715C21 15.3705 20.809 14.6835 20.447 14.0835L17.92 9.89648" stroke="#EE2B49" stroke-width="1.5" stroke-linecap="round" stroke-linejoin="round"/>
</svg>
