<svg width="24" height="24" viewBox="0 0 24 24" fill="none" xmlns="http://www.w3.org/2000/svg">
<path d="M12.9817 14.0008H20.5035C21.3323 14.0008 22.0042 13.329 22.0042 12.5002V6.4977C22.0042 5.66892 21.3323 4.99707 20.5035 4.99707H10.4994C9.6706 4.99707 8.99875 5.66892 8.99875 6.4977V13.0004" stroke="#F2712D" stroke-width="1.5" stroke-linecap="round" stroke-linejoin="round"/>
<path d="M14.4405 8.4384C15.0273 7.85714 15.9734 7.85936 16.5574 8.44337C17.1414 9.02737 17.1437 9.97354 16.5624 10.5603" stroke="#F2712D" stroke-width="1.5" stroke-linecap="round" stroke-linejoin="round"/>
<path d="M8.99874 7.99805H6.70597C6.24005 7.99805 5.78053 8.10651 5.3638 8.31489L4.77835 8.60761C4.26785 8.86284 3.84072 9.25836 3.54707 9.74778L1.99582 12.3332" stroke="#F2712D" stroke-width="1.5" stroke-linecap="round" stroke-linejoin="round"/>
<path d="M2.99625 21.0041L8.76052 18.9212C9.56506 18.6305 10.2553 18.0896 10.7299 17.3779L13.724 12.888C14.1595 12.235 14.0734 11.3654 13.5184 10.8103V10.8103C12.8755 10.1675 11.8333 10.1674 11.1902 10.8101L8.99875 13.0007H6.99791" stroke="#F2712D" stroke-width="1.5" stroke-linecap="round" stroke-linejoin="round"/>
</svg>
