<svg width="24" height="24" viewBox="0 0 24 24" fill="none" xmlns="http://www.w3.org/2000/svg">
<g id="icon / icon__key">
<path id="Path" fill-rule="evenodd" clip-rule="evenodd" d="M8 20.9996V20.9996C9.108 20.9996 10.007 20.1016 10.008 18.9936L10.012 14.9496C10.976 14.5276 11.847 13.8216 12.423 12.7156C13.337 10.9616 13.162 8.75758 11.919 7.21958C9.889 4.70858 6.091 4.71458 4.07 7.23758C2.833 8.78058 2.664 10.9856 3.587 12.7346C4.165 13.8306 5.034 14.5346 5.996 14.9536L5.992 18.9886C5.991 20.0986 6.89 20.9996 8 20.9996V20.9996Z" stroke="#06A1D7" stroke-width="1.5" stroke-linecap="round" stroke-linejoin="round"/>
<path id="Path_2" d="M8.273 10.3462C8.273 10.1832 8.141 10.0522 7.979 10.0522C7.816 10.0532 7.685 10.1852 7.685 10.3472C7.685 10.5102 7.817 10.6412 7.979 10.6412C8.141 10.6412 8.273 10.5092 8.273 10.3462" stroke="#06A1D7" stroke-width="1.5" stroke-linecap="round" stroke-linejoin="round"/>
<path id="Path_3" d="M13.263 5.632C13.263 4.178 12.085 3 10.631 3V3C9.178 3 8 4.178 8 5.632V10.052" stroke="#06A1D7" stroke-width="1.5" stroke-linecap="round" stroke-linejoin="round"/>
<path id="Path_4" d="M11.398 6.66563L11.848 6.21563C12.629 5.43463 13.895 5.43463 14.676 6.21563L20.413 11.9526C21.194 12.7336 21.194 13.9996 20.413 14.7806L17.766 17.4276C16.985 18.2086 15.719 18.2086 14.938 17.4276L11.485 13.9746" stroke="#06A1D7" stroke-width="1.5" stroke-linecap="round" stroke-linejoin="round"/>
</g>
</svg>
