<svg width="16" height="16" viewBox="0 0 16 16" fill="none" xmlns="http://www.w3.org/2000/svg">
<path d="M7.998 11.6682C7.81459 11.6682 7.66452 11.8183 7.66652 12.0017C7.66652 12.1851 7.81659 12.3352 8 12.3352C8.18341 12.3352 8.33347 12.1851 8.33347 12.0017C8.33347 11.8183 8.18341 11.6682 7.998 11.6682" stroke="#464E5F" stroke-width="1.5" stroke-linecap="round" stroke-linejoin="round"/>
<path d="M7.998 7.6665C7.81459 7.6665 7.66452 7.81657 7.66652 7.99998C7.66652 8.18339 7.81659 8.33345 8 8.33345C8.18341 8.33345 8.33347 8.18339 8.33347 7.99998C8.33347 7.81657 8.18341 7.6665 7.998 7.6665" stroke="#464E5F" stroke-width="1.5" stroke-linecap="round" stroke-linejoin="round"/>
<path d="M7.998 3.66492C7.81459 3.66492 7.66452 3.81498 7.66652 3.99839C7.66652 4.1818 7.81659 4.33186 8 4.33186C8.18341 4.33186 8.33347 4.1818 8.33347 3.99839C8.33347 3.81498 8.18341 3.66492 7.998 3.66492" stroke="#464E5F" stroke-width="1.5" stroke-linecap="round" stroke-linejoin="round"/>
</svg>
