<svg width="24" height="24" viewBox="0 0 24 24" fill="none" xmlns="http://www.w3.org/2000/svg">
<g id="icon / icon__card-bill">
<path id="Path" d="M16 5H20.5" stroke="#102E6A" stroke-width="1.5" stroke-linecap="round" stroke-linejoin="round"/>
<path id="Path_2" d="M6 17V14" stroke="#102E6A" stroke-width="1.5" stroke-linecap="round" stroke-linejoin="round"/>
<path id="Path_3" d="M17.5 21H5C3.89543 21 3 20.1046 3 19V18C3 17.4477 3.44772 17 4 17H15C15.5523 17 16 17.4477 16 18V19.5C16 20.3284 16.6716 21 17.5 21V21C18.3284 21 19 20.3284 19 19.5V6.5C19 5.67157 19.6716 5 20.5 5V5C21.3284 5 22 5.67157 22 6.5V9C22 9.55228 21.5523 10 21 10H19" stroke="#102E6A" stroke-width="1.5" stroke-linecap="round" stroke-linejoin="round"/>
<path id="Path_4" fill-rule="evenodd" clip-rule="evenodd" d="M3 5V9C3 10.1046 3.89543 11 5 11H11C12.1046 11 13 10.1046 13 9V5C13 3.89543 12.1046 3 11 3H5C3.89543 3 3 3.89543 3 5Z" stroke="#102E6A" stroke-width="1.5" stroke-linecap="round" stroke-linejoin="round"/>
<path id="Path_5" d="M13 6.5H3" stroke="#102E6A" stroke-width="1.5" stroke-linecap="round" stroke-linejoin="round"/>
</g>
</svg>
