<?xml version="1.0" encoding="UTF-8" standalone="no"?>
<!DOCTYPE svg PUBLIC "-//W3C//DTD SVG 1.1//EN" "http://www.w3.org/Graphics/SVG/1.1/DTD/svg11.dtd">
<svg width="100%" height="100%" viewBox="0 0 1263 286" version="1.1" xmlns="http://www.w3.org/2000/svg" xmlnsxlink="http://www.w3.org/1999/xlink" xml:space="preserve" xmlnsserif="http://www.serif.com/" style="fill-rule:evenodd;clip-rule:evenodd;stroke-linecap:round;stroke-miterlimit:30;">
    <g transform="matrix(1,0,0,1,-6862,-1493)">
        <g id="Artboard3" transform="matrix(0.761302,0,0,0.370466,1637.95,939.894)">
            <rect x="6862" y="1493" width="1659" height="772" style="fill:none;"/>
            <clipPath id="_clip1">
                <rect x="6862" y="1493" width="1659" height="772"/>
            </clipPath>
            <g clip-path="url(#_clip1)">
                <g transform="matrix(3.2549,0,0,5.67878,-496.331,-7373.68)">
                    <g transform="matrix(0.432516,0,0,0.509439,1253.87,805.217)">
                        <g transform="matrix(2.05675,0,0,2.05675,545.334,1358.44)">
                            <path d="M919.297,81.558L957.921,62.069L972.233,69.29L972.233,65.885L979.189,65.885L979.189,72.8L996.546,81.558C990.474,81.595 984.628,82.591 979.151,84.403L936.692,84.403C931.215,82.591 925.369,81.595 919.297,81.558Z" style="fill:rgb(14,46,106);"/>
                        </g>
                        <g transform="matrix(1,0,0,1,1563.12,1443.44)">
                            <path d="M920.748,93.315L920.736,93.315C914.898,90.63 908.799,88.415 902.489,86.718L902.489,84.197L1002.36,84.197L1002.36,86.718C996.048,88.415 989.95,90.63 984.111,93.315L984.1,93.315L984.1,93.32C972.358,98.721 961.668,106.022 952.424,114.828C943.18,106.022 932.49,98.721 920.748,93.32L920.748,93.315ZM984.1,304.68L984.1,305.879L920.748,305.879L920.748,304.68C932.49,299.279 943.18,291.978 952.424,283.172C961.668,291.978 972.358,299.279 984.1,304.68ZM984.1,103.741L984.1,167.161C979.223,150.023 970.51,134.493 958.948,121.562C966.394,114.479 974.86,108.457 984.1,103.741ZM984.1,221.491L984.1,294.259C974.86,289.543 966.394,283.521 958.948,276.438C956.676,274.276 954.499,272.016 952.424,269.665C935.797,250.822 925.704,226.08 925.704,199C925.704,190.968 923.928,183.347 920.748,176.509L920.748,103.741C929.988,108.457 938.453,114.479 945.9,121.562C948.171,123.724 950.349,125.984 952.424,128.335C969.05,147.178 979.144,171.92 979.144,199C979.144,207.032 980.92,214.653 984.1,221.491ZM920.748,294.259L920.748,230.839C925.624,247.977 934.338,263.507 945.9,276.438C938.453,283.521 929.988,289.543 920.748,294.259Z" style="fill:rgb(14,46,106);"/>
                        </g>
                        <g transform="matrix(1,0,0,1,1563.29,1443.44)">
                            <path d="M945.725,276.438C926.55,294.678 900.618,305.879 872.09,305.879C813.102,305.879 765.211,257.988 765.211,199C765.211,140.012 813.102,92.121 872.09,92.121C900.618,92.121 926.55,103.322 945.725,121.562C947.997,123.724 950.174,125.984 952.249,128.335C968.876,147.178 978.969,171.92 978.969,199C978.969,208.281 981.34,217.013 985.509,224.622C994.589,241.193 1012.2,252.44 1032.41,252.44C1061.9,252.44 1085.85,228.494 1085.85,199C1085.85,169.506 1061.9,145.56 1032.41,145.56C1012.2,145.56 994.589,156.807 985.509,173.378C981.093,153.775 971.718,136.04 958.774,121.562C977.949,103.322 1003.88,92.121 1032.41,92.121C1091.4,92.121 1139.29,140.012 1139.29,199C1139.29,257.988 1091.4,305.879 1032.41,305.879C1003.88,305.879 977.949,294.678 958.774,276.438C956.502,274.276 954.325,272.016 952.249,269.665C935.623,250.822 925.53,226.08 925.53,199C925.53,189.719 923.159,180.987 918.99,173.378C909.91,156.807 892.303,145.56 872.09,145.56C842.596,145.56 818.651,169.506 818.651,199C818.651,228.494 842.596,252.44 872.09,252.44C892.303,252.44 909.91,241.193 918.99,224.622C923.406,244.225 932.781,261.96 945.725,276.438Z" style="fill:rgb(14,46,106);"/>
                        </g>
                        <g transform="matrix(1,0,0,1,2232.26,1458.6)">
                            <g transform="matrix(1,0,0,1,-668.969,-15.1583)">
                                <path d="M968.814,122.158C986.083,107.846 1008.25,99.238 1032.41,99.238C1087.47,99.238 1132.17,143.94 1132.17,199C1132.17,254.06 1087.47,298.762 1032.41,298.762C1008.25,298.762 986.083,290.154 968.814,275.842C977.17,265.368 983.858,253.506 988.473,240.659C999.511,252.296 1015.12,259.556 1032.41,259.556C1065.83,259.556 1092.96,232.422 1092.96,199C1092.96,165.578 1065.83,138.444 1032.41,138.444C1015.12,138.444 999.511,145.704 988.473,157.341C983.858,144.494 977.17,132.632 968.814,122.158Z" style="fill:rgb(251,183,38);"/>
                            </g>
                            <g transform="matrix(1.14646,0.544068,-0.544068,1.14646,-730.138,-607.596)">
                                <path d="M1076.2,199L1032.25,199L1063.33,167.921L1062.65,186.384L1076.2,199Z" style="fill:rgb(251,183,38);stroke:rgb(14,46,106);stroke-width:4.73px;"/>
                            </g>
                            <g transform="matrix(0.625415,0,0,0.625415,-342.826,59.3841)">
                                <circle cx="873.349" cy="199" r="52.269" style="fill:rgb(16,163,111);"/>
                                <path d="M873.349,146.731C902.197,146.731 925.617,170.152 925.617,199C925.617,227.848 902.197,251.269 873.349,251.269C844.501,251.269 821.08,227.848 821.08,199C821.08,170.152 844.501,146.731 873.349,146.731ZM873.349,156.325C849.796,156.325 830.674,175.447 830.674,199C830.674,222.553 849.796,241.675 873.349,241.675C896.902,241.675 916.024,222.553 916.024,199C916.024,175.447 896.902,156.325 873.349,156.325Z" style="fill:rgb(14,46,106);"/>
                            </g>
                        </g>
                        <g transform="matrix(0.20928,0,0,0.20928,2252.87,1600.8)">
                            <circle cx="873.349" cy="199" r="52.269" style="fill:white;"/>
                        </g>
                        <g transform="matrix(0.0803125,0,0,0.0803125,2365.5,1626.46)">
                            <circle cx="873.349" cy="199" r="52.269" style="fill:rgb(14,46,106);"/>
                        </g>
                        <g transform="matrix(0.433544,0,0,0.433544,2057.01,1556.17)">
                            <circle cx="873.349" cy="199" r="52.269" style="fill:none;stroke:white;stroke-width:16.15px;stroke-linejoin:round;stroke-miterlimit:1.5;"/>
                        </g>
                    </g>
                    <g transform="matrix(0.680918,0,0,0.802021,-355.5,-649.232)">
                        <path d="M4106.96,2777.34L4109.58,2777.34L4109.58,2790.88L4114.35,2790.88C4116.65,2790.88 4118.38,2790.48 4119.55,2789.67C4120.73,2788.87 4121.68,2787.55 4122.39,2785.72L4125.57,2777.34L4128.32,2777.34L4124.71,2786.75C4124.23,2788.01 4123.65,2789.07 4122.99,2789.93C4122.33,2790.79 4121.53,2791.48 4120.59,2791.99L4129.57,2807.43L4126.56,2807.43L4118.18,2792.94C4117.12,2793.23 4115.84,2793.37 4114.35,2793.37L4109.58,2793.37L4109.58,2807.43L4106.96,2807.43L4106.96,2777.34Z" style="fill:rgb(14,46,106);fill-rule:nonzero;"/>
                        <path d="M4132.28,2804.93L4133.61,2804.93C4135.05,2804.93 4136.11,2804.58 4136.81,2803.88C4137.52,2803.18 4137.94,2801.98 4138.08,2800.29L4140.06,2777.34L4159.19,2777.34L4159.19,2807.43L4156.57,2807.43L4156.57,2779.83L4142.42,2779.83L4140.66,2800.51C4140.46,2802.91 4139.82,2804.67 4138.73,2805.77C4137.64,2806.88 4136.01,2807.43 4133.83,2807.43L4132.28,2807.43L4132.28,2804.93Z" style="fill:rgb(14,46,106);fill-rule:nonzero;"/>
                        <path d="M4168.65,2804.93L4171.44,2804.93C4172.73,2804.93 4173.76,2804.68 4174.52,2804.16C4175.27,2803.64 4175.97,2802.73 4176.6,2801.41L4177.46,2799.6L4165.47,2777.34L4168.43,2777.34L4176.26,2791.87L4178.79,2796.68L4180.98,2791.69L4187.69,2777.34L4190.49,2777.34L4178.79,2802.53C4177.99,2804.28 4177.04,2805.53 4175.95,2806.29C4174.87,2807.05 4173.48,2807.43 4171.78,2807.43L4168.65,2807.43L4168.65,2804.93Z" style="fill:rgb(14,46,106);fill-rule:nonzero;"/>
                        <path d="M4196.25,2777.34L4215.12,2777.34L4215.12,2779.83L4198.87,2779.83L4198.87,2789.2L4207.04,2789.2C4210.16,2789.2 4212.62,2790.03 4214.41,2791.69C4216.2,2793.36 4217.1,2795.56 4217.1,2798.32C4217.1,2801.07 4216.2,2803.27 4214.41,2804.93C4212.62,2806.6 4210.16,2807.43 4207.04,2807.43L4196.25,2807.43L4196.25,2777.34ZM4206.86,2804.93C4209.24,2804.93 4211.11,2804.33 4212.45,2803.13C4213.8,2801.93 4214.47,2800.32 4214.47,2798.32C4214.47,2796.31 4213.8,2794.7 4212.45,2793.5C4211.11,2792.3 4209.24,2791.69 4206.86,2791.69L4198.87,2791.69L4198.87,2804.93L4206.86,2804.93Z" style="fill:rgb(14,46,106);fill-rule:nonzero;"/>
                        <path d="M4119.67,2854.43C4116.41,2854.33 4113.54,2853.62 4111.06,2852.3C4108.57,2850.97 4106.66,2849.16 4105.32,2846.85C4103.98,2844.54 4103.31,2841.89 4103.31,2838.89C4103.31,2835.92 4103.99,2833.27 4105.34,2830.95C4106.7,2828.63 4108.61,2826.8 4111.08,2825.46C4113.55,2824.12 4116.41,2823.4 4119.67,2823.3L4119.67,2819.19L4130.56,2819.19L4130.56,2823.3C4133.82,2823.4 4136.68,2824.12 4139.15,2825.46C4141.62,2826.8 4143.53,2828.63 4144.89,2830.95C4146.24,2833.27 4146.92,2835.92 4146.92,2838.89C4146.92,2841.89 4146.24,2844.54 4144.89,2846.85C4143.53,2849.16 4141.62,2850.97 4139.15,2852.3C4136.68,2853.62 4133.82,2854.33 4130.56,2854.43L4130.56,2858.73L4119.67,2858.73L4119.67,2854.43ZM4114.73,2838.89C4114.73,2840.47 4115.21,2841.73 4116.16,2842.66C4117.11,2843.6 4118.38,2844.13 4119.96,2844.26L4119.96,2833.47C4118.38,2833.6 4117.11,2834.14 4116.16,2835.09C4115.21,2836.04 4114.73,2837.31 4114.73,2838.89ZM4130.27,2844.26C4131.85,2844.13 4133.11,2843.6 4134.05,2842.66C4134.98,2841.73 4135.45,2840.47 4135.45,2838.89C4135.45,2837.31 4134.98,2836.04 4134.05,2835.09C4133.11,2834.14 4131.85,2833.6 4130.27,2833.47L4130.27,2844.26Z" style="fill:rgb(14,46,106);fill-rule:nonzero;"/>
                        <path d="M4151.18,2821.95L4162.7,2821.95L4162.7,2832.11L4162.6,2836.71L4162.75,2836.71L4173.49,2821.95L4183.07,2821.95L4183.07,2855.83L4171.56,2855.83L4171.56,2845.52L4171.65,2840.97L4171.46,2840.92L4160.66,2855.83L4151.18,2855.83L4151.18,2821.95Z" style="fill:rgb(14,46,106);fill-rule:nonzero;"/>
                        <path d="M4208.77,2843.92L4200.84,2843.92L4200.84,2855.83L4189.12,2855.83L4189.12,2821.95L4200.84,2821.95L4200.84,2833.27L4208.77,2833.27L4208.77,2821.95L4220.49,2821.95L4220.49,2855.83L4208.77,2855.83L4208.77,2843.92Z" style="fill:rgb(14,46,106);fill-rule:nonzero;"/>
                        <path d="M4236.27,2821.95L4248.46,2821.95L4261.1,2855.83L4248.8,2855.83L4247.3,2851.62L4237.38,2851.62L4235.88,2855.83L4223.68,2855.83L4236.27,2821.95ZM4245.46,2843.87L4242.46,2834.58L4242.27,2834.58L4239.32,2843.87L4245.46,2843.87Z" style="fill:rgb(14,46,106);fill-rule:nonzero;"/>
                        <path d="M4283.94,2843.92L4276,2843.92L4276,2855.83L4264.29,2855.83L4264.29,2821.95L4276,2821.95L4276,2833.27L4283.94,2833.27L4283.94,2821.95L4295.65,2821.95L4295.65,2855.83L4283.94,2855.83L4283.94,2843.92Z" style="fill:rgb(14,46,106);fill-rule:nonzero;"/>
                        <path d="M4317.97,2856.55C4314.42,2856.55 4311.29,2855.81 4308.58,2854.33C4305.87,2852.84 4303.76,2850.76 4302.26,2848.09C4300.76,2845.41 4300.01,2842.34 4300.01,2838.89C4300.01,2835.44 4300.76,2832.37 4302.26,2829.69C4303.76,2827.01 4305.87,2824.93 4308.58,2823.45C4311.29,2821.97 4314.39,2821.22 4317.87,2821.22C4321.1,2821.22 4323.99,2821.82 4326.56,2823.01C4329.12,2824.21 4331.22,2825.93 4332.85,2828.17C4334.48,2830.41 4335.55,2833.05 4336.07,2836.08L4324.6,2836.08C4324.15,2834.79 4323.36,2833.77 4322.25,2833.01C4321.14,2832.25 4319.85,2831.87 4318.4,2831.87C4316.43,2831.87 4314.84,2832.52 4313.63,2833.81C4312.42,2835.1 4311.82,2836.79 4311.82,2838.89C4311.82,2840.95 4312.42,2842.64 4313.63,2843.95C4314.84,2845.25 4316.4,2845.91 4318.31,2845.91C4319.82,2845.91 4321.14,2845.52 4322.27,2844.74C4323.4,2843.97 4324.21,2842.91 4324.69,2841.55L4336.21,2841.55C4335.83,2844.55 4334.8,2847.18 4333.14,2849.44C4331.48,2851.7 4329.34,2853.45 4326.73,2854.69C4324.11,2855.93 4321.19,2856.55 4317.97,2856.55Z" style="fill:rgb(14,46,106);fill-rule:nonzero;"/>
                        <path d="M4357.46,2856.55C4353.82,2856.55 4350.57,2855.8 4347.73,2854.3C4344.89,2852.8 4342.68,2850.71 4341.1,2848.04C4339.52,2845.36 4338.73,2842.31 4338.73,2838.89C4338.73,2835.47 4339.52,2832.42 4341.1,2829.74C4342.68,2827.06 4344.89,2824.97 4347.73,2823.47C4350.57,2821.97 4353.82,2821.22 4357.46,2821.22C4361.14,2821.22 4364.4,2821.97 4367.24,2823.47C4370.08,2824.97 4372.29,2827.06 4373.87,2829.74C4375.45,2832.42 4376.24,2835.47 4376.24,2838.89C4376.24,2842.31 4375.45,2845.36 4373.87,2848.04C4372.29,2850.71 4370.08,2852.8 4367.24,2854.3C4364.4,2855.8 4361.14,2856.55 4357.46,2856.55ZM4350.54,2838.89C4350.54,2840.95 4351.19,2842.64 4352.48,2843.95C4353.77,2845.25 4355.43,2845.91 4357.46,2845.91C4359.49,2845.91 4361.16,2845.25 4362.47,2843.95C4363.78,2842.64 4364.43,2840.95 4364.43,2838.89C4364.43,2836.82 4363.78,2835.14 4362.47,2833.83C4361.16,2832.52 4359.49,2831.87 4357.46,2831.87C4355.43,2831.87 4353.77,2832.52 4352.48,2833.83C4351.19,2835.14 4350.54,2836.82 4350.54,2838.89Z" style="fill:rgb(14,46,106);fill-rule:nonzero;"/>
                        <path d="M4380.55,2821.95L4399.09,2821.95C4402.57,2821.95 4405.32,2822.76 4407.34,2824.37C4409.35,2825.98 4410.36,2828.19 4410.36,2831C4410.36,2832.68 4410,2834.18 4409.27,2835.5C4408.55,2836.82 4407.51,2837.87 4406.15,2838.65C4407.73,2839.32 4408.99,2840.37 4409.93,2841.77C4410.86,2843.17 4411.33,2844.78 4411.33,2846.58C4411.33,2848.39 4410.85,2850 4409.9,2851.4C4408.95,2852.8 4407.6,2853.89 4405.86,2854.67C4404.12,2855.44 4402.13,2855.83 4399.91,2855.83L4380.55,2855.83L4380.55,2821.95ZM4396.57,2847.84C4397.54,2847.84 4398.29,2847.61 4398.82,2847.14C4399.35,2846.67 4399.62,2846.02 4399.62,2845.18C4399.62,2844.31 4399.35,2843.64 4398.82,2843.17C4398.29,2842.7 4397.54,2842.47 4396.57,2842.47L4391.82,2842.47L4391.82,2847.84L4396.57,2847.84ZM4395.94,2835.07C4396.88,2835.07 4397.6,2834.84 4398.12,2834.39C4398.63,2833.94 4398.89,2833.29 4398.89,2832.45C4398.89,2831.61 4398.63,2830.97 4398.12,2830.51C4397.6,2830.06 4396.88,2829.84 4395.94,2829.84L4391.82,2829.84L4391.82,2835.07L4395.94,2835.07Z" style="fill:rgb(14,46,106);fill-rule:nonzero;"/>
                        <path d="M4432.24,2856.55C4428.59,2856.55 4425.35,2855.8 4422.51,2854.3C4419.67,2852.8 4417.46,2850.71 4415.88,2848.04C4414.3,2845.36 4413.51,2842.31 4413.51,2838.89C4413.51,2835.47 4414.3,2832.42 4415.88,2829.74C4417.46,2827.06 4419.67,2824.97 4422.51,2823.47C4425.35,2821.97 4428.59,2821.22 4432.24,2821.22C4435.92,2821.22 4439.18,2821.97 4442.02,2823.47C4444.86,2824.97 4447.07,2827.06 4448.65,2829.74C4450.23,2832.42 4451.02,2835.47 4451.02,2838.89C4451.02,2842.31 4450.23,2845.36 4448.65,2848.04C4447.07,2850.71 4444.86,2852.8 4442.02,2854.3C4439.18,2855.8 4435.92,2856.55 4432.24,2856.55ZM4425.32,2838.89C4425.32,2840.95 4425.96,2842.64 4427.25,2843.95C4428.55,2845.25 4430.21,2845.91 4432.24,2845.91C4434.27,2845.91 4435.94,2845.25 4437.25,2843.95C4438.56,2842.64 4439.21,2840.95 4439.21,2838.89C4439.21,2836.82 4438.56,2835.14 4437.25,2833.83C4435.94,2832.52 4434.27,2831.87 4432.24,2831.87C4430.21,2831.87 4428.55,2832.52 4427.25,2833.83C4425.96,2835.14 4425.32,2836.82 4425.32,2838.89Z" style="fill:rgb(14,46,106);fill-rule:nonzero;"/>
                        <path d="M4455.33,2821.95L4466.85,2821.95L4466.85,2832.11L4466.75,2836.71L4466.89,2836.71L4477.64,2821.95L4487.22,2821.95L4487.22,2855.83L4475.7,2855.83L4475.7,2845.52L4475.8,2840.97L4475.61,2840.92L4464.81,2855.83L4455.33,2855.83L4455.33,2821.95ZM4463.55,2811.35L4469.6,2811.35L4469.6,2811.78C4469.6,2812.33 4469.77,2812.76 4470.09,2813.07C4470.41,2813.37 4470.85,2813.53 4471.4,2813.53C4471.98,2813.53 4472.42,2813.37 4472.73,2813.07C4473.03,2812.76 4473.19,2812.33 4473.19,2811.78L4473.19,2811.35L4479.28,2811.35L4479.28,2812.12C4479.28,2814.35 4478.63,2816.06 4477.32,2817.25C4476.02,2818.45 4474.04,2819.04 4471.4,2819.04C4468.88,2819.04 4466.94,2818.44 4465.59,2817.23C4464.23,2816.02 4463.55,2814.32 4463.55,2812.12L4463.55,2811.35Z" style="fill:rgb(14,46,106);fill-rule:nonzero;"/>
                        <path d="M4121.46,2904.95C4118.27,2904.95 4115.39,2904.35 4112.82,2903.14C4110.26,2901.93 4108.14,2900.22 4106.48,2898.01C4104.82,2895.8 4103.76,2893.23 4103.31,2890.29L4113.81,2890.29C4114.36,2891.87 4115.28,2893.09 4116.57,2893.94C4117.86,2894.8 4119.38,2895.23 4121.12,2895.23C4122.77,2895.23 4124.18,2894.85 4125.36,2894.09C4126.53,2893.33 4127.4,2892.27 4127.95,2890.92L4117.25,2890.92L4117.25,2883.61L4127.9,2883.61C4127.35,2882.26 4126.49,2881.21 4125.31,2880.46C4124.13,2879.72 4122.74,2879.35 4121.12,2879.35C4119.38,2879.35 4117.87,2879.77 4116.6,2880.61C4115.32,2881.45 4114.43,2882.61 4113.91,2884.09L4103.51,2884.09C4104.02,2881.19 4105.1,2878.65 4106.75,2876.47C4108.39,2874.29 4110.49,2872.61 4113.04,2871.41C4115.59,2870.22 4118.41,2869.62 4121.51,2869.62C4124.99,2869.62 4128.09,2870.37 4130.8,2871.85C4133.51,2873.33 4135.62,2875.41 4137.12,2878.09C4138.62,2880.77 4139.37,2883.84 4139.37,2887.29C4139.37,2890.74 4138.62,2893.81 4137.12,2896.49C4135.62,2899.16 4133.51,2901.24 4130.8,2902.73C4128.09,2904.21 4124.98,2904.95 4121.46,2904.95Z" style="fill:rgb(251,183,38);fill-rule:nonzero;"/>
                        <path d="M4121.46,2904.95C4118.27,2904.95 4115.39,2904.35 4112.82,2903.14C4110.26,2901.93 4108.14,2900.22 4106.48,2898.01C4104.82,2895.8 4103.76,2893.23 4103.31,2890.29L4113.81,2890.29C4114.36,2891.87 4115.28,2893.09 4116.57,2893.94C4117.86,2894.8 4119.38,2895.23 4121.12,2895.23C4122.77,2895.23 4124.18,2894.85 4125.36,2894.09C4126.53,2893.33 4127.4,2892.27 4127.95,2890.92L4117.25,2890.92L4117.25,2883.61L4127.9,2883.61C4127.35,2882.26 4126.49,2881.21 4125.31,2880.46C4124.13,2879.72 4122.74,2879.35 4121.12,2879.35C4119.38,2879.35 4117.87,2879.77 4116.6,2880.61C4115.32,2881.45 4114.43,2882.61 4113.91,2884.09L4103.51,2884.09C4104.02,2881.19 4105.1,2878.65 4106.75,2876.47C4108.39,2874.29 4110.49,2872.61 4113.04,2871.41C4115.59,2870.22 4118.41,2869.62 4121.51,2869.62C4124.99,2869.62 4128.09,2870.37 4130.8,2871.85C4133.51,2873.33 4135.62,2875.41 4137.12,2878.09C4138.62,2880.77 4139.37,2883.84 4139.37,2887.29C4139.37,2890.74 4138.62,2893.81 4137.12,2896.49C4135.62,2899.16 4133.51,2901.24 4130.8,2902.73C4128.09,2904.21 4124.98,2904.95 4121.46,2904.95ZM4121.46,2903.18C4124.65,2903.18 4127.49,2902.52 4129.95,2901.17C4132.36,2899.85 4134.23,2898 4135.57,2895.62C4136.93,2893.19 4137.59,2890.41 4137.59,2887.29C4137.59,2884.16 4136.93,2881.39 4135.57,2878.96C4134.23,2876.58 4132.36,2874.73 4129.95,2873.41C4127.49,2872.06 4124.67,2871.4 4121.51,2871.4C4118.69,2871.4 4116.11,2871.94 4113.79,2873.02C4111.51,2874.09 4109.64,2875.6 4108.17,2877.54C4107.09,2878.96 4106.29,2880.55 4105.75,2882.32C4105.75,2882.32 4112.74,2882.32 4112.74,2882.32C4113.41,2881.01 4114.37,2879.95 4115.62,2879.12C4117.17,2878.1 4119,2877.57 4121.12,2877.57C4123.1,2877.57 4124.81,2878.05 4126.26,2878.96C4127.75,2879.9 4128.85,2881.22 4129.55,2882.94L4130.54,2885.39L4119.03,2885.39L4119.03,2889.14L4130.58,2889.14L4129.6,2891.59C4128.9,2893.3 4127.81,2894.63 4126.32,2895.58C4124.87,2896.52 4123.14,2897 4121.12,2897C4119,2897 4117.16,2896.47 4115.59,2895.43C4114.32,2894.59 4113.33,2893.47 4112.63,2892.07C4112.63,2892.07 4105.51,2892.07 4105.51,2892.07C4106.02,2893.87 4106.81,2895.49 4107.9,2896.94C4109.39,2898.92 4111.28,2900.45 4113.58,2901.53C4115.92,2902.64 4118.55,2903.18 4121.46,2903.18Z" style="fill:rgb(14,46,106);"/>
                        <path d="M4158.24,2902.83C4154.99,2902.73 4152.11,2902.02 4149.63,2900.7C4147.15,2899.37 4145.23,2897.56 4143.9,2895.25C4142.56,2892.94 4141.89,2890.29 4141.89,2887.29C4141.89,2884.32 4142.56,2881.67 4143.92,2879.35C4145.27,2877.03 4147.19,2875.2 4149.65,2873.86C4152.12,2872.52 4154.99,2871.8 4158.24,2871.7L4158.24,2867.59L4169.14,2867.59L4169.14,2871.7C4172.39,2871.8 4175.26,2872.52 4177.73,2873.86C4180.19,2875.2 4182.11,2877.03 4183.46,2879.35C4184.82,2881.67 4185.49,2884.32 4185.49,2887.29C4185.49,2890.29 4184.82,2892.94 4183.46,2895.25C4182.11,2897.56 4180.19,2899.37 4177.73,2900.7C4175.26,2902.02 4172.39,2902.73 4169.14,2902.83L4169.14,2907.13L4158.24,2907.13L4158.24,2902.83ZM4153.31,2887.29C4153.31,2888.87 4153.78,2890.13 4154.74,2891.06C4155.69,2892 4156.95,2892.53 4158.54,2892.66L4158.54,2881.87C4156.95,2882 4155.69,2882.54 4154.74,2883.49C4153.78,2884.44 4153.31,2885.71 4153.31,2887.29ZM4168.85,2892.66C4170.43,2892.53 4171.68,2892 4172.62,2891.06C4173.56,2890.13 4174.02,2888.87 4174.02,2887.29C4174.02,2885.71 4173.56,2884.44 4172.62,2883.49C4171.68,2882.54 4170.43,2882 4168.85,2881.87L4168.85,2892.66Z" style="fill:rgb(251,183,38);fill-rule:nonzero;"/>
                        <path d="M4158.24,2902.83C4154.99,2902.73 4152.11,2902.02 4149.63,2900.7C4147.15,2899.37 4145.23,2897.56 4143.9,2895.25C4142.56,2892.94 4141.89,2890.29 4141.89,2887.29C4141.89,2884.32 4142.56,2881.67 4143.92,2879.35C4145.27,2877.03 4147.19,2875.2 4149.65,2873.86C4152.12,2872.52 4154.99,2871.8 4158.24,2871.7L4158.24,2867.59L4169.14,2867.59L4169.14,2871.7C4172.39,2871.8 4175.26,2872.52 4177.73,2873.86C4180.19,2875.2 4182.11,2877.03 4183.46,2879.35C4184.82,2881.67 4185.49,2884.32 4185.49,2887.29C4185.49,2890.29 4184.82,2892.94 4183.46,2895.25C4182.11,2897.56 4180.19,2899.37 4177.73,2900.7C4175.26,2902.02 4172.39,2902.73 4169.14,2902.83L4169.14,2907.13L4158.24,2907.13L4158.24,2902.83ZM4160.02,2902.83C4160.02,2902.83 4160.02,2905.36 4160.02,2905.36L4167.36,2905.36L4167.36,2901.1L4169.08,2901.05C4172.04,2900.96 4174.65,2900.33 4176.89,2899.13C4179.06,2897.97 4180.74,2896.38 4181.93,2894.35C4183.13,2892.3 4183.72,2889.95 4183.72,2887.29C4183.72,2884.66 4183.13,2882.31 4181.93,2880.25C4180.73,2878.2 4179.05,2876.6 4176.88,2875.42C4174.64,2874.21 4172.04,2873.57 4169.08,2873.48L4167.36,2873.43C4167.36,2873.43 4167.36,2869.37 4167.36,2869.37L4160.02,2869.37L4160.02,2873.43L4158.3,2873.48C4155.34,2873.57 4152.74,2874.21 4150.5,2875.42C4148.33,2876.6 4146.65,2878.2 4145.45,2880.25C4144.25,2882.31 4143.66,2884.66 4143.66,2887.29C4143.66,2889.95 4144.24,2892.31 4145.43,2894.36C4146.61,2896.38 4148.29,2897.97 4150.47,2899.13C4152.72,2900.33 4155.34,2900.96 4158.3,2901.05L4160.02,2901.1L4160.02,2902.83ZM4167.07,2879.94L4168.99,2880.1C4171.05,2880.26 4172.67,2881 4173.89,2882.24C4175.14,2883.51 4175.8,2885.18 4175.8,2887.29C4175.8,2889.4 4175.13,2891.07 4173.88,2892.32C4172.66,2893.54 4171.04,2894.27 4168.99,2894.43L4167.07,2894.59L4167.07,2879.94ZM4168.85,2892.66C4170.43,2892.53 4171.68,2892 4172.62,2891.06C4173.56,2890.13 4174.02,2888.87 4174.02,2887.29C4174.02,2885.71 4173.56,2884.44 4172.62,2883.49C4171.68,2882.54 4170.43,2882 4168.85,2881.87L4168.85,2892.66ZM4151.53,2887.29C4151.53,2885.18 4152.21,2883.5 4153.48,2882.23C4154.71,2881 4156.34,2880.26 4158.39,2880.1L4160.31,2879.94L4160.31,2894.59L4158.39,2894.43C4156.35,2894.27 4154.72,2893.54 4153.49,2892.33C4152.21,2891.08 4151.53,2889.41 4151.53,2887.29ZM4153.31,2887.29C4153.31,2888.87 4153.78,2890.13 4154.74,2891.06C4155.69,2892 4156.95,2892.53 4158.54,2892.66L4158.54,2881.87C4156.95,2882 4155.69,2882.54 4154.74,2883.49C4153.78,2884.44 4153.31,2885.71 4153.31,2887.29Z" style="fill:rgb(14,46,106);"/>
                        <path d="M4204.27,2902.83C4201.02,2902.73 4198.14,2902.02 4195.66,2900.7C4193.17,2899.37 4191.26,2897.56 4189.92,2895.25C4188.58,2892.94 4187.91,2890.29 4187.91,2887.29C4187.91,2884.32 4188.59,2881.67 4189.95,2879.35C4191.3,2877.03 4193.21,2875.2 4195.68,2873.86C4198.15,2872.52 4201.02,2871.8 4204.27,2871.7L4204.27,2867.59L4215.16,2867.59L4215.16,2871.7C4218.42,2871.8 4221.29,2872.52 4223.76,2873.86C4226.22,2875.2 4228.14,2877.03 4229.49,2879.35C4230.85,2881.67 4231.52,2884.32 4231.52,2887.29C4231.52,2890.29 4230.85,2892.94 4229.49,2895.25C4228.14,2897.56 4226.22,2899.37 4223.76,2900.7C4221.29,2902.02 4218.42,2902.73 4215.16,2902.83L4215.16,2907.13L4204.27,2907.13L4204.27,2902.83ZM4199.34,2887.29C4199.34,2888.87 4199.81,2890.13 4200.77,2891.06C4201.72,2892 4202.98,2892.53 4204.56,2892.66L4204.56,2881.87C4202.98,2882 4201.72,2882.54 4200.77,2883.49C4199.81,2884.44 4199.34,2885.71 4199.34,2887.29ZM4214.87,2892.66C4216.45,2892.53 4217.71,2892 4218.65,2891.06C4219.59,2890.13 4220.05,2888.87 4220.05,2887.29C4220.05,2885.71 4219.59,2884.44 4218.65,2883.49C4217.71,2882.54 4216.45,2882 4214.87,2881.87L4214.87,2892.66Z" style="fill:rgb(251,183,38);fill-rule:nonzero;"/>
                        <path d="M4204.27,2902.83C4201.02,2902.73 4198.14,2902.02 4195.66,2900.7C4193.17,2899.37 4191.26,2897.56 4189.92,2895.25C4188.58,2892.94 4187.91,2890.29 4187.91,2887.29C4187.91,2884.32 4188.59,2881.67 4189.95,2879.35C4191.3,2877.03 4193.21,2875.2 4195.68,2873.86C4198.15,2872.52 4201.02,2871.8 4204.27,2871.7L4204.27,2867.59L4215.16,2867.59L4215.16,2871.7C4218.42,2871.8 4221.29,2872.52 4223.76,2873.86C4226.22,2875.2 4228.14,2877.03 4229.49,2879.35C4230.85,2881.67 4231.52,2884.32 4231.52,2887.29C4231.52,2890.29 4230.85,2892.94 4229.49,2895.25C4228.14,2897.56 4226.22,2899.37 4223.76,2900.7C4221.29,2902.02 4218.42,2902.73 4215.16,2902.83L4215.16,2907.13L4204.27,2907.13L4204.27,2902.83ZM4206.05,2902.83C4206.05,2902.83 4206.05,2905.36 4206.05,2905.36L4213.39,2905.36L4213.39,2901.1L4215.11,2901.05C4218.07,2900.96 4220.67,2900.33 4222.91,2899.13C4225.08,2897.97 4226.77,2896.38 4227.96,2894.35C4229.16,2892.3 4229.74,2889.95 4229.74,2887.29C4229.74,2884.66 4229.16,2882.31 4227.95,2880.25C4226.76,2878.2 4225.08,2876.6 4222.91,2875.42C4220.67,2874.21 4218.07,2873.57 4215.11,2873.48L4213.39,2873.43C4213.39,2873.43 4213.39,2869.37 4213.39,2869.37L4206.05,2869.37L4206.05,2873.43L4204.33,2873.48C4201.37,2873.57 4198.77,2874.21 4196.53,2875.42C4194.36,2876.6 4192.68,2878.2 4191.48,2880.25C4190.28,2882.31 4189.69,2884.66 4189.69,2887.29C4189.69,2889.95 4190.27,2892.31 4191.46,2894.36C4192.64,2896.38 4194.32,2897.97 4196.49,2899.13C4198.75,2900.33 4201.36,2900.96 4204.33,2901.05L4206.05,2901.1L4206.05,2902.83ZM4213.1,2879.94L4215.02,2880.1C4217.08,2880.26 4218.7,2881 4219.92,2882.24C4221.16,2883.51 4221.83,2885.18 4221.83,2887.29C4221.83,2889.4 4221.16,2891.07 4219.91,2892.32C4218.69,2893.54 4217.07,2894.27 4215.02,2894.43L4213.1,2894.59L4213.1,2879.94ZM4214.87,2892.66C4216.45,2892.53 4217.71,2892 4218.65,2891.06C4219.59,2890.13 4220.05,2888.87 4220.05,2887.29C4220.05,2885.71 4219.59,2884.44 4218.65,2883.49C4217.71,2882.54 4216.45,2882 4214.87,2881.87L4214.87,2892.66ZM4197.56,2887.29C4197.56,2885.18 4198.24,2883.5 4199.51,2882.23C4200.74,2881 4202.37,2880.26 4204.42,2880.1L4206.34,2879.94L4206.34,2894.59L4204.42,2894.43C4202.37,2894.27 4200.75,2893.54 4199.52,2892.33C4198.24,2891.08 4197.56,2889.41 4197.56,2887.29ZM4199.34,2887.29C4199.34,2888.87 4199.81,2890.13 4200.77,2891.06C4201.72,2892 4202.98,2892.53 4204.56,2892.66L4204.56,2881.87C4202.98,2882 4201.72,2882.54 4200.77,2883.49C4199.81,2884.44 4199.34,2885.71 4199.34,2887.29Z" style="fill:rgb(14,46,106);"/>
                        <path d="M4235.78,2870.35L4260.18,2870.35L4260.18,2879.01L4247.16,2879.01L4247.16,2882.93L4258.92,2882.93L4258.92,2891.35L4247.16,2891.35L4247.16,2895.42L4260.66,2895.42L4260.66,2904.23L4235.78,2904.23L4235.78,2870.35Z" style="fill:rgb(251,183,38);fill-rule:nonzero;"/>
                        <path d="M4235.78,2870.35L4260.18,2870.35L4260.18,2879.01L4247.16,2879.01L4247.16,2882.93L4258.92,2882.93L4258.92,2891.35L4247.16,2891.35L4247.16,2895.42L4260.66,2895.42L4260.66,2904.23L4235.78,2904.23L4235.78,2870.35ZM4237.56,2872.13C4237.56,2872.13 4237.56,2902.45 4237.56,2902.45L4258.88,2902.45L4258.88,2897.2L4245.38,2897.2L4245.38,2889.58L4257.14,2889.58L4257.14,2884.71L4245.38,2884.71L4245.38,2877.23C4245.38,2877.23 4258.4,2877.23 4258.4,2877.23C4258.4,2877.23 4258.4,2872.13 4258.4,2872.13L4237.56,2872.13Z" style="fill:rgb(14,46,106);"/>
                        <path d="M4265.6,2870.35L4277.31,2870.35L4277.31,2881.72L4278.33,2881.72C4279.78,2881.72 4280.8,2881.51 4281.4,2881.09C4282,2880.67 4282.51,2879.84 4282.92,2878.58L4285.68,2870.35L4298.27,2870.35L4293.38,2883.42C4292.67,2885.22 4291.91,2886.69 4291.1,2887.82L4299.43,2904.23L4286.07,2904.23L4280.46,2892.18L4277.31,2892.18L4277.31,2904.23L4265.6,2904.23L4265.6,2870.35Z" style="fill:rgb(251,183,38);fill-rule:nonzero;"/>
                        <path d="M4265.6,2870.35L4277.31,2870.35L4277.31,2881.72L4278.33,2881.72C4279.78,2881.72 4280.8,2881.51 4281.4,2881.09C4282,2880.67 4282.51,2879.84 4282.92,2878.58L4285.68,2870.35L4298.27,2870.35L4293.38,2883.42C4292.67,2885.22 4291.91,2886.69 4291.1,2887.82L4299.43,2904.23L4286.07,2904.23L4280.46,2892.18L4277.31,2892.18L4277.31,2904.23L4265.6,2904.23L4265.6,2870.35ZM4267.38,2872.13C4267.38,2872.13 4267.38,2902.45 4267.38,2902.45L4275.53,2902.45L4275.53,2890.4L4281.59,2890.4L4287.2,2902.45L4296.53,2902.45L4289.03,2887.66L4289.66,2886.79C4290.39,2885.76 4291.07,2884.42 4291.72,2882.78L4295.7,2872.13C4295.7,2872.13 4286.96,2872.13 4286.96,2872.13L4284.61,2879.14C4284.03,2880.87 4283.24,2881.97 4282.42,2882.55C4281.62,2883.11 4280.27,2883.5 4278.33,2883.5L4275.53,2883.5C4275.53,2883.5 4275.53,2872.13 4275.53,2872.13L4267.38,2872.13Z" style="fill:rgb(14,46,106);"/>
                        <path d="M4310.46,2880.95L4300.64,2880.95L4300.64,2870.35L4332,2870.35L4332,2880.95L4322.18,2880.95L4322.18,2904.23L4310.46,2904.23L4310.46,2880.95Z" style="fill:rgb(251,183,38);fill-rule:nonzero;"/>
                        <path d="M4310.46,2880.95L4300.64,2880.95L4300.64,2870.35L4332,2870.35L4332,2880.95L4322.18,2880.95L4322.18,2904.23L4310.46,2904.23L4310.46,2880.95ZM4312.24,2880.95C4312.24,2880.95 4312.24,2902.45 4312.24,2902.45C4312.24,2902.45 4320.4,2902.45 4320.4,2902.45L4320.4,2879.17C4320.4,2879.17 4330.22,2879.17 4330.22,2879.17L4330.22,2872.13C4330.22,2872.13 4302.42,2872.13 4302.42,2872.13C4302.42,2872.13 4302.42,2879.17 4302.42,2879.17L4312.24,2879.17L4312.24,2880.95Z" style="fill:rgb(14,46,106);"/>
                        <path d="M4336.41,2870.35L4347.93,2870.35L4347.93,2880.51L4347.83,2885.11L4347.97,2885.11L4358.72,2870.35L4368.3,2870.35L4368.3,2904.23L4356.78,2904.23L4356.78,2893.92L4356.88,2889.37L4356.69,2889.32L4345.89,2904.23L4336.41,2904.23L4336.41,2870.35Z" style="fill:rgb(251,183,38);fill-rule:nonzero;"/>
                        <path d="M4356.01,2890.26L4345.89,2904.23L4336.41,2904.23L4336.41,2870.35L4347.93,2870.35L4347.93,2880.51L4347.83,2885.11L4347.97,2885.11L4358.72,2870.35L4368.3,2870.35L4368.3,2904.23L4356.78,2904.23L4356.78,2893.92L4356.88,2889.37L4356.69,2889.32L4356.26,2889.91C4355.93,2888.76 4355.72,2887.25 4357.12,2887.6L4357.31,2887.64C4359.12,2888.1 4357.67,2890.16 4357.09,2890.89L4357.19,2890.84L4358.66,2889.41L4358.56,2893.94L4358.56,2902.45L4366.52,2902.45L4366.52,2872.13L4359.62,2872.13L4348.88,2886.89L4346.01,2886.89L4346.15,2880.49L4346.15,2872.13L4338.19,2872.13L4338.19,2902.45L4344.98,2902.45L4353.74,2890.36L4355.07,2890.7L4355.1,2889.33L4356.01,2890.26Z" style="fill:rgb(14,46,106);"/>
                        <path d="M4374.35,2870.35L4392.89,2870.35C4396.38,2870.35 4399.12,2871.16 4401.14,2872.77C4403.16,2874.38 4404.17,2876.59 4404.17,2879.4C4404.17,2881.08 4403.8,2882.58 4403.08,2883.9C4402.35,2885.22 4401.31,2886.27 4399.96,2887.05C4401.54,2887.72 4402.8,2888.76 4403.73,2890.17C4404.67,2891.57 4405.14,2893.18 4405.14,2894.98C4405.14,2896.79 4404.66,2898.4 4403.71,2899.8C4402.76,2901.2 4401.41,2902.29 4399.67,2903.07C4397.92,2903.84 4395.94,2904.23 4393.71,2904.23L4374.35,2904.23L4374.35,2870.35ZM4390.37,2896.24C4391.34,2896.24 4392.09,2896.01 4392.62,2895.54C4393.16,2895.07 4393.42,2894.42 4393.42,2893.58C4393.42,2892.71 4393.16,2892.04 4392.62,2891.57C4392.09,2891.1 4391.34,2890.87 4390.37,2890.87L4385.63,2890.87L4385.63,2896.24L4390.37,2896.24ZM4389.74,2883.47C4390.68,2883.47 4391.4,2883.24 4391.92,2882.79C4392.44,2882.34 4392.7,2881.69 4392.7,2880.85C4392.7,2880.01 4392.44,2879.37 4391.92,2878.92C4391.4,2878.46 4390.68,2878.24 4389.74,2878.24L4385.63,2878.24L4385.63,2883.47L4389.74,2883.47Z" style="fill:rgb(251,183,38);fill-rule:nonzero;"/>
                        <path d="M4374.35,2870.35L4392.89,2870.35C4396.38,2870.35 4399.12,2871.16 4401.14,2872.77C4403.16,2874.38 4404.17,2876.59 4404.17,2879.4C4404.17,2881.08 4403.8,2882.58 4403.08,2883.9C4402.35,2885.22 4401.31,2886.27 4399.96,2887.05C4401.54,2887.72 4402.8,2888.76 4403.73,2890.17C4404.67,2891.57 4405.14,2893.18 4405.14,2894.98C4405.14,2896.79 4404.66,2898.4 4403.71,2899.8C4402.76,2901.2 4401.41,2902.29 4399.67,2903.07C4397.92,2903.84 4395.94,2904.23 4393.71,2904.23L4374.35,2904.23L4374.35,2870.35ZM4376.13,2872.13L4376.13,2902.45L4393.71,2902.45C4395.67,2902.45 4397.41,2902.12 4398.94,2901.44C4400.36,2900.81 4401.46,2899.94 4402.24,2898.8C4402.99,2897.69 4403.36,2896.42 4403.36,2894.98C4403.36,2893.55 4403,2892.27 4402.25,2891.16C4401.51,2890.04 4400.51,2889.22 4399.26,2888.68L4399.07,2885.5C4400.13,2884.9 4400.95,2884.08 4401.52,2883.05C4402.11,2881.97 4402.39,2880.76 4402.39,2879.4C4402.39,2877.18 4401.62,2875.43 4400.03,2874.16C4398.29,2872.76 4395.9,2872.13 4392.89,2872.13L4376.13,2872.13ZM4389.74,2885.24L4383.85,2885.24L4383.85,2876.46L4389.74,2876.46C4391.19,2876.46 4392.29,2876.88 4393.09,2877.58C4393.97,2878.35 4394.47,2879.42 4394.47,2880.85C4394.47,2882.28 4393.97,2883.36 4393.09,2884.13C4392.29,2884.83 4391.19,2885.24 4389.74,2885.24ZM4389.74,2883.47C4390.68,2883.47 4391.4,2883.24 4391.92,2882.79C4392.44,2882.34 4392.7,2881.69 4392.7,2880.85C4392.7,2880.01 4392.44,2879.37 4391.92,2878.92C4391.4,2878.46 4390.68,2878.24 4389.74,2878.24L4385.63,2878.24L4385.63,2883.47L4389.74,2883.47ZM4390.37,2898.02L4383.85,2898.02L4383.85,2889.09L4390.37,2889.09C4391.86,2889.09 4392.98,2889.52 4393.8,2890.24C4394.69,2891.02 4395.2,2892.12 4395.2,2893.58C4395.2,2895 4394.7,2896.09 4393.8,2896.88C4392.98,2897.59 4391.86,2898.02 4390.37,2898.02ZM4390.37,2896.24C4391.34,2896.24 4392.09,2896.01 4392.62,2895.54C4393.16,2895.07 4393.42,2894.42 4393.42,2893.58C4393.42,2892.71 4393.16,2892.04 4392.62,2891.57C4392.09,2891.1 4391.34,2890.87 4390.37,2890.87L4385.63,2890.87L4385.63,2896.24L4390.37,2896.24Z" style="fill:rgb(14,46,106);"/>
                        <path d="M4429,2892.32L4421.06,2892.32L4421.06,2904.23L4409.35,2904.23L4409.35,2870.35L4421.06,2870.35L4421.06,2881.67L4429,2881.67L4429,2870.35L4440.71,2870.35L4440.71,2904.23L4429,2904.23L4429,2892.32Z" style="fill:rgb(251,183,38);fill-rule:nonzero;"/>
                        <path d="M4429,2892.32L4421.06,2892.32L4421.06,2904.23L4409.35,2904.23L4409.35,2870.35L4421.06,2870.35L4421.06,2881.67L4429,2881.67L4429,2870.35L4440.71,2870.35L4440.71,2904.23L4429,2904.23L4429,2892.32ZM4430.77,2892.32C4430.77,2892.32 4430.77,2902.45 4430.77,2902.45L4438.93,2902.45C4438.93,2902.45 4438.93,2872.13 4438.93,2872.13C4438.93,2872.13 4430.77,2872.13 4430.77,2872.13L4430.77,2883.45L4419.28,2883.45C4419.28,2883.45 4419.28,2872.13 4419.28,2872.13L4411.12,2872.13C4411.12,2872.13 4411.12,2902.45 4411.12,2902.45L4419.28,2902.45L4419.28,2890.54L4430.77,2890.54L4430.77,2892.32Z" style="fill:rgb(14,46,106);"/>
                        <path d="M4463.8,2904.95C4460.15,2904.95 4456.91,2904.2 4454.07,2902.7C4451.23,2901.2 4449.02,2899.12 4447.44,2896.44C4445.86,2893.76 4445.07,2890.71 4445.07,2887.29C4445.07,2883.87 4445.86,2880.82 4447.44,2878.14C4449.02,2875.46 4451.23,2873.37 4454.07,2871.87C4456.91,2870.37 4460.15,2869.62 4463.8,2869.62C4467.48,2869.62 4470.73,2870.37 4473.57,2871.87C4476.41,2873.37 4478.62,2875.46 4480.2,2878.14C4481.78,2880.82 4482.57,2883.87 4482.57,2887.29C4482.57,2890.71 4481.78,2893.76 4480.2,2896.44C4478.62,2899.12 4476.41,2901.2 4473.57,2902.7C4470.73,2904.2 4467.48,2904.95 4463.8,2904.95ZM4456.88,2887.29C4456.88,2889.35 4457.52,2891.04 4458.81,2892.35C4460.1,2893.65 4461.76,2894.31 4463.8,2894.31C4465.83,2894.31 4467.5,2893.65 4468.81,2892.35C4470.11,2891.04 4470.77,2889.35 4470.77,2887.29C4470.77,2885.22 4470.11,2883.54 4468.81,2882.23C4467.5,2880.92 4465.83,2880.27 4463.8,2880.27C4461.76,2880.27 4460.1,2880.92 4458.81,2882.23C4457.52,2883.54 4456.88,2885.22 4456.88,2887.29Z" style="fill:rgb(251,183,38);fill-rule:nonzero;"/>
                        <path d="M4463.8,2904.95C4460.15,2904.95 4456.91,2904.2 4454.07,2902.7C4451.23,2901.2 4449.02,2899.12 4447.44,2896.44C4445.86,2893.76 4445.07,2890.71 4445.07,2887.29C4445.07,2883.87 4445.86,2880.82 4447.44,2878.14C4449.02,2875.46 4451.23,2873.37 4454.07,2871.87C4456.91,2870.37 4460.15,2869.62 4463.8,2869.62C4467.48,2869.62 4470.73,2870.37 4473.57,2871.87C4476.41,2873.37 4478.62,2875.46 4480.2,2878.14C4481.78,2880.82 4482.57,2883.87 4482.57,2887.29C4482.57,2890.71 4481.78,2893.76 4480.2,2896.44C4478.62,2899.12 4476.41,2901.2 4473.57,2902.7C4470.73,2904.2 4467.48,2904.95 4463.8,2904.95ZM4463.8,2903.18C4467.16,2903.18 4470.15,2902.51 4472.74,2901.13C4475.28,2899.79 4477.26,2897.93 4478.67,2895.53C4480.1,2893.12 4480.8,2890.37 4480.8,2887.29C4480.8,2884.21 4480.1,2881.46 4478.67,2879.05C4477.26,2876.65 4475.28,2874.79 4472.74,2873.45C4470.15,2872.07 4467.16,2871.4 4463.8,2871.4C4460.46,2871.4 4457.49,2872.07 4454.9,2873.45C4452.36,2874.79 4450.38,2876.65 4448.97,2879.05C4447.54,2881.46 4446.84,2884.21 4446.84,2887.29C4446.84,2890.37 4447.54,2893.12 4448.97,2895.53C4450.38,2897.93 4452.36,2899.79 4454.9,2901.13C4457.49,2902.5 4460.46,2903.18 4463.8,2903.18ZM4455.1,2887.29C4455.1,2884.71 4455.93,2882.61 4457.55,2880.98C4459.17,2879.34 4461.24,2878.49 4463.8,2878.49C4466.34,2878.49 4468.43,2879.34 4470.06,2880.97C4471.7,2882.61 4472.54,2884.71 4472.54,2887.29C4472.54,2889.87 4471.7,2891.97 4470.06,2893.6C4468.43,2895.24 4466.34,2896.09 4463.8,2896.09C4461.24,2896.09 4459.17,2895.24 4457.55,2893.6C4455.93,2891.96 4455.1,2889.87 4455.1,2887.29ZM4456.88,2887.29C4456.88,2889.35 4457.52,2891.04 4458.81,2892.35C4460.1,2893.65 4461.76,2894.31 4463.8,2894.31C4465.83,2894.31 4467.5,2893.65 4468.81,2892.35C4470.11,2891.04 4470.77,2889.35 4470.77,2887.29C4470.77,2885.22 4470.11,2883.54 4468.81,2882.23C4467.5,2880.92 4465.83,2880.27 4463.8,2880.27C4461.76,2880.27 4460.1,2880.92 4458.81,2882.23C4457.52,2883.54 4456.88,2885.22 4456.88,2887.29Z" style="fill:rgb(14,46,106);"/>
                        <path d="M4503.1,2904.95C4499.55,2904.95 4496.42,2904.21 4493.71,2902.73C4491,2901.24 4488.89,2899.16 4487.39,2896.49C4485.89,2893.81 4485.14,2890.74 4485.14,2887.29C4485.14,2883.84 4485.89,2880.77 4487.39,2878.09C4488.89,2875.41 4491,2873.33 4493.71,2871.85C4496.42,2870.37 4499.52,2869.62 4503,2869.62C4506.23,2869.62 4509.12,2870.22 4511.69,2871.41C4514.25,2872.61 4516.35,2874.33 4517.98,2876.57C4519.61,2878.81 4520.68,2881.45 4521.2,2884.48L4509.73,2884.48C4509.28,2883.19 4508.49,2882.17 4507.38,2881.41C4506.27,2880.65 4504.98,2880.27 4503.53,2880.27C4501.57,2880.27 4499.98,2880.92 4498.77,2882.21C4497.56,2883.5 4496.95,2885.19 4496.95,2887.29C4496.95,2889.35 4497.56,2891.04 4498.77,2892.35C4499.98,2893.65 4501.53,2894.31 4503.44,2894.31C4504.95,2894.31 4506.28,2893.92 4507.4,2893.14C4508.53,2892.37 4509.34,2891.31 4509.82,2889.95L4521.34,2889.95C4520.96,2892.95 4519.93,2895.58 4518.27,2897.84C4516.61,2900.1 4514.47,2901.85 4511.86,2903.09C4509.24,2904.33 4506.32,2904.95 4503.1,2904.95Z" style="fill:rgb(251,183,38);fill-rule:nonzero;"/>
                        <path d="M4503.1,2904.95C4499.55,2904.95 4496.42,2904.21 4493.71,2902.73C4491,2901.24 4488.89,2899.16 4487.39,2896.49C4485.89,2893.81 4485.14,2890.74 4485.14,2887.29C4485.14,2883.84 4485.89,2880.77 4487.39,2878.09C4488.89,2875.41 4491,2873.33 4493.71,2871.85C4496.42,2870.37 4499.52,2869.62 4503,2869.62C4506.23,2869.62 4509.12,2870.22 4511.69,2871.41C4514.25,2872.61 4516.35,2874.33 4517.98,2876.57C4519.61,2878.81 4520.68,2881.45 4521.2,2884.48L4509.73,2884.48C4509.28,2883.19 4508.49,2882.17 4507.38,2881.41C4506.27,2880.65 4504.98,2880.27 4503.53,2880.27C4501.57,2880.27 4499.98,2880.92 4498.77,2882.21C4497.56,2883.5 4496.95,2885.19 4496.95,2887.29C4496.95,2889.35 4497.56,2891.04 4498.77,2892.35C4499.98,2893.65 4501.53,2894.31 4503.44,2894.31C4504.95,2894.31 4506.28,2893.92 4507.4,2893.14C4508.53,2892.37 4509.34,2891.31 4509.82,2889.95L4521.34,2889.95C4520.96,2892.95 4519.93,2895.58 4518.27,2897.84C4516.61,2900.1 4514.47,2901.85 4511.86,2903.09C4509.24,2904.33 4506.32,2904.95 4503.1,2904.95ZM4503.1,2903.18C4506.04,2903.18 4508.71,2902.62 4511.09,2901.49C4513.43,2900.37 4515.35,2898.81 4516.84,2896.79C4517.94,2895.28 4518.73,2893.6 4519.2,2891.73C4519.2,2891.73 4510.98,2891.73 4510.98,2891.73C4510.36,2892.9 4509.5,2893.86 4508.41,2894.61C4506.99,2895.58 4505.34,2896.09 4503.44,2896.09C4501,2896.09 4499.01,2895.23 4497.46,2893.55C4495.96,2891.93 4495.17,2889.85 4495.17,2887.29C4495.17,2884.68 4495.97,2882.59 4497.47,2880.99C4499.01,2879.35 4501.02,2878.49 4503.53,2878.49C4505.36,2878.49 4506.98,2878.98 4508.38,2879.94C4509.45,2880.67 4510.29,2881.59 4510.89,2882.7C4510.89,2882.7 4518.98,2882.7 4518.98,2882.7C4518.44,2880.81 4517.63,2879.11 4516.54,2877.61C4515.09,2875.62 4513.22,2874.09 4510.94,2873.03C4508.6,2871.93 4505.95,2871.4 4503,2871.4C4499.84,2871.4 4497.02,2872.06 4494.56,2873.41C4492.15,2874.73 4490.28,2876.58 4488.94,2878.96C4487.58,2881.39 4486.92,2884.16 4486.92,2887.29C4486.92,2890.41 4487.58,2893.19 4488.94,2895.62C4490.28,2898 4492.15,2899.85 4494.56,2901.17C4497.02,2902.52 4499.87,2903.18 4503.1,2903.18Z" style="fill:rgb(14,46,106);"/>
                        <path d="M4532.43,2880.95L4522.6,2880.95L4522.6,2870.35L4553.97,2870.35L4553.97,2880.95L4544.14,2880.95L4544.14,2904.23L4532.43,2904.23L4532.43,2880.95Z" style="fill:rgb(251,183,38);fill-rule:nonzero;"/>
                        <path d="M4532.43,2880.95L4522.6,2880.95L4522.6,2870.35L4553.97,2870.35L4553.97,2880.95L4544.14,2880.95L4544.14,2904.23L4532.43,2904.23L4532.43,2880.95ZM4534.21,2880.95C4534.21,2880.95 4534.21,2902.45 4534.21,2902.45C4534.21,2902.45 4542.36,2902.45 4542.36,2902.45L4542.36,2879.17C4542.36,2879.17 4552.19,2879.17 4552.19,2879.17L4552.19,2872.13C4552.19,2872.13 4524.38,2872.13 4524.38,2872.13C4524.38,2872.13 4524.38,2879.17 4524.38,2879.17L4534.21,2879.17L4534.21,2880.95Z" style="fill:rgb(14,46,106);"/>
                        <path d="M4558.37,2870.35L4569.89,2870.35L4569.89,2880.51L4569.79,2885.11L4569.94,2885.11L4580.68,2870.35L4590.27,2870.35L4590.27,2904.23L4578.75,2904.23L4578.75,2893.92L4578.84,2889.37L4578.65,2889.32L4567.86,2904.23L4558.37,2904.23L4558.37,2870.35Z" style="fill:rgb(251,183,38);fill-rule:nonzero;"/>
                        <path d="M4577.97,2890.26L4567.86,2904.23L4558.37,2904.23L4558.37,2870.35L4569.89,2870.35L4569.89,2880.51L4569.79,2885.11L4569.94,2885.11L4580.68,2870.35L4590.27,2870.35L4590.27,2904.23L4578.75,2904.23L4578.75,2893.92L4578.84,2889.37L4578.65,2889.32L4578.23,2889.91C4577.89,2888.76 4577.69,2887.25 4579.09,2887.6L4579.27,2887.64C4581.08,2888.1 4579.64,2890.16 4579.06,2890.89L4579.16,2890.84L4580.62,2889.41L4580.53,2893.94L4580.53,2902.45L4588.49,2902.45L4588.49,2872.13L4581.59,2872.13L4570.84,2886.89L4567.98,2886.89L4568.11,2880.49L4568.11,2872.13L4560.15,2872.13L4560.15,2902.45L4566.95,2902.45L4575.7,2890.36L4577.04,2890.7L4577.07,2889.33L4577.97,2890.26Z" style="fill:rgb(14,46,106);"/>
                    </g>
                </g>
            </g>
        </g>
    </g>
</svg>
